<svg width="864" height="589" viewBox="0 0 864 589" fill="none" xmlns="http://www.w3.org/2000/svg">
<path d="M81.2722 106.831C86.146 103.193 91.2107 99.8703 96.3976 96.7538C109.038 86.1049 121.228 74.223 129.973 62.924C146.395 41.7067 201.819 20.9754 227.375 13.9831C260.111 5.02635 297.918 0 331.812 0C352.808 0 372.462 4.93983 391.721 11.5036C419.769 21.0627 446.981 34.0662 476.291 40.2714C540.404 53.8446 602.898 70.537 667.578 80.8224C716.727 88.6382 767.719 105.279 806.917 137.035C874.449 191.745 884.592 287.014 874.828 367.756C868.974 416.162 848.718 489.934 807.999 518.494C775.952 540.971 759.055 568.392 718.173 577.782C689.239 584.429 666.177 588.969 635.922 588.969C533.155 588.969 432.183 576.656 329.647 573.867C266.711 572.155 204.447 561.673 146.748 536.113C123.608 525.862 101.678 513.885 78.8371 503.392C59.344 494.437 46.1642 468.225 28.7833 455.29C-13.6089 423.741 3.35059 316.848 3.35059 271.832C3.35059 205.923 29.9203 145.166 81.2722 106.831Z" fill="#D9D9D9"/>
</svg>
