<svg width="232" height="222" viewBox="0 0 232 222" fill="none" xmlns="http://www.w3.org/2000/svg">
<path d="M190.462 183.889C189.165 184.926 187.837 185.853 186.491 186.709C183.07 189.796 179.699 193.301 177.155 196.727C172.378 203.159 158.557 208.18 152.301 209.653C144.287 211.54 135.273 211.976 127.395 210.888C122.515 210.215 118.171 207.964 113.992 205.193C107.906 201.158 102.17 196.02 95.6383 193.045C81.3519 186.536 67.5826 179.056 53.0154 173.608C41.946 169.467 30.8478 162.374 23.1753 150.701C9.95662 130.59 11.9125 99.0187 17.8375 72.8506C21.3897 57.1623 29.4375 33.6169 40.1946 25.5562C48.6606 19.2123 53.8294 10.7612 63.7564 8.99298C70.7821 7.74155 76.3476 6.99231 83.3795 7.96303C107.265 11.2603 130.175 18.5382 153.88 22.7427C168.43 25.3235 182.427 30.7593 194.68 40.9936C199.594 45.0979 204.149 49.7297 208.983 53.904C213.108 57.4665 214.984 66.4862 218.438 71.2863C226.863 82.9938 218.081 117.508 216.043 132.272C213.059 153.889 204.133 172.963 190.462 183.889Z" fill="#D9D9D9"/>
<path d="M63.9716 163V151.364H70.9489V152.614H65.3807V156.545H70.4261V157.795H65.3807V163H63.9716ZM73.0866 163V154.273H74.3821V155.591H74.473C74.6321 155.159 74.92 154.809 75.3366 154.54C75.7533 154.271 76.223 154.136 76.7457 154.136C76.8442 154.136 76.9673 154.138 77.1151 154.142C77.2628 154.146 77.3745 154.152 77.4503 154.159V155.523C77.4048 155.511 77.3007 155.494 77.1378 155.472C76.9787 155.445 76.8101 155.432 76.6321 155.432C76.2079 155.432 75.8291 155.521 75.4957 155.699C75.1662 155.873 74.9048 156.116 74.7116 156.426C74.5223 156.733 74.4276 157.083 74.4276 157.477V163H73.0866ZM79.0398 163V154.273H80.3807V163H79.0398ZM79.7216 152.818C79.4602 152.818 79.2348 152.729 79.0455 152.551C78.8598 152.373 78.767 152.159 78.767 151.909C78.767 151.659 78.8598 151.445 79.0455 151.267C79.2348 151.089 79.4602 151 79.7216 151C79.983 151 80.2064 151.089 80.392 151.267C80.5814 151.445 80.6761 151.659 80.6761 151.909C80.6761 152.159 80.5814 152.373 80.392 152.551C80.2064 152.729 79.983 152.818 79.7216 152.818ZM86.1321 163.182C85.4048 163.182 84.7628 162.998 84.206 162.631C83.6491 162.259 83.2135 161.737 82.8991 161.062C82.5848 160.384 82.4276 159.583 82.4276 158.659C82.4276 157.742 82.5848 156.947 82.8991 156.273C83.2135 155.598 83.651 155.078 84.2116 154.71C84.7723 154.343 85.42 154.159 86.1548 154.159C86.723 154.159 87.1719 154.254 87.5014 154.443C87.8348 154.629 88.0885 154.841 88.2628 155.08C88.4408 155.314 88.5791 155.508 88.6776 155.659H88.7912V151.364H90.1321V163H88.8366V161.659H88.6776C88.5791 161.818 88.4389 162.019 88.2571 162.261C88.0753 162.5 87.8158 162.714 87.4787 162.903C87.1416 163.089 86.6927 163.182 86.1321 163.182ZM86.3139 161.977C86.8518 161.977 87.3063 161.837 87.6776 161.557C88.0488 161.273 88.331 160.881 88.5241 160.381C88.7173 159.877 88.8139 159.295 88.8139 158.636C88.8139 157.985 88.7192 157.415 88.5298 156.926C88.3404 156.434 88.0601 156.051 87.6889 155.778C87.3177 155.502 86.8594 155.364 86.3139 155.364C85.7457 155.364 85.2723 155.509 84.8935 155.801C84.5185 156.089 84.2363 156.481 84.0469 156.977C83.8613 157.47 83.7685 158.023 83.7685 158.636C83.7685 159.258 83.8632 159.822 84.0526 160.33C84.2457 160.833 84.5298 161.235 84.9048 161.534C85.2836 161.83 85.7533 161.977 86.3139 161.977ZM94.1151 151.364V163H92.7741V151.364H94.1151ZM97.4347 166.273C97.2074 166.273 97.0047 166.254 96.8267 166.216C96.6487 166.182 96.5256 166.148 96.4574 166.114L96.7983 164.932C97.1241 165.015 97.4119 165.045 97.6619 165.023C97.9119 165 98.1335 164.888 98.3267 164.688C98.5237 164.491 98.7036 164.17 98.8665 163.727L99.1165 163.045L95.8892 154.273H97.3438L99.7528 161.227H99.8438L102.253 154.273H103.707L100.003 164.273C99.8362 164.723 99.6297 165.097 99.3835 165.392C99.1373 165.691 98.8513 165.913 98.5256 166.057C98.2036 166.201 97.84 166.273 97.4347 166.273ZM111.659 156.227L110.455 156.568C110.379 156.367 110.267 156.172 110.119 155.983C109.975 155.79 109.778 155.631 109.528 155.506C109.278 155.381 108.958 155.318 108.568 155.318C108.034 155.318 107.589 155.441 107.233 155.688C106.881 155.93 106.705 156.239 106.705 156.614C106.705 156.947 106.826 157.21 107.068 157.403C107.311 157.597 107.689 157.758 108.205 157.886L109.5 158.205C110.28 158.394 110.862 158.684 111.244 159.074C111.627 159.46 111.818 159.958 111.818 160.568C111.818 161.068 111.674 161.515 111.386 161.909C111.102 162.303 110.705 162.614 110.193 162.841C109.682 163.068 109.087 163.182 108.409 163.182C107.519 163.182 106.782 162.989 106.199 162.602C105.616 162.216 105.246 161.652 105.091 160.909L106.364 160.591C106.485 161.061 106.714 161.413 107.051 161.648C107.392 161.883 107.837 162 108.386 162C109.011 162 109.508 161.867 109.875 161.602C110.246 161.333 110.432 161.011 110.432 160.636C110.432 160.333 110.326 160.08 110.114 159.875C109.902 159.667 109.576 159.511 109.136 159.409L107.682 159.068C106.883 158.879 106.295 158.585 105.92 158.188C105.549 157.786 105.364 157.284 105.364 156.682C105.364 156.189 105.502 155.754 105.778 155.375C106.059 154.996 106.439 154.699 106.92 154.483C107.405 154.267 107.955 154.159 108.568 154.159C109.432 154.159 110.11 154.348 110.602 154.727C111.098 155.106 111.451 155.606 111.659 156.227ZM117.632 154.273V155.409H113.109V154.273H117.632ZM114.428 152.182H115.768V160.5C115.768 160.879 115.823 161.163 115.933 161.352C116.047 161.538 116.191 161.663 116.365 161.727C116.543 161.788 116.731 161.818 116.928 161.818C117.075 161.818 117.196 161.811 117.291 161.795C117.386 161.777 117.462 161.761 117.518 161.75L117.791 162.955C117.7 162.989 117.573 163.023 117.411 163.057C117.248 163.095 117.041 163.114 116.791 163.114C116.412 163.114 116.041 163.032 115.678 162.869C115.318 162.706 115.018 162.458 114.78 162.125C114.545 161.792 114.428 161.371 114.428 160.864V152.182ZM122.217 163.205C121.664 163.205 121.162 163.1 120.712 162.892C120.261 162.68 119.903 162.375 119.638 161.977C119.373 161.576 119.24 161.091 119.24 160.523C119.24 160.023 119.339 159.617 119.536 159.307C119.732 158.992 119.996 158.746 120.325 158.568C120.655 158.39 121.018 158.258 121.416 158.17C121.818 158.08 122.221 158.008 122.626 157.955C123.157 157.886 123.587 157.835 123.916 157.801C124.25 157.763 124.492 157.701 124.643 157.614C124.799 157.527 124.876 157.375 124.876 157.159V157.114C124.876 156.553 124.723 156.117 124.416 155.807C124.113 155.496 123.653 155.341 123.036 155.341C122.395 155.341 121.893 155.481 121.53 155.761C121.166 156.042 120.911 156.341 120.763 156.659L119.49 156.205C119.717 155.674 120.02 155.261 120.399 154.966C120.782 154.667 121.198 154.458 121.649 154.341C122.104 154.22 122.551 154.159 122.99 154.159C123.27 154.159 123.592 154.193 123.956 154.261C124.323 154.326 124.678 154.46 125.018 154.665C125.363 154.869 125.649 155.178 125.876 155.591C126.104 156.004 126.217 156.557 126.217 157.25V163H124.876V161.818H124.808C124.717 162.008 124.566 162.21 124.354 162.426C124.142 162.642 123.859 162.826 123.507 162.977C123.155 163.129 122.725 163.205 122.217 163.205ZM122.422 162C122.952 162 123.399 161.896 123.763 161.688C124.13 161.479 124.407 161.21 124.592 160.881C124.782 160.551 124.876 160.205 124.876 159.841V158.614C124.82 158.682 124.695 158.744 124.501 158.801C124.312 158.854 124.092 158.902 123.842 158.943C123.596 158.981 123.356 159.015 123.121 159.045C122.89 159.072 122.702 159.095 122.558 159.114C122.21 159.159 121.884 159.233 121.581 159.335C121.282 159.434 121.039 159.583 120.854 159.784C120.672 159.981 120.581 160.25 120.581 160.591C120.581 161.057 120.753 161.409 121.098 161.648C121.446 161.883 121.888 162 122.422 162ZM135.733 163.205C135.18 163.205 134.678 163.1 134.227 162.892C133.777 162.68 133.419 162.375 133.153 161.977C132.888 161.576 132.756 161.091 132.756 160.523C132.756 160.023 132.854 159.617 133.051 159.307C133.248 158.992 133.511 158.746 133.841 158.568C134.17 158.39 134.534 158.258 134.932 158.17C135.333 158.08 135.737 158.008 136.142 157.955C136.672 157.886 137.102 157.835 137.432 157.801C137.765 157.763 138.008 157.701 138.159 157.614C138.314 157.527 138.392 157.375 138.392 157.159V157.114C138.392 156.553 138.239 156.117 137.932 155.807C137.629 155.496 137.169 155.341 136.551 155.341C135.911 155.341 135.409 155.481 135.045 155.761C134.682 156.042 134.426 156.341 134.278 156.659L133.006 156.205C133.233 155.674 133.536 155.261 133.915 154.966C134.297 154.667 134.714 154.458 135.165 154.341C135.619 154.22 136.066 154.159 136.506 154.159C136.786 154.159 137.108 154.193 137.472 154.261C137.839 154.326 138.193 154.46 138.534 154.665C138.879 154.869 139.165 155.178 139.392 155.591C139.619 156.004 139.733 156.557 139.733 157.25V163H138.392V161.818H138.324C138.233 162.008 138.081 162.21 137.869 162.426C137.657 162.642 137.375 162.826 137.023 162.977C136.67 163.129 136.241 163.205 135.733 163.205ZM135.938 162C136.468 162 136.915 161.896 137.278 161.688C137.646 161.479 137.922 161.21 138.108 160.881C138.297 160.551 138.392 160.205 138.392 159.841V158.614C138.335 158.682 138.21 158.744 138.017 158.801C137.828 158.854 137.608 158.902 137.358 158.943C137.112 158.981 136.871 159.015 136.636 159.045C136.405 159.072 136.218 159.095 136.074 159.114C135.725 159.159 135.4 159.233 135.097 159.335C134.797 159.434 134.555 159.583 134.369 159.784C134.188 159.981 134.097 160.25 134.097 160.591C134.097 161.057 134.269 161.409 134.614 161.648C134.962 161.883 135.403 162 135.938 162ZM142.18 163V154.273H143.476V155.591H143.567C143.726 155.159 144.014 154.809 144.43 154.54C144.847 154.271 145.317 154.136 145.839 154.136C145.938 154.136 146.061 154.138 146.209 154.142C146.357 154.146 146.468 154.152 146.544 154.159V155.523C146.499 155.511 146.394 155.494 146.232 155.472C146.072 155.445 145.904 155.432 145.726 155.432C145.302 155.432 144.923 155.521 144.589 155.699C144.26 155.873 143.999 156.116 143.805 156.426C143.616 156.733 143.521 157.083 143.521 157.477V163H142.18ZM152.476 154.273V155.409H147.953V154.273H152.476ZM149.271 152.182H150.612V160.5C150.612 160.879 150.667 161.163 150.777 161.352C150.891 161.538 151.035 161.663 151.209 161.727C151.387 161.788 151.574 161.818 151.771 161.818C151.919 161.818 152.04 161.811 152.135 161.795C152.23 161.777 152.305 161.761 152.362 161.75L152.635 162.955C152.544 162.989 152.417 163.023 152.254 163.057C152.091 163.095 151.885 163.114 151.635 163.114C151.256 163.114 150.885 163.032 150.521 162.869C150.161 162.706 149.862 162.458 149.624 162.125C149.389 161.792 149.271 161.371 149.271 160.864V152.182ZM158.058 163.182C157.217 163.182 156.492 162.996 155.882 162.625C155.276 162.25 154.808 161.727 154.479 161.057C154.153 160.383 153.99 159.598 153.99 158.705C153.99 157.811 154.153 157.023 154.479 156.341C154.808 155.655 155.267 155.121 155.854 154.739C156.445 154.352 157.134 154.159 157.922 154.159C158.376 154.159 158.825 154.235 159.268 154.386C159.712 154.538 160.115 154.784 160.479 155.125C160.842 155.462 161.132 155.909 161.348 156.466C161.564 157.023 161.672 157.708 161.672 158.523V159.091H154.945V157.932H160.308C160.308 157.439 160.21 157 160.013 156.614C159.82 156.227 159.543 155.922 159.183 155.699C158.827 155.475 158.407 155.364 157.922 155.364C157.388 155.364 156.926 155.496 156.536 155.761C156.149 156.023 155.852 156.364 155.643 156.784C155.435 157.205 155.331 157.655 155.331 158.136V158.909C155.331 159.568 155.445 160.127 155.672 160.585C155.903 161.04 156.223 161.386 156.632 161.625C157.041 161.86 157.517 161.977 158.058 161.977C158.411 161.977 158.729 161.928 159.013 161.83C159.301 161.727 159.549 161.576 159.757 161.375C159.965 161.17 160.126 160.917 160.24 160.614L161.536 160.977C161.399 161.417 161.17 161.803 160.848 162.136C160.526 162.466 160.128 162.723 159.655 162.909C159.181 163.091 158.649 163.182 158.058 163.182ZM163.712 163V154.273H165.007V155.591H165.098C165.257 155.159 165.545 154.809 165.962 154.54C166.378 154.271 166.848 154.136 167.371 154.136C167.469 154.136 167.592 154.138 167.74 154.142C167.888 154.146 168 154.152 168.075 154.159V155.523C168.03 155.511 167.926 155.494 167.763 155.472C167.604 155.445 167.435 155.432 167.257 155.432C166.833 155.432 166.454 155.521 166.121 155.699C165.791 155.873 165.53 156.116 165.337 156.426C165.147 156.733 165.053 157.083 165.053 157.477V163H163.712Z" fill="black"/>
<path d="M81.9776 97.3007C78.7014 96.8036 75.9525 99.5522 76.4628 102.826C77.736 110.997 81.598 118.615 87.5693 124.533C94.977 131.875 105.024 136 115.5 136C115.5 125.617 111.338 115.659 103.931 108.317C97.9469 102.386 90.2408 98.5545 81.9776 97.3007ZM115.5 136C125.976 136 136.023 131.875 143.431 124.533C149.402 118.615 153.264 110.997 154.537 102.826C155.047 99.5522 152.299 96.8036 149.022 97.3007C140.759 98.5545 133.053 102.386 127.069 108.317C119.662 115.659 115.5 125.617 115.5 136ZM135.929 53.9752C139.144 53.2581 141.833 56.0058 141.833 59.2998V75.1C141.833 82.0222 139.059 88.6608 134.12 93.5555C129.182 98.4502 122.484 101.2 115.5 101.2C108.516 101.2 101.818 98.4502 96.8795 93.5555C91.9411 88.6608 89.1667 82.0222 89.1667 75.1V59.35C89.1667 56.0363 91.8862 53.2648 95.1213 53.9821C96.317 54.2473 97.4945 54.5997 98.6467 55.0465C101.061 56.047 103.211 57.526 105.011 59.3965L111.276 53.1863C113.615 50.8683 117.385 50.8683 119.724 53.1863L125.989 59.3965C127.789 57.526 129.939 56.047 132.353 55.0465C133.52 54.6036 134.715 54.2459 135.929 53.9752Z" fill="black"/>
</svg>
