<svg width="389" height="261" viewBox="0 0 389 261" fill="none" xmlns="http://www.w3.org/2000/svg">
<path d="M35.9182 47.214C38.0722 45.606 40.3106 44.1377 42.6029 42.7603C48.1894 38.0541 53.5768 32.8028 57.4416 27.8093C64.6991 18.4323 89.1941 9.27009 100.488 6.17984C114.956 2.2214 131.665 0 146.644 0C155.924 0 164.609 2.18316 173.121 5.084C185.517 9.30868 197.543 15.0556 210.497 17.7979C238.831 23.7966 266.451 31.1738 295.036 35.7195C316.758 39.1737 339.294 46.5279 356.617 60.5624C386.463 84.7419 390.945 126.846 386.63 162.53C384.043 183.923 375.091 216.526 357.095 229.148C342.932 239.082 335.464 251.201 317.396 255.351C304.609 258.288 294.417 260.295 281.046 260.295C235.628 260.295 191.003 254.853 145.688 253.621C117.873 252.864 90.3552 248.231 64.8552 236.935C54.6288 232.405 44.9367 227.112 34.8421 222.474C26.2271 218.516 20.4023 206.932 12.7208 201.216C-6.01445 187.272 1.48079 140.031 1.48079 120.136C1.48079 91.0075 13.2233 64.1561 35.9182 47.214Z" fill="#D9D9D9"/>
</svg>
