<svg width="966" height="879" viewBox="0 0 966 879" fill="none" xmlns="http://www.w3.org/2000/svg">
<path d="M89.4179 159.439C94.7802 154.009 100.353 149.05 106.059 144.399C119.967 128.506 133.379 110.773 143 93.9102C161.067 62.2448 222.047 31.3045 250.164 20.8689C286.181 7.50152 327.777 0 365.068 0C388.17 0 409.793 7.37239 430.982 17.1684C461.841 31.4349 491.781 50.8418 524.029 60.1026C594.567 80.3597 663.326 105.272 734.488 120.622C788.563 132.287 844.666 157.122 887.792 204.516C962.093 286.168 973.253 428.351 962.51 548.853C956.069 621.096 933.784 731.196 888.983 773.82C853.724 807.367 835.133 848.29 790.154 862.305C758.32 872.224 732.947 879 699.659 879C586.592 879 475.499 860.624 362.687 856.461C293.443 853.907 224.938 838.262 161.456 800.115C135.997 784.817 111.869 766.942 86.7388 751.282C65.2919 737.917 50.7911 698.798 31.6682 679.493C-14.9729 632.408 3.68641 472.876 3.68641 405.692C3.68641 307.327 32.9192 216.651 89.4179 159.439Z" fill="#D9D9D9"/>
</svg>
