<svg width="313" height="299" viewBox="0 0 313 299" fill="none" xmlns="http://www.w3.org/2000/svg">
<path d="M274.1 6.34249C297.704 9.5786 320.98 12.7435 344.588 15.2208C346.617 17.9163 347.91 21.0388 348.518 24.3834C351.337 39.885 352.332 55.3826 356.059 70.754C362.968 99.2547 363.195 128.082 362.542 157.435C362.11 176.884 364.524 196.341 365.079 215.786C365.633 235.163 371.186 254.49 374.17 273.573C376.231 286.748 377.14 299.81 377.694 313.108C377.982 320.016 380.09 327.246 380.09 334.038C380.09 336.57 376.284 336.136 374.734 336.152C360.173 336.302 345.603 336.152 331.041 336.152C324.618 336.152 315.524 334.727 309.195 337.139C307.544 337.768 305.345 337.421 303.628 337.421C292.695 337.421 281.782 338.037 270.858 338.407C258.487 338.827 246.12 339.19 233.79 340.239C189.707 343.991 145.469 341.591 101.302 342.776C85.6318 343.197 66.8616 347.859 52.6763 339.676C45.4057 335.481 35.049 330.364 29.1386 324.454C20.3125 315.628 16.2394 305.596 13.0005 294.08C11.0629 287.191 10.8055 279.918 9.19498 272.939C5.2421 255.809 3.2664 237.954 1.65446 220.507C-1.83694 182.718 -0.00996494 147.179 9.1245 110.641C16.2908 81.9762 30.1266 60.3226 49.3641 38.3368C82.4003 0.58115 128.868 0 175.721 0C208.875 0 241.171 1.82811 274.1 6.34249Z" fill="#D9D9D9"/>
</svg>
