<svg width="122" height="122" viewBox="0 0 122 122" fill="none" xmlns="http://www.w3.org/2000/svg">
<path d="M61 10.1666C32.9705 10.1666 10.1667 32.9705 10.1667 61C10.1667 89.0295 32.9705 111.833 61 111.833C89.0295 111.833 111.833 89.0295 111.833 61C111.833 32.9705 89.0295 10.1666 61 10.1666ZM20.3334 61C20.3334 56.43 21.1264 52.0431 22.5243 47.9409L30.5 55.9166L40.6667 66.0833V76.25L50.8334 86.4166L55.9167 91.5V101.316C35.8934 98.7996 20.3334 81.6993 20.3334 61ZM93.1775 85.771C89.8581 83.0972 84.8256 81.3333 81.3334 81.3333V76.25C81.3334 73.5536 80.2622 70.9677 78.3556 69.061C76.449 67.1544 73.8631 66.0833 71.1667 66.0833H50.8334V50.8333C53.5297 50.8333 56.1156 49.7622 58.0223 47.8555C59.9289 45.9489 61 43.363 61 40.6666V35.5833H66.0834C68.7797 35.5833 71.3656 34.5122 73.2723 32.6055C75.1789 30.6989 76.25 28.113 76.25 25.4166V23.3274C91.134 29.3715 101.667 43.9708 101.667 61C101.666 69.9705 98.6791 78.6856 93.1775 85.771Z" fill="black"/>
</svg>
