<svg width="188" height="172" viewBox="0 0 188 172" fill="none" xmlns="http://www.w3.org/2000/svg">
<path d="M19.7709 31.8583C20.7237 30.8241 21.7182 29.8754 22.7394 28.9824C25.1991 25.9669 27.5557 22.6156 29.2198 19.4488C32.3448 13.5021 43.377 7.41494 48.4883 5.31365C55.0355 2.62201 62.6478 0.974977 69.5151 0.73687C73.7693 0.589366 77.7983 1.80896 81.763 3.47763C87.537 5.90783 93.1745 9.29052 99.1721 10.79C112.291 14.0701 125.113 18.2188 138.315 20.5912C148.348 22.3941 158.838 26.6093 167.083 35.0617C181.287 49.624 184.25 75.7363 183.041 97.9959C182.316 111.341 178.915 131.758 170.937 139.894C164.658 146.297 161.496 153.952 153.302 156.82C147.503 158.85 142.874 160.26 136.744 160.472C115.922 161.194 95.3466 158.519 74.5451 158.473C61.7772 158.445 49.0618 156.001 37.1278 149.382C32.3418 146.727 27.7844 143.589 23.0565 140.866C19.0216 138.542 16.1014 131.43 12.4566 127.997C3.5668 119.624 5.98436 90.1265 5.55539 77.7543C4.92732 59.6399 9.73169 42.755 19.7709 31.8583Z" fill="#D9D9D9"/>
<path d="M40.3265 87.4728C40.3398 88.7 40.1298 89.7629 39.6963 90.6616C39.2629 91.5603 38.6625 92.2563 37.8951 92.7495C37.1277 93.2427 36.2478 93.4947 35.2554 93.5055C34.263 93.5163 33.3779 93.2835 32.5999 92.8071C31.822 92.3307 31.2065 91.6479 30.7537 90.7589C30.3008 89.8698 30.0677 88.8117 30.0543 87.5845C30.041 86.3573 30.251 85.2943 30.6845 84.3956C31.1179 83.4969 31.7183 82.8009 32.4857 82.3077C33.2531 81.8145 34.133 81.5625 35.1254 81.5517C36.1178 81.5409 37.0029 81.7737 37.7809 82.2501C38.5588 82.7265 39.1742 83.4093 39.6271 84.2984C40.08 85.1874 40.3131 86.2456 40.3265 87.4728ZM38.9629 87.4876C38.9519 86.4801 38.7741 85.6316 38.4295 84.9421C38.0887 84.2526 37.6303 83.7329 37.0545 83.3831C36.4825 83.0332 35.8442 82.8621 35.1397 82.8698C34.4352 82.8775 33.7989 83.0624 33.2309 83.4247C32.6666 83.7869 32.2197 84.3164 31.8901 85.0132C31.5643 85.71 31.4069 86.5621 31.4179 87.5696C31.4289 88.5772 31.6048 89.4257 31.9456 90.1152C32.2902 90.8047 32.7486 91.3243 33.3206 91.6742C33.8964 92.024 34.5366 92.1951 35.2411 92.1874C35.9456 92.1798 36.58 91.9948 37.1442 91.6326C37.7123 91.2703 38.1592 90.7408 38.485 90.0441C38.8146 89.3473 38.9739 88.4951 38.9629 87.4876ZM33.475 80.2741C33.2364 80.2767 33.0233 80.1881 32.8358 80.0083C32.6519 79.8247 32.5587 79.6136 32.5561 79.375C32.5533 79.1136 32.6418 78.8967 32.8218 78.7243C33.0055 78.5481 33.2166 78.4586 33.4553 78.456C33.7166 78.4532 33.9335 78.538 34.1058 78.7103C34.2819 78.8789 34.3714 79.0938 34.3742 79.3552C34.3768 79.5938 34.292 79.8069 34.1198 79.9944C33.9513 80.178 33.7364 80.2713 33.475 80.2741ZM36.7476 80.2385C36.509 80.2411 36.2959 80.1525 36.1083 79.9727C35.9245 79.7891 35.8312 79.578 35.8287 79.3394C35.8258 79.078 35.9144 78.8611 36.0943 78.6887C36.278 78.5125 36.4892 78.423 36.7278 78.4204C36.9892 78.4176 37.206 78.5024 37.3783 78.6748C37.5544 78.8433 37.6439 79.0582 37.6467 79.3196C37.6493 79.5582 37.5645 79.7713 37.3923 79.9588C37.2238 80.1424 37.0089 80.2357 36.7476 80.2385ZM49.6181 84.4624L46.486 93.2243L45.1224 93.2391L41.8004 84.5475L43.2549 84.5316L45.7395 91.4596L45.8304 91.4586L48.1637 84.4783L49.6181 84.4624ZM54.8312 93.3154C53.9903 93.3245 53.263 93.1468 52.6491 92.7822C52.039 92.4139 51.5656 91.8963 51.2287 91.2294C50.8957 90.5588 50.7243 89.7765 50.7146 88.8826C50.7048 87.9887 50.8591 87.1991 51.1775 86.5138C51.4995 85.8246 51.952 85.2856 52.535 84.8967C53.1216 84.5039 53.8089 84.3032 54.5967 84.2947C55.0512 84.2897 55.5009 84.3606 55.9457 84.5073C56.3905 84.654 56.7966 84.8958 57.1639 85.2327C57.5312 85.5659 57.8258 86.0096 58.0477 86.5641C58.2697 87.1185 58.3851 87.8029 58.3939 88.6173L58.4001 89.1854L51.6733 89.2586L51.6606 88.0995L57.024 88.0412C57.0186 87.5488 56.9154 87.1105 56.7142 86.7263C56.5168 86.3421 56.237 86.0402 55.8748 85.8206C55.5163 85.601 55.0946 85.4939 54.6098 85.4991C54.0758 85.5049 53.6151 85.6425 53.2279 85.9119C52.8444 86.1775 52.5507 86.5216 52.347 86.9443C52.1432 87.367 52.044 87.8188 52.0492 88.2999L52.0576 89.0726C52.0648 89.7316 52.1845 90.289 52.4167 90.7449C52.6527 91.1969 52.9765 91.54 53.3882 91.7742C53.7998 92.0045 54.2765 92.1168 54.8181 92.1109C55.1703 92.1071 55.488 92.0544 55.771 91.9528C56.0577 91.8474 56.3042 91.6932 56.5103 91.4902C56.7164 91.2834 56.8746 91.0279 56.985 90.7236L58.2843 91.0731C58.1527 91.514 57.9278 91.9028 57.6094 92.2396C57.2911 92.5727 56.8962 92.8346 56.4247 93.0253C55.9532 93.2123 55.4221 93.3089 54.8312 93.3154ZM60.4823 93.0721L60.3874 84.3453L61.6828 84.3312L61.6971 85.6493L61.788 85.6484C61.9424 85.2148 62.2264 84.8613 62.6402 84.5879C63.0539 84.3144 63.5221 84.1749 64.0448 84.1692C64.1433 84.1681 64.2664 84.1687 64.4141 84.1708C64.5619 84.173 64.6737 84.1775 64.7495 84.1842L64.7644 85.5478C64.7188 85.5369 64.6144 85.521 64.4513 85.5001C64.2919 85.4753 64.1233 85.4639 63.9452 85.4658C63.521 85.4704 63.1432 85.5635 62.8118 85.7452C62.4842 85.923 62.2255 86.1682 62.0357 86.4809C61.8497 86.7898 61.7588 87.1412 61.7631 87.5351L61.8231 93.0575L60.4823 93.0721ZM69.8303 93.1523C68.9894 93.1614 68.2621 92.9837 67.6482 92.6191C67.0381 92.2507 66.5647 91.7331 66.2279 91.0663C65.8948 90.3956 65.7234 89.6134 65.7137 88.7195C65.704 87.8256 65.8583 87.036 66.1766 86.3507C66.4986 85.6615 66.9511 85.1225 67.5341 84.7335C68.1207 84.3408 68.808 84.1401 69.5958 84.1315C70.0503 84.1266 70.5 84.1975 70.9448 84.3442C71.3896 84.4908 71.7957 84.7327 72.163 85.0696C72.5303 85.4027 72.8249 85.8465 73.0469 86.401C73.2688 86.9554 73.3842 87.6398 73.3931 88.4541L73.3992 89.0223L66.6724 89.0954L66.6598 87.9364L72.0231 87.8781C72.0177 87.3857 71.9145 86.9474 71.7133 86.5632C71.5159 86.179 71.2361 85.8771 70.8739 85.6575C70.5154 85.4379 70.0938 85.3307 69.6089 85.336C69.0749 85.3418 68.6142 85.4794 68.227 85.7488C67.8435 86.0143 67.5499 86.3585 67.3461 86.7812C67.1424 87.2039 67.0431 87.6557 67.0483 88.1368L67.0567 88.9094C67.0639 89.5685 67.1836 90.1259 67.4158 90.5818C67.6518 91.0338 67.9757 91.3769 68.3873 91.611C68.7989 91.8414 69.2756 91.9537 69.8172 91.9478C70.1695 91.9439 70.4871 91.8912 70.7701 91.7897C71.0568 91.6843 71.3033 91.5301 71.5094 91.3271C71.7155 91.1203 71.8737 90.8647 71.9841 90.5605L73.2834 90.91C73.1518 91.3509 72.9269 91.7397 72.6085 92.0765C72.2902 92.4095 71.8953 92.6714 71.4238 92.8622C70.9524 93.0491 70.4212 93.1458 69.8303 93.1523ZM76.1521 84.1739L78.2817 87.7191L80.3336 84.1284L81.879 84.1116L79.1084 88.5056L81.9739 92.8384L80.4286 92.8552L78.3009 89.4917L76.247 92.9006L74.7016 92.9174L77.4267 88.5239L74.6067 84.1907L76.1521 84.1739ZM83.9227 96.0901L83.7923 84.0908L85.0876 84.0767L85.1027 85.463L85.2618 85.4613C85.3586 85.3087 85.4929 85.114 85.6646 84.8773C85.84 84.6367 86.0914 84.4219 86.4189 84.2327C86.7502 84.0397 87.1999 83.9401 87.7681 83.9339C88.5029 83.9259 89.1525 84.1026 89.7171 84.4639C90.2817 84.8252 90.7248 85.3412 91.0465 86.012C91.3682 86.6828 91.5341 87.4765 91.544 88.3931C91.5541 89.3173 91.4056 90.1201 91.0986 90.8015C90.7916 91.4791 90.3617 92.0066 89.8089 92.3838C89.2561 92.7573 88.6161 92.948 87.8889 92.9559C87.3283 92.962 86.8785 92.874 86.5394 92.6921C86.2002 92.5064 85.9384 92.2952 85.754 92.0586C85.5696 91.8181 85.4272 91.6189 85.327 91.4609L85.2134 91.4621L85.2636 96.0755L83.9227 96.0901ZM85.1578 88.4398C85.165 89.0989 85.2679 89.6792 85.4665 90.1809C85.6651 90.6788 85.9516 91.0677 86.3259 91.3478C86.7001 91.624 87.1561 91.7592 87.694 91.7534C88.2546 91.7473 88.7207 91.5945 89.0925 91.2949C89.468 90.9916 89.7477 90.587 89.9316 90.0812C90.1193 89.5716 90.2097 89.0061 90.203 88.385C90.1963 87.7714 90.0956 87.2194 89.9008 86.7291C89.7099 86.2349 89.4234 85.8459 89.0415 85.5622C88.6634 85.2746 88.1902 85.1339 87.6221 85.1401C87.0766 85.146 86.6198 85.2893 86.2517 85.5698C85.8834 85.8466 85.6073 86.2322 85.4233 86.7266C85.2392 87.2173 85.1507 87.7884 85.1578 88.4398ZM94.8509 81.0613L94.9774 92.6969L93.6366 92.7115L93.51 81.0758L94.8509 81.0613ZM100.98 92.8135C100.193 92.8221 99.4993 92.6421 98.9006 92.2736C98.3056 91.905 97.8378 91.3855 97.4972 90.7149C97.1603 90.0443 96.987 89.2582 96.9772 88.3568C96.9673 87.4477 97.1235 86.6524 97.4456 85.9708C97.7715 85.2892 98.2279 84.7577 98.8147 84.3763C99.4053 83.9949 100.095 83.7999 100.882 83.7913C101.67 83.7827 102.362 83.9627 102.957 84.3313C103.555 84.6998 104.023 85.2212 104.36 85.8956C104.701 86.57 104.876 87.3617 104.886 88.2707C104.896 89.1722 104.738 89.9619 104.412 90.6397C104.089 91.3175 103.633 91.8471 103.042 92.2285C102.456 92.6099 101.768 92.8049 100.98 92.8135ZM100.967 91.609C101.566 91.6025 102.057 91.4437 102.44 91.1327C102.823 90.8217 103.104 90.4152 103.284 89.9133C103.464 89.4113 103.551 88.8686 103.545 88.2853C103.539 87.702 103.44 87.1595 103.249 86.6578C103.058 86.156 102.767 85.752 102.378 85.4456C101.988 85.1392 101.494 84.9893 100.895 84.9958C100.297 85.0023 99.8063 85.1629 99.4233 85.4777C99.0404 85.7925 98.7588 86.2028 98.5787 86.7086C98.3986 87.2143 98.3117 87.7589 98.318 88.3422C98.3244 88.9255 98.4231 89.4661 98.6141 89.964C98.8051 90.462 99.0955 90.8623 99.4852 91.1649C99.8748 91.4675 100.369 91.6155 100.967 91.609ZM109.55 92.743C108.997 92.749 108.494 92.6503 108.041 92.4469C107.588 92.2397 107.227 91.9387 106.957 91.5439C106.688 91.1453 106.55 90.6619 106.544 90.0937C106.538 89.5938 106.632 89.1874 106.826 88.8747C107.019 88.5582 107.28 88.3091 107.607 88.1275C107.935 87.9459 108.297 87.8094 108.694 87.7179C109.094 87.6227 109.497 87.5463 109.902 87.4889C110.431 87.4149 110.861 87.3591 111.19 87.3215C111.523 87.28 111.764 87.2148 111.915 87.1261C112.069 87.0373 112.145 86.8849 112.143 86.669L112.142 86.6236C112.136 86.063 111.978 85.6291 111.668 85.3218C111.362 85.0145 110.9 84.8642 110.282 84.871C109.642 84.8779 109.142 85.0235 108.781 85.3078C108.421 85.592 108.168 85.894 108.024 86.2138L106.747 85.7731C106.968 85.2403 107.267 84.8242 107.642 84.5246C108.021 84.2213 108.436 84.0084 108.885 83.8861C109.338 83.7599 109.785 83.6945 110.224 83.6897C110.504 83.6866 110.827 83.7172 111.191 83.7815C111.559 83.8419 111.915 83.9725 112.258 84.1733C112.605 84.3741 112.894 84.6797 113.126 85.09C113.358 85.5004 113.477 86.0522 113.485 86.7453L113.547 92.495L112.207 92.5096L112.194 91.3278L112.125 91.3286C112.037 91.5189 111.887 91.7232 111.678 91.9414C111.468 92.1596 111.188 92.3464 110.837 92.5017C110.486 92.6571 110.057 92.7375 109.55 92.743ZM109.741 91.5363C110.272 91.5306 110.717 91.4215 111.079 91.2093C111.444 90.9969 111.717 90.725 111.899 90.3935C112.085 90.0619 112.176 89.7143 112.172 89.3507L112.159 88.1235C112.103 88.1923 111.978 88.2561 111.786 88.315C111.597 88.3701 111.378 88.4199 111.128 88.4642C110.883 88.5048 110.642 88.5415 110.408 88.5744C110.177 88.6034 109.99 88.6281 109.846 88.6486C109.498 88.6979 109.173 88.7753 108.871 88.8809C108.573 88.9826 108.332 89.1348 108.149 89.3376C107.969 89.5365 107.881 89.8064 107.885 90.1473C107.89 90.6132 108.066 90.9636 108.414 91.1985C108.765 91.4295 109.207 91.5421 109.741 91.5363ZM119.695 83.7003L119.707 84.8366L115.185 84.8858L115.172 83.7495L119.695 83.7003ZM116.468 81.6444L117.809 81.6298L117.899 89.9475C117.903 90.3263 117.961 90.6098 118.073 90.7979C118.189 90.9823 118.334 91.1057 118.509 91.1682C118.688 91.2269 118.876 91.2552 119.073 91.253C119.22 91.2514 119.341 91.2425 119.436 91.2263C119.53 91.2064 119.606 91.1904 119.663 91.1784L119.948 92.3799C119.858 92.415 119.731 92.4505 119.569 92.4863C119.406 92.526 119.2 92.5472 118.95 92.5499C118.571 92.554 118.199 92.4766 117.834 92.3177C117.472 92.1587 117.17 91.9139 116.928 91.5832C116.69 91.2524 116.568 90.8333 116.562 90.3257L116.468 81.6444ZM125.374 92.5482C124.533 92.5573 123.806 92.3796 123.192 92.0151C122.582 91.6467 122.108 91.1291 121.771 90.4623C121.438 89.7916 121.267 89.0093 121.257 88.1154C121.248 87.2215 121.402 86.4319 121.72 85.7466C122.042 85.0575 122.495 84.5184 123.078 84.1295C123.664 83.7367 124.352 83.5361 125.139 83.5275C125.594 83.5225 126.044 83.5934 126.488 83.7401C126.933 83.8868 127.339 84.1286 127.707 84.4655C128.074 84.7987 128.368 85.2425 128.59 85.7969C128.812 86.3514 128.928 87.0357 128.937 87.8501L128.943 88.4182L122.216 88.4914L122.203 87.3324L127.567 87.274C127.561 86.7816 127.458 86.3434 127.257 85.9592C127.06 85.5749 126.78 85.273 126.417 85.0535C126.059 84.8339 125.637 84.7267 125.153 84.732C124.618 84.7378 124.158 84.8754 123.771 85.1447C123.387 85.4103 123.093 85.7544 122.89 86.1771C122.686 86.5998 122.587 87.0517 122.592 87.5327L122.6 88.3054C122.607 88.9644 122.727 89.5219 122.959 89.9777C123.195 90.4297 123.519 90.7728 123.931 91.007C124.343 91.2374 124.819 91.3496 125.361 91.3437C125.713 91.3399 126.031 91.2872 126.314 91.1856C126.6 91.0802 126.847 90.926 127.053 90.723C127.259 90.5162 127.417 90.2607 127.528 89.9564L128.827 90.306C128.695 90.7468 128.47 91.1357 128.152 91.4725C127.834 91.8055 127.439 92.0674 126.967 92.2581C126.496 92.4451 125.965 92.5418 125.374 92.5482ZM131.025 92.3049L130.93 83.5782L132.225 83.5641L132.24 84.8822L132.331 84.8812C132.485 84.4477 132.769 84.0942 133.183 83.8207C133.597 83.5473 134.065 83.4077 134.587 83.402C134.686 83.4009 134.809 83.4015 134.957 83.4037C135.105 83.4059 135.216 83.4103 135.292 83.4171L135.307 84.7806C135.261 84.7698 135.157 84.7539 134.994 84.7329C134.835 84.7081 134.666 84.6967 134.488 84.6986C134.064 84.7032 133.686 84.7964 133.355 84.978C133.027 85.1558 132.768 85.4011 132.578 85.7138C132.392 86.0226 132.301 86.374 132.306 86.7679L132.366 92.2903L131.025 92.3049ZM136.978 92.2402L136.883 83.5134L138.224 83.4988L138.319 92.2256L136.978 92.2402ZM137.549 82.0515C137.287 82.0544 137.061 81.9678 136.87 81.7919C136.682 81.6159 136.587 81.4029 136.584 81.1529C136.582 80.9029 136.672 80.6879 136.856 80.5079C137.043 80.3278 137.268 80.2363 137.529 80.2335C137.79 80.2306 138.015 80.3172 138.202 80.4932C138.394 80.6692 138.491 80.8821 138.493 81.1321C138.496 81.3821 138.404 81.5971 138.216 81.7772C138.033 81.9573 137.81 82.0487 137.549 82.0515ZM142.058 86.9346L142.115 92.1843L140.774 92.1989L140.68 83.4721L141.975 83.458L141.99 84.8216L142.103 84.8204C142.303 84.375 142.61 84.0156 143.023 83.7421C143.437 83.4649 143.974 83.3227 144.633 83.3155C145.223 83.3091 145.742 83.4247 146.188 83.6622C146.633 83.896 146.982 84.2559 147.233 84.7418C147.485 85.224 147.615 85.8362 147.623 86.5786L147.683 92.1238L146.342 92.1383L146.283 86.6841C146.275 85.9985 146.092 85.4664 145.731 85.0877C145.371 84.7053 144.881 84.5174 144.259 84.5242C143.831 84.5288 143.45 84.6258 143.115 84.815C142.783 85.0043 142.523 85.2779 142.334 85.6361C142.145 85.9942 142.053 86.4271 142.058 86.9346ZM153.693 95.5131C153.046 95.5202 152.488 95.4429 152.02 95.2813C151.553 95.1235 151.162 94.9118 150.849 94.6463C150.539 94.3845 150.291 94.1031 150.106 93.802L151.166 93.0405C151.289 93.1982 151.445 93.3784 151.632 93.5809C151.82 93.7872 152.076 93.9643 152.4 94.1124C152.727 94.2641 153.154 94.3371 153.68 94.3314C154.385 94.3237 154.965 94.147 155.419 93.8011C155.874 93.4552 156.097 92.9187 156.089 92.1914L156.07 90.4188L155.956 90.42C155.86 90.5802 155.722 90.7787 155.542 91.0155C155.367 91.2485 155.111 91.4577 154.776 91.6432C154.445 91.8248 153.995 91.9187 153.427 91.9249C152.723 91.9326 152.088 91.7728 151.524 91.4456C150.964 91.1183 150.517 90.6383 150.184 90.0055C149.855 89.3727 149.686 88.6018 149.676 87.6927C149.667 86.7988 149.815 86.0188 150.122 85.3525C150.43 84.6825 150.861 84.1626 151.418 83.7929C151.975 83.4194 152.62 83.2286 153.355 83.2206C153.923 83.2145 154.375 83.3042 154.71 83.49C155.049 83.6719 155.309 83.8812 155.49 84.1179C155.674 84.3508 155.817 84.5424 155.917 84.6929L156.053 84.6914L156.038 83.3051L157.333 83.291L157.431 92.2678C157.439 93.0177 157.275 93.6294 156.94 94.1028C156.608 94.5799 156.157 94.9314 155.587 95.1573C155.022 95.3869 154.39 95.5056 153.693 95.5131ZM153.596 90.7185C154.134 90.7126 154.587 90.5846 154.955 90.3343C155.324 90.0841 155.602 89.7269 155.79 89.2627C155.978 88.7985 156.069 88.2445 156.062 87.6006C156.055 86.9718 155.954 86.4179 155.76 85.939C155.565 85.46 155.281 85.0862 154.907 84.8175C154.532 84.5488 154.073 84.4174 153.527 84.4234C152.959 84.4296 152.487 84.5786 152.112 84.8706C151.74 85.1626 151.462 85.552 151.278 86.0388C151.097 86.5257 151.01 87.0645 151.017 87.6554C151.023 88.2614 151.124 88.7964 151.318 89.2602C151.517 89.7202 151.805 90.0807 152.182 90.3418C152.564 90.599 153.035 90.7246 153.596 90.7185Z" fill="#193123"/>
</svg>
