<svg width="180" height="173" viewBox="0 0 180 173" fill="none" xmlns="http://www.w3.org/2000/svg">
<path d="M164.088 141.887C163.119 142.907 162.111 143.84 161.076 144.718C158.571 147.696 156.164 151.011 154.453 154.153C151.238 160.052 140.116 165.972 134.973 167.996C128.386 170.588 120.75 172.12 113.88 172.255C109.624 172.338 105.614 171.058 101.675 169.33C95.9379 166.813 90.3521 163.345 84.3778 161.755C71.3094 158.278 58.5522 153.936 45.3867 151.365C35.3823 149.411 24.9569 145.038 16.8408 136.462C2.85793 121.688 0.28911 95.5335 1.83364 73.2947C2.7596 59.9621 6.46813 39.5982 14.568 31.5838C20.9427 25.2764 24.2201 17.6701 32.4561 14.9259C38.2851 12.9837 42.9351 11.6438 49.0677 11.5237C69.8981 11.1159 90.4309 14.1006 111.229 14.4605C123.995 14.6815 136.672 17.3166 148.505 24.1153C153.251 26.8419 157.76 30.0479 162.447 32.8424C166.446 35.2272 169.258 42.3819 172.851 45.8694C181.614 54.3757 178.751 83.8335 178.994 96.2107C179.349 114.333 174.29 131.143 164.088 141.887Z" fill="#D9D9D9"/>
<path d="M37.8182 61.3636V73H36.4091V61.3636H37.8182ZM41.8026 67.75V73H40.4616V64.2727H41.7571V65.6364H41.8707C42.0753 65.1932 42.3859 64.8371 42.8026 64.5682C43.2192 64.2955 43.7571 64.1591 44.4162 64.1591C45.0071 64.1591 45.5241 64.2803 45.9673 64.5227C46.4105 64.7614 46.7552 65.125 47.0014 65.6136C47.2476 66.0985 47.3707 66.7121 47.3707 67.4545V73H46.0298V67.5455C46.0298 66.8598 45.8518 66.3258 45.4957 65.9432C45.1397 65.5568 44.651 65.3636 44.0298 65.3636C43.6018 65.3636 43.2192 65.4564 42.8821 65.642C42.5488 65.8277 42.2855 66.0985 42.0923 66.4545C41.8991 66.8106 41.8026 67.2424 41.8026 67.75ZM53.7074 64.2727V65.4091H49.0028V64.2727H53.7074ZM50.4119 73V63.0682C50.4119 62.5682 50.5294 62.1515 50.7642 61.8182C50.9991 61.4848 51.304 61.2348 51.679 61.0682C52.054 60.9015 52.4498 60.8182 52.8665 60.8182C53.196 60.8182 53.465 60.8447 53.6733 60.8977C53.8816 60.9508 54.0369 61 54.1392 61.0455L53.7528 62.2045C53.6847 62.1818 53.59 62.1534 53.4688 62.1193C53.3513 62.0852 53.196 62.0682 53.0028 62.0682C52.5597 62.0682 52.2396 62.1799 52.0426 62.4034C51.8494 62.6269 51.7528 62.9545 51.7528 63.3864V73H50.4119ZM58.7727 73.1818C57.9848 73.1818 57.2936 72.9943 56.6989 72.6193C56.108 72.2443 55.6458 71.7197 55.3125 71.0455C54.983 70.3712 54.8182 69.5833 54.8182 68.6818C54.8182 67.7727 54.983 66.9792 55.3125 66.3011C55.6458 65.6231 56.108 65.0966 56.6989 64.7216C57.2936 64.3466 57.9848 64.1591 58.7727 64.1591C59.5606 64.1591 60.25 64.3466 60.8409 64.7216C61.4356 65.0966 61.8977 65.6231 62.2273 66.3011C62.5606 66.9792 62.7273 67.7727 62.7273 68.6818C62.7273 69.5833 62.5606 70.3712 62.2273 71.0455C61.8977 71.7197 61.4356 72.2443 60.8409 72.6193C60.25 72.9943 59.5606 73.1818 58.7727 73.1818ZM58.7727 71.9773C59.3712 71.9773 59.8636 71.8239 60.25 71.517C60.6364 71.2102 60.9223 70.8068 61.108 70.3068C61.2936 69.8068 61.3864 69.2652 61.3864 68.6818C61.3864 68.0985 61.2936 67.5549 61.108 67.0511C60.9223 66.5473 60.6364 66.1402 60.25 65.8295C59.8636 65.5189 59.3712 65.3636 58.7727 65.3636C58.1742 65.3636 57.6818 65.5189 57.2955 65.8295C56.9091 66.1402 56.6231 66.5473 56.4375 67.0511C56.2519 67.5549 56.1591 68.0985 56.1591 68.6818C56.1591 69.2652 56.2519 69.8068 56.4375 70.3068C56.6231 70.8068 56.9091 71.2102 57.2955 71.517C57.6818 71.8239 58.1742 71.9773 58.7727 71.9773ZM57.1364 62.8182C56.8977 62.8182 56.6856 62.7273 56.5 62.5455C56.3182 62.3598 56.2273 62.1477 56.2273 61.9091C56.2273 61.6477 56.3182 61.4318 56.5 61.2614C56.6856 61.0871 56.8977 61 57.1364 61C57.3977 61 57.6136 61.0871 57.7841 61.2614C57.9583 61.4318 58.0455 61.6477 58.0455 61.9091C58.0455 62.1477 57.9583 62.3598 57.7841 62.5455C57.6136 62.7273 57.3977 62.8182 57.1364 62.8182ZM60.4091 62.8182C60.1705 62.8182 59.9583 62.7273 59.7727 62.5455C59.5909 62.3598 59.5 62.1477 59.5 61.9091C59.5 61.6477 59.5909 61.4318 59.7727 61.2614C59.9583 61.0871 60.1705 61 60.4091 61C60.6705 61 60.8864 61.0871 61.0568 61.2614C61.2311 61.4318 61.3182 61.6477 61.3182 61.9091C61.3182 62.1477 61.2311 62.3598 61.0568 62.5455C60.8864 62.7273 60.6705 62.8182 60.4091 62.8182ZM64.7741 73V64.2727H66.0696V65.5909H66.1605C66.3196 65.1591 66.6075 64.8087 67.0241 64.5398C67.4408 64.2708 67.9105 64.1364 68.4332 64.1364C68.5317 64.1364 68.6548 64.1383 68.8026 64.142C68.9503 64.1458 69.062 64.1515 69.1378 64.1591V65.5227C69.0923 65.5114 68.9882 65.4943 68.8253 65.4716C68.6662 65.4451 68.4976 65.4318 68.3196 65.4318C67.8954 65.4318 67.5166 65.5208 67.1832 65.6989C66.8537 65.8731 66.5923 66.1155 66.3991 66.4261C66.2098 66.733 66.1151 67.0833 66.1151 67.4773V73H64.7741ZM76.9091 66.2273L75.7045 66.5682C75.6288 66.3674 75.517 66.1723 75.3693 65.983C75.2254 65.7898 75.0284 65.6307 74.7784 65.5057C74.5284 65.3807 74.2083 65.3182 73.8182 65.3182C73.2841 65.3182 72.839 65.4413 72.483 65.6875C72.1307 65.9299 71.9545 66.2386 71.9545 66.6136C71.9545 66.947 72.0758 67.2102 72.3182 67.4034C72.5606 67.5966 72.9394 67.7576 73.4545 67.8864L74.75 68.2045C75.5303 68.3939 76.1117 68.6837 76.4943 69.0739C76.8769 69.4602 77.0682 69.9583 77.0682 70.5682C77.0682 71.0682 76.9242 71.5152 76.6364 71.9091C76.3523 72.303 75.9545 72.6136 75.4432 72.8409C74.9318 73.0682 74.3371 73.1818 73.6591 73.1818C72.7689 73.1818 72.0322 72.9886 71.4489 72.6023C70.8655 72.2159 70.4962 71.6515 70.3409 70.9091L71.6136 70.5909C71.7348 71.0606 71.964 71.4129 72.3011 71.6477C72.642 71.8826 73.0871 72 73.6364 72C74.2614 72 74.7576 71.8674 75.125 71.6023C75.4962 71.3333 75.6818 71.0114 75.6818 70.6364C75.6818 70.3333 75.5758 70.0795 75.3636 69.875C75.1515 69.6667 74.8258 69.5114 74.3864 69.4091L72.9318 69.0682C72.1326 68.8788 71.5455 68.5852 71.1705 68.1875C70.7992 67.786 70.6136 67.2841 70.6136 66.6818C70.6136 66.1894 70.7519 65.7538 71.0284 65.375C71.3087 64.9962 71.6894 64.6989 72.1705 64.483C72.6553 64.267 73.2045 64.1591 73.8182 64.1591C74.6818 64.1591 75.3598 64.3485 75.8523 64.7273C76.3485 65.1061 76.7008 65.6061 76.9091 66.2273ZM82.7457 73.1818C81.9048 73.1818 81.1795 72.9962 80.5696 72.625C79.9635 72.25 79.4957 71.7273 79.1662 71.0568C78.8404 70.3826 78.6776 69.5985 78.6776 68.7045C78.6776 67.8106 78.8404 67.0227 79.1662 66.3409C79.4957 65.6553 79.9541 65.1212 80.5412 64.7386C81.1321 64.3523 81.8215 64.1591 82.6094 64.1591C83.0639 64.1591 83.5128 64.2348 83.956 64.3864C84.3991 64.5379 84.8026 64.7841 85.1662 65.125C85.5298 65.4621 85.8196 65.9091 86.0355 66.4659C86.2514 67.0227 86.3594 67.7083 86.3594 68.5227V69.0909H79.6321V67.9318H84.9957C84.9957 67.4394 84.8973 67 84.7003 66.6136C84.5071 66.2273 84.2306 65.9223 83.8707 65.6989C83.5147 65.4754 83.0942 65.3636 82.6094 65.3636C82.0753 65.3636 81.6132 65.4962 81.223 65.7614C80.8366 66.0227 80.5393 66.3636 80.331 66.7841C80.1226 67.2045 80.0185 67.6553 80.0185 68.1364V68.9091C80.0185 69.5682 80.1321 70.1269 80.3594 70.5852C80.5904 71.0398 80.9105 71.3864 81.3196 71.625C81.7287 71.8598 82.2041 71.9773 82.7457 71.9773C83.098 71.9773 83.4162 71.928 83.7003 71.8295C83.9882 71.7273 84.2363 71.5758 84.4446 71.375C84.6529 71.1705 84.8139 70.9167 84.9276 70.6136L86.223 70.9773C86.0866 71.4167 85.8575 71.803 85.5355 72.1364C85.2135 72.4659 84.8158 72.7235 84.3423 72.9091C83.8688 73.0909 83.3366 73.1818 82.7457 73.1818ZM89.7401 61.3636V73H88.3991V61.3636H89.7401ZM99.2642 73.2045C98.7112 73.2045 98.2093 73.1004 97.7585 72.892C97.3078 72.6799 96.9498 72.375 96.6847 71.9773C96.4195 71.5758 96.2869 71.0909 96.2869 70.5227C96.2869 70.0227 96.3854 69.6174 96.5824 69.3068C96.7794 68.9924 97.0426 68.7462 97.3722 68.5682C97.7017 68.3902 98.0653 68.2576 98.4631 68.1705C98.8646 68.0795 99.268 68.0076 99.6733 67.9545C100.204 67.8864 100.634 67.8352 100.963 67.8011C101.296 67.7633 101.539 67.7008 101.69 67.6136C101.846 67.5265 101.923 67.375 101.923 67.1591V67.1136C101.923 66.553 101.77 66.1174 101.463 65.8068C101.16 65.4962 100.7 65.3409 100.082 65.3409C99.4422 65.3409 98.9403 65.4811 98.5767 65.7614C98.2131 66.0417 97.9574 66.3409 97.8097 66.6591L96.5369 66.2045C96.7642 65.6742 97.0672 65.2614 97.446 64.9659C97.8286 64.6667 98.2453 64.4583 98.696 64.3409C99.1506 64.2197 99.5975 64.1591 100.037 64.1591C100.317 64.1591 100.639 64.1932 101.003 64.2614C101.37 64.3258 101.724 64.4602 102.065 64.6648C102.41 64.8693 102.696 65.178 102.923 65.5909C103.151 66.0038 103.264 66.5568 103.264 67.25V73H101.923V71.8182H101.855C101.764 72.0076 101.613 72.2102 101.401 72.4261C101.188 72.642 100.906 72.8258 100.554 72.9773C100.202 73.1288 99.7718 73.2045 99.2642 73.2045ZM99.4688 72C99.9991 72 100.446 71.8958 100.81 71.6875C101.177 71.4792 101.454 71.2102 101.639 70.8807C101.829 70.5511 101.923 70.2045 101.923 69.8409V68.6136C101.866 68.6818 101.741 68.7443 101.548 68.8011C101.359 68.8542 101.139 68.9015 100.889 68.9432C100.643 68.9811 100.402 69.0152 100.168 69.0455C99.9366 69.072 99.7491 69.0947 99.6051 69.1136C99.2566 69.1591 98.9309 69.233 98.6278 69.3352C98.3286 69.4337 98.0862 69.5833 97.9006 69.7841C97.7188 69.9811 97.6278 70.25 97.6278 70.5909C97.6278 71.0568 97.8002 71.4091 98.1449 71.6477C98.4934 71.8826 98.9347 72 99.4688 72ZM112.536 64.2727L109.308 73H107.945L104.717 64.2727H106.172L108.581 71.2273H108.672L111.081 64.2727H112.536ZM40.1136 83.2727V84.4091H35.4091V83.2727H40.1136ZM36.8182 92V82.0682C36.8182 81.5682 36.9356 81.1515 37.1705 80.8182C37.4053 80.4848 37.7102 80.2348 38.0852 80.0682C38.4602 79.9015 38.8561 79.8182 39.2727 79.8182C39.6023 79.8182 39.8712 79.8447 40.0795 79.8977C40.2879 79.9508 40.4432 80 40.5455 80.0455L40.1591 81.2045C40.0909 81.1818 39.9962 81.1534 39.875 81.1193C39.7576 81.0852 39.6023 81.0682 39.4091 81.0682C38.9659 81.0682 38.6458 81.1799 38.4489 81.4034C38.2557 81.6269 38.1591 81.9545 38.1591 82.3864V92H36.8182ZM41.9929 92V83.2727H43.2884V84.5909H43.3793C43.5384 84.1591 43.8262 83.8087 44.2429 83.5398C44.6596 83.2708 45.1293 83.1364 45.652 83.1364C45.7505 83.1364 45.8736 83.1383 46.0213 83.142C46.169 83.1458 46.2808 83.1515 46.3565 83.1591V84.5227C46.3111 84.5114 46.2069 84.4943 46.044 84.4716C45.8849 84.4451 45.7164 84.4318 45.5384 84.4318C45.1141 84.4318 44.7353 84.5208 44.402 84.6989C44.0724 84.8731 43.8111 85.1155 43.6179 85.4261C43.4285 85.733 43.3338 86.0833 43.3338 86.4773V92H41.9929ZM50.5142 92.2045C49.9612 92.2045 49.4593 92.1004 49.0085 91.892C48.5578 91.6799 48.1998 91.375 47.9347 90.9773C47.6695 90.5758 47.5369 90.0909 47.5369 89.5227C47.5369 89.0227 47.6354 88.6174 47.8324 88.3068C48.0294 87.9924 48.2926 87.7462 48.6222 87.5682C48.9517 87.3902 49.3153 87.2576 49.7131 87.1705C50.1146 87.0795 50.518 87.0076 50.9233 86.9545C51.4536 86.8864 51.8835 86.8352 52.2131 86.8011C52.5464 86.7633 52.7888 86.7008 52.9403 86.6136C53.0956 86.5265 53.1733 86.375 53.1733 86.1591V86.1136C53.1733 85.553 53.0199 85.1174 52.7131 84.8068C52.41 84.4962 51.9498 84.3409 51.3324 84.3409C50.6922 84.3409 50.1903 84.4811 49.8267 84.7614C49.4631 85.0417 49.2074 85.3409 49.0597 85.6591L47.7869 85.2045C48.0142 84.6742 48.3172 84.2614 48.696 83.9659C49.0786 83.6667 49.4953 83.4583 49.946 83.3409C50.4006 83.2197 50.8475 83.1591 51.2869 83.1591C51.5672 83.1591 51.8892 83.1932 52.2528 83.2614C52.6203 83.3258 52.9744 83.4602 53.3153 83.6648C53.66 83.8693 53.946 84.178 54.1733 84.5909C54.4006 85.0038 54.5142 85.5568 54.5142 86.25V92H53.1733V90.8182H53.1051C53.0142 91.0076 52.8627 91.2102 52.6506 91.4261C52.4384 91.642 52.1563 91.8258 51.804 91.9773C51.4517 92.1288 51.0218 92.2045 50.5142 92.2045ZM50.7188 91C51.2491 91 51.696 90.8958 52.0597 90.6875C52.4271 90.4792 52.7036 90.2102 52.8892 89.8807C53.0786 89.5511 53.1733 89.2045 53.1733 88.8409V87.6136C53.1165 87.6818 52.9915 87.7443 52.7983 87.8011C52.6089 87.8542 52.3892 87.9015 52.1392 87.9432C51.893 87.9811 51.6525 88.0152 51.4176 88.0455C51.1866 88.072 50.9991 88.0947 50.8551 88.1136C50.5066 88.1591 50.1809 88.233 49.8778 88.3352C49.5786 88.4337 49.3362 88.5833 49.1506 88.7841C48.9688 88.9811 48.8778 89.25 48.8778 89.5909C48.8778 90.0568 49.0502 90.4091 49.3949 90.6477C49.7434 90.8826 50.1847 91 50.7188 91ZM49.7415 81.8182C49.5028 81.8182 49.2907 81.7273 49.1051 81.5455C48.9233 81.3598 48.8324 81.1477 48.8324 80.9091C48.8324 80.6477 48.9233 80.4318 49.1051 80.2614C49.2907 80.0871 49.5028 80 49.7415 80C50.0028 80 50.2188 80.0871 50.3892 80.2614C50.5634 80.4318 50.6506 80.6477 50.6506 80.9091C50.6506 81.1477 50.5634 81.3598 50.3892 81.5455C50.2188 81.7273 50.0028 81.8182 49.7415 81.8182ZM53.0142 81.8182C52.7756 81.8182 52.5634 81.7273 52.3778 81.5455C52.196 81.3598 52.1051 81.1477 52.1051 80.9091C52.1051 80.6477 52.196 80.4318 52.3778 80.2614C52.5634 80.0871 52.7756 80 53.0142 80C53.2756 80 53.4915 80.0871 53.6619 80.2614C53.8362 80.4318 53.9233 80.6477 53.9233 80.9091C53.9233 81.1477 53.8362 81.3598 53.6619 81.5455C53.4915 81.7273 53.2756 81.8182 53.0142 81.8182ZM56.9616 92V83.2727H58.2571V84.6364H58.3707C58.5526 84.1705 58.8461 83.8087 59.2514 83.5511C59.6567 83.2898 60.1435 83.1591 60.7116 83.1591C61.2874 83.1591 61.7666 83.2898 62.1491 83.5511C62.5355 83.8087 62.8366 84.1705 63.0526 84.6364H63.1435C63.367 84.1856 63.7022 83.8277 64.1491 83.5625C64.5961 83.2936 65.1321 83.1591 65.7571 83.1591C66.5374 83.1591 67.1757 83.4034 67.6719 83.892C68.1681 84.3769 68.4162 85.1326 68.4162 86.1591V92H67.0753V86.1591C67.0753 85.5152 66.8991 85.0549 66.5469 84.7784C66.1946 84.5019 65.7798 84.3636 65.3026 84.3636C64.6889 84.3636 64.2135 84.5492 63.8764 84.9205C63.5393 85.2879 63.3707 85.7538 63.3707 86.3182V92H62.0071V86.0227C62.0071 85.5265 61.8461 85.1269 61.5241 84.8239C61.2022 84.517 60.7874 84.3636 60.2798 84.3636C59.9313 84.3636 59.6056 84.4564 59.3026 84.642C59.0033 84.8277 58.7609 85.0852 58.5753 85.4148C58.3935 85.7405 58.3026 86.1174 58.3026 86.5455V92H56.9616ZM70.8679 92V83.2727H72.1634V84.6364H72.277C72.4588 84.1705 72.7524 83.8087 73.1577 83.5511C73.563 83.2898 74.0497 83.1591 74.6179 83.1591C75.1937 83.1591 75.6728 83.2898 76.0554 83.5511C76.4418 83.8087 76.7429 84.1705 76.9588 84.6364H77.0497C77.2732 84.1856 77.6084 83.8277 78.0554 83.5625C78.5024 83.2936 79.0384 83.1591 79.6634 83.1591C80.4437 83.1591 81.0819 83.4034 81.5781 83.892C82.0743 84.3769 82.3224 85.1326 82.3224 86.1591V92H80.9815V86.1591C80.9815 85.5152 80.8054 85.0549 80.4531 84.7784C80.1009 84.5019 79.6861 84.3636 79.2088 84.3636C78.5952 84.3636 78.1198 84.5492 77.7827 84.9205C77.4455 85.2879 77.277 85.7538 77.277 86.3182V92H75.9134V86.0227C75.9134 85.5265 75.7524 85.1269 75.4304 84.8239C75.1084 84.517 74.6937 84.3636 74.1861 84.3636C73.8376 84.3636 73.5118 84.4564 73.2088 84.642C72.9096 84.8277 72.6671 85.0852 72.4815 85.4148C72.2997 85.7405 72.2088 86.1174 72.2088 86.5455V92H70.8679ZM87.3423 92.2045C86.7893 92.2045 86.2874 92.1004 85.8366 91.892C85.3859 91.6799 85.0279 91.375 84.7628 90.9773C84.4976 90.5758 84.3651 90.0909 84.3651 89.5227C84.3651 89.0227 84.4635 88.6174 84.6605 88.3068C84.8575 87.9924 85.1207 87.7462 85.4503 87.5682C85.7798 87.3902 86.1435 87.2576 86.5412 87.1705C86.9427 87.0795 87.3461 87.0076 87.7514 86.9545C88.2817 86.8864 88.7116 86.8352 89.0412 86.8011C89.3745 86.7633 89.617 86.7008 89.7685 86.6136C89.9238 86.5265 90.0014 86.375 90.0014 86.1591V86.1136C90.0014 85.553 89.848 85.1174 89.5412 84.8068C89.2382 84.4962 88.7779 84.3409 88.1605 84.3409C87.5204 84.3409 87.0185 84.4811 86.6548 84.7614C86.2912 85.0417 86.0355 85.3409 85.8878 85.6591L84.6151 85.2045C84.8423 84.6742 85.1454 84.2614 85.5241 83.9659C85.9067 83.6667 86.3234 83.4583 86.7741 83.3409C87.2287 83.2197 87.6757 83.1591 88.1151 83.1591C88.3954 83.1591 88.7173 83.1932 89.081 83.2614C89.4484 83.3258 89.8026 83.4602 90.1435 83.6648C90.4882 83.8693 90.7741 84.178 91.0014 84.5909C91.2287 85.0038 91.3423 85.5568 91.3423 86.25V92H90.0014V90.8182H89.9332C89.8423 91.0076 89.6908 91.2102 89.4787 91.4261C89.2666 91.642 88.9844 91.8258 88.6321 91.9773C88.2798 92.1288 87.8499 92.2045 87.3423 92.2045ZM87.5469 91C88.0772 91 88.5241 90.8958 88.8878 90.6875C89.2552 90.4792 89.5317 90.2102 89.7173 89.8807C89.9067 89.5511 90.0014 89.2045 90.0014 88.8409V87.6136C89.9446 87.6818 89.8196 87.7443 89.6264 87.8011C89.437 87.8542 89.2173 87.9015 88.9673 87.9432C88.7211 87.9811 88.4806 88.0152 88.2457 88.0455C88.0147 88.072 87.8272 88.0947 87.6832 88.1136C87.3348 88.1591 87.009 88.233 86.706 88.3352C86.4067 88.4337 86.1643 88.5833 85.9787 88.7841C85.7969 88.9811 85.706 89.25 85.706 89.5909C85.706 90.0568 85.8783 90.4091 86.223 90.6477C86.5715 90.8826 87.0128 91 87.5469 91ZM95.1307 86.75V92H93.7898V83.2727H95.0852V84.6364H95.1989C95.4034 84.1932 95.714 83.8371 96.1307 83.5682C96.5473 83.2955 97.0852 83.1591 97.7443 83.1591C98.3352 83.1591 98.8523 83.2803 99.2955 83.5227C99.7386 83.7614 100.083 84.125 100.33 84.6136C100.576 85.0985 100.699 85.7121 100.699 86.4545V92H99.358V86.5455C99.358 85.8598 99.1799 85.3258 98.8239 84.9432C98.4678 84.5568 97.9792 84.3636 97.358 84.3636C96.9299 84.3636 96.5473 84.4564 96.2102 84.642C95.8769 84.8277 95.6136 85.0985 95.4205 85.4545C95.2273 85.8106 95.1307 86.2424 95.1307 86.75ZM106.445 92.1818C105.717 92.1818 105.075 91.9981 104.518 91.6307C103.962 91.2595 103.526 90.7367 103.212 90.0625C102.897 89.3845 102.74 88.5833 102.74 87.6591C102.74 86.7424 102.897 85.947 103.212 85.2727C103.526 84.5985 103.964 84.0777 104.524 83.7102C105.085 83.3428 105.732 83.1591 106.467 83.1591C107.036 83.1591 107.484 83.2538 107.814 83.4432C108.147 83.6288 108.401 83.8409 108.575 84.0795C108.753 84.3144 108.892 84.5076 108.99 84.6591H109.104V80.3636H110.445V92H109.149V90.6591H108.99C108.892 90.8182 108.751 91.0189 108.57 91.2614C108.388 91.5 108.128 91.714 107.791 91.9034C107.454 92.089 107.005 92.1818 106.445 92.1818ZM106.626 90.9773C107.164 90.9773 107.619 90.8371 107.99 90.5568C108.361 90.2727 108.643 89.8807 108.837 89.3807C109.03 88.8769 109.126 88.2955 109.126 87.6364C109.126 86.9848 109.032 86.4148 108.842 85.9261C108.653 85.4337 108.373 85.0511 108.001 84.7784C107.63 84.5019 107.172 84.3636 106.626 84.3636C106.058 84.3636 105.585 84.5095 105.206 84.8011C104.831 85.089 104.549 85.4811 104.359 85.9773C104.174 86.4697 104.081 87.0227 104.081 87.6364C104.081 88.2576 104.176 88.822 104.365 89.3295C104.558 89.8333 104.842 90.2348 105.217 90.5341C105.596 90.8295 106.066 90.9773 106.626 90.9773ZM116.746 92.1818C115.905 92.1818 115.179 91.9962 114.57 91.625C113.964 91.25 113.496 90.7273 113.166 90.0568C112.84 89.3826 112.678 88.5985 112.678 87.7045C112.678 86.8106 112.84 86.0227 113.166 85.3409C113.496 84.6553 113.954 84.1212 114.541 83.7386C115.132 83.3523 115.821 83.1591 116.609 83.1591C117.064 83.1591 117.513 83.2348 117.956 83.3864C118.399 83.5379 118.803 83.7841 119.166 84.125C119.53 84.4621 119.82 84.9091 120.036 85.4659C120.251 86.0227 120.359 86.7083 120.359 87.5227V88.0909H113.632V86.9318H118.996C118.996 86.4394 118.897 86 118.7 85.6136C118.507 85.2273 118.231 84.9223 117.871 84.6989C117.515 84.4754 117.094 84.3636 116.609 84.3636C116.075 84.3636 115.613 84.4962 115.223 84.7614C114.837 85.0227 114.539 85.3636 114.331 85.7841C114.123 86.2045 114.018 86.6553 114.018 87.1364V87.9091C114.018 88.5682 114.132 89.1269 114.359 89.5852C114.59 90.0398 114.911 90.3864 115.32 90.625C115.729 90.8598 116.204 90.9773 116.746 90.9773C117.098 90.9773 117.416 90.928 117.7 90.8295C117.988 90.7273 118.236 90.5758 118.445 90.375C118.653 90.1705 118.814 89.9167 118.928 89.6136L120.223 89.9773C120.087 90.4167 119.857 90.803 119.536 91.1364C119.214 91.4659 118.816 91.7235 118.342 91.9091C117.869 92.0909 117.337 92.1818 116.746 92.1818ZM129.467 92.2045C128.914 92.2045 128.412 92.1004 127.962 91.892C127.511 91.6799 127.153 91.375 126.888 90.9773C126.623 90.5758 126.49 90.0909 126.49 89.5227C126.49 89.0227 126.589 88.6174 126.786 88.3068C126.982 87.9924 127.246 87.7462 127.575 87.5682C127.905 87.3902 128.268 87.2576 128.666 87.1705C129.068 87.0795 129.471 87.0076 129.876 86.9545C130.407 86.8864 130.837 86.8352 131.166 86.8011C131.5 86.7633 131.742 86.7008 131.893 86.6136C132.049 86.5265 132.126 86.375 132.126 86.1591V86.1136C132.126 85.553 131.973 85.1174 131.666 84.8068C131.363 84.4962 130.903 84.3409 130.286 84.3409C129.645 84.3409 129.143 84.4811 128.78 84.7614C128.416 85.0417 128.161 85.3409 128.013 85.6591L126.74 85.2045C126.967 84.6742 127.27 84.2614 127.649 83.9659C128.032 83.6667 128.448 83.4583 128.899 83.3409C129.354 83.2197 129.801 83.1591 130.24 83.1591C130.52 83.1591 130.842 83.1932 131.206 83.2614C131.573 83.3258 131.928 83.4602 132.268 83.6648C132.613 83.8693 132.899 84.178 133.126 84.5909C133.354 85.0038 133.467 85.5568 133.467 86.25V92H132.126V90.8182H132.058C131.967 91.0076 131.816 91.2102 131.604 91.4261C131.392 91.642 131.109 91.8258 130.757 91.9773C130.405 92.1288 129.975 92.2045 129.467 92.2045ZM129.672 91C130.202 91 130.649 90.8958 131.013 90.6875C131.38 90.4792 131.657 90.2102 131.842 89.8807C132.032 89.5511 132.126 89.2045 132.126 88.8409V87.6136C132.07 87.6818 131.945 87.7443 131.751 87.8011C131.562 87.8542 131.342 87.9015 131.092 87.9432C130.846 87.9811 130.606 88.0152 130.371 88.0455C130.14 88.072 129.952 88.0947 129.808 88.1136C129.46 88.1591 129.134 88.233 128.831 88.3352C128.532 88.4337 128.289 88.5833 128.104 88.7841C127.922 88.9811 127.831 89.25 127.831 89.5909C127.831 90.0568 128.003 90.4091 128.348 90.6477C128.696 90.8826 129.138 91 129.672 91ZM135.915 92V83.2727H137.21V84.5909H137.301C137.46 84.1591 137.748 83.8087 138.165 83.5398C138.581 83.2708 139.051 83.1364 139.574 83.1364C139.672 83.1364 139.795 83.1383 139.943 83.142C140.091 83.1458 140.203 83.1515 140.278 83.1591V84.5227C140.233 84.5114 140.129 84.4943 139.966 84.4716C139.807 84.4451 139.638 84.4318 139.46 84.4318C139.036 84.4318 138.657 84.5208 138.324 84.6989C137.994 84.8731 137.733 85.1155 137.54 85.4261C137.35 85.733 137.256 86.0833 137.256 86.4773V92H135.915ZM146.21 83.2727V84.4091H141.688V83.2727H146.21ZM143.006 81.1818H144.347V89.5C144.347 89.8788 144.402 90.1629 144.511 90.3523C144.625 90.5379 144.769 90.6629 144.943 90.7273C145.121 90.7879 145.309 90.8182 145.506 90.8182C145.653 90.8182 145.775 90.8106 145.869 90.7955C145.964 90.7765 146.04 90.7614 146.097 90.75L146.369 91.9545C146.278 91.9886 146.152 92.0227 145.989 92.0568C145.826 92.0947 145.619 92.1136 145.369 92.1136C144.991 92.1136 144.619 92.0322 144.256 91.8693C143.896 91.7064 143.597 91.4583 143.358 91.125C143.123 90.7917 143.006 90.3712 143.006 89.8636V81.1818ZM151.793 92.1818C150.952 92.1818 150.226 91.9962 149.616 91.625C149.01 91.25 148.543 90.7273 148.213 90.0568C147.887 89.3826 147.724 88.5985 147.724 87.7045C147.724 86.8106 147.887 86.0227 148.213 85.3409C148.543 84.6553 149.001 84.1212 149.588 83.7386C150.179 83.3523 150.868 83.1591 151.656 83.1591C152.111 83.1591 152.56 83.2348 153.003 83.3864C153.446 83.5379 153.849 83.7841 154.213 84.125C154.577 84.4621 154.866 84.9091 155.082 85.4659C155.298 86.0227 155.406 86.7083 155.406 87.5227V88.0909H148.679V86.9318H154.043C154.043 86.4394 153.944 86 153.747 85.6136C153.554 85.2273 153.277 84.9223 152.918 84.6989C152.562 84.4754 152.141 84.3636 151.656 84.3636C151.122 84.3636 150.66 84.4962 150.27 84.7614C149.884 85.0227 149.586 85.3636 149.378 85.7841C149.17 86.2045 149.065 86.6553 149.065 87.1364V87.9091C149.065 88.5682 149.179 89.1269 149.406 89.5852C149.637 90.0398 149.957 90.3864 150.366 90.625C150.776 90.8598 151.251 90.9773 151.793 90.9773C152.145 90.9773 152.463 90.928 152.747 90.8295C153.035 90.7273 153.283 90.5758 153.491 90.375C153.7 90.1705 153.861 89.9167 153.974 89.6136L155.27 89.9773C155.134 90.4167 154.904 90.803 154.582 91.1364C154.26 91.4659 153.863 91.7235 153.389 91.9091C152.916 92.0909 152.384 92.1818 151.793 92.1818ZM157.446 92V83.2727H158.741V84.5909H158.832C158.991 84.1591 159.279 83.8087 159.696 83.5398C160.113 83.2708 160.582 83.1364 161.105 83.1364C161.204 83.1364 161.327 83.1383 161.474 83.142C161.622 83.1458 161.734 83.1515 161.81 83.1591V84.5227C161.764 84.5114 161.66 84.4943 161.497 84.4716C161.338 84.4451 161.17 84.4318 160.991 84.4318C160.567 84.4318 160.188 84.5208 159.855 84.6989C159.526 84.8731 159.264 85.1155 159.071 85.4261C158.882 85.733 158.787 86.0833 158.787 86.4773V92H157.446ZM39.7727 111.182C38.9848 111.182 38.2936 110.994 37.6989 110.619C37.108 110.244 36.6458 109.72 36.3125 109.045C35.983 108.371 35.8182 107.583 35.8182 106.682C35.8182 105.773 35.983 104.979 36.3125 104.301C36.6458 103.623 37.108 103.097 37.6989 102.722C38.2936 102.347 38.9848 102.159 39.7727 102.159C40.5606 102.159 41.25 102.347 41.8409 102.722C42.4356 103.097 42.8977 103.623 43.2273 104.301C43.5606 104.979 43.7273 105.773 43.7273 106.682C43.7273 107.583 43.5606 108.371 43.2273 109.045C42.8977 109.72 42.4356 110.244 41.8409 110.619C41.25 110.994 40.5606 111.182 39.7727 111.182ZM39.7727 109.977C40.3712 109.977 40.8636 109.824 41.25 109.517C41.6364 109.21 41.9223 108.807 42.108 108.307C42.2936 107.807 42.3864 107.265 42.3864 106.682C42.3864 106.098 42.2936 105.555 42.108 105.051C41.9223 104.547 41.6364 104.14 41.25 103.83C40.8636 103.519 40.3712 103.364 39.7727 103.364C39.1742 103.364 38.6818 103.519 38.2955 103.83C37.9091 104.14 37.6231 104.547 37.4375 105.051C37.2519 105.555 37.1591 106.098 37.1591 106.682C37.1591 107.265 37.2519 107.807 37.4375 108.307C37.6231 108.807 37.9091 109.21 38.2955 109.517C38.6818 109.824 39.1742 109.977 39.7727 109.977ZM49.3196 111.182C48.5014 111.182 47.7969 110.989 47.206 110.602C46.6151 110.216 46.1605 109.684 45.8423 109.006C45.5241 108.328 45.3651 107.553 45.3651 106.682C45.3651 105.795 45.5279 105.013 45.8537 104.335C46.1832 103.653 46.6416 103.121 47.2287 102.739C47.8196 102.352 48.509 102.159 49.2969 102.159C49.9105 102.159 50.4635 102.273 50.956 102.5C51.4484 102.727 51.8518 103.045 52.1662 103.455C52.4806 103.864 52.6757 104.341 52.7514 104.886H51.4105C51.3082 104.489 51.081 104.136 50.7287 103.83C50.3802 103.519 49.9105 103.364 49.3196 103.364C48.7969 103.364 48.3385 103.5 47.9446 103.773C47.5545 104.042 47.2495 104.422 47.0298 104.915C46.8139 105.403 46.706 105.977 46.706 106.636C46.706 107.311 46.812 107.898 47.0241 108.398C47.2401 108.898 47.5431 109.286 47.9332 109.562C48.3272 109.839 48.7893 109.977 49.3196 109.977C49.6681 109.977 49.9844 109.917 50.2685 109.795C50.5526 109.674 50.7931 109.5 50.9901 109.273C51.187 109.045 51.3272 108.773 51.4105 108.455H52.7514C52.6757 108.97 52.4882 109.434 52.1889 109.847C51.8935 110.256 51.5014 110.581 51.0128 110.824C50.5279 111.062 49.9635 111.182 49.3196 111.182ZM56.0526 105.75V111H54.7116V99.3636H56.0526V103.636H56.1662C56.3707 103.186 56.6776 102.828 57.0866 102.562C57.4995 102.294 58.0488 102.159 58.7344 102.159C59.3291 102.159 59.8499 102.278 60.2969 102.517C60.7438 102.752 61.0904 103.114 61.3366 103.602C61.5866 104.087 61.7116 104.705 61.7116 105.455V111H60.3707V105.545C60.3707 104.852 60.1908 104.316 59.831 103.938C59.4749 103.555 58.9806 103.364 58.348 103.364C57.9086 103.364 57.5147 103.456 57.1662 103.642C56.8215 103.828 56.5488 104.098 56.348 104.455C56.151 104.811 56.0526 105.242 56.0526 105.75ZM72.1875 114.455C71.5398 114.455 70.983 114.371 70.517 114.205C70.0511 114.042 69.6629 113.826 69.3523 113.557C69.0455 113.292 68.8011 113.008 68.6193 112.705L69.6875 111.955C69.8087 112.114 69.9621 112.295 70.1477 112.5C70.3333 112.708 70.5871 112.888 70.9091 113.04C71.2348 113.195 71.661 113.273 72.1875 113.273C72.892 113.273 73.4735 113.102 73.9318 112.761C74.3902 112.42 74.6193 111.886 74.6193 111.159V109.386H74.5057C74.4072 109.545 74.267 109.742 74.0852 109.977C73.9072 110.208 73.6496 110.415 73.3125 110.597C72.9792 110.775 72.5284 110.864 71.9602 110.864C71.2557 110.864 70.6231 110.697 70.0625 110.364C69.5057 110.03 69.0644 109.545 68.7386 108.909C68.4167 108.273 68.2557 107.5 68.2557 106.591C68.2557 105.697 68.4129 104.919 68.7273 104.256C69.0417 103.589 69.4792 103.074 70.0398 102.71C70.6004 102.343 71.2481 102.159 71.983 102.159C72.5511 102.159 73.0019 102.254 73.3352 102.443C73.6723 102.629 73.9299 102.841 74.108 103.08C74.2898 103.314 74.4299 103.508 74.5284 103.659H74.6648V102.273H75.9602V111.25C75.9602 112 75.7898 112.61 75.4489 113.08C75.1117 113.553 74.6572 113.9 74.0852 114.119C73.517 114.343 72.8845 114.455 72.1875 114.455ZM72.142 109.659C72.6799 109.659 73.1345 109.536 73.5057 109.29C73.8769 109.044 74.1591 108.689 74.3523 108.227C74.5455 107.765 74.642 107.212 74.642 106.568C74.642 105.939 74.5473 105.384 74.358 104.903C74.1686 104.422 73.8883 104.045 73.517 103.773C73.1458 103.5 72.6875 103.364 72.142 103.364C71.5739 103.364 71.1004 103.508 70.7216 103.795C70.3466 104.083 70.0644 104.47 69.875 104.955C69.6894 105.439 69.5966 105.977 69.5966 106.568C69.5966 107.174 69.6913 107.71 69.8807 108.176C70.0739 108.638 70.358 109.002 70.733 109.267C71.1117 109.528 71.5814 109.659 72.142 109.659ZM82.0739 111.182C81.233 111.182 80.5076 110.996 79.8977 110.625C79.2917 110.25 78.8239 109.727 78.4943 109.057C78.1686 108.383 78.0057 107.598 78.0057 106.705C78.0057 105.811 78.1686 105.023 78.4943 104.341C78.8239 103.655 79.2822 103.121 79.8693 102.739C80.4602 102.352 81.1496 102.159 81.9375 102.159C82.392 102.159 82.8409 102.235 83.2841 102.386C83.7273 102.538 84.1307 102.784 84.4943 103.125C84.858 103.462 85.1477 103.909 85.3636 104.466C85.5795 105.023 85.6875 105.708 85.6875 106.523V107.091H78.9602V105.932H84.3239C84.3239 105.439 84.2254 105 84.0284 104.614C83.8352 104.227 83.5587 103.922 83.1989 103.699C82.8428 103.475 82.4223 103.364 81.9375 103.364C81.4034 103.364 80.9413 103.496 80.5511 103.761C80.1648 104.023 79.8674 104.364 79.6591 104.784C79.4508 105.205 79.3466 105.655 79.3466 106.136V106.909C79.3466 107.568 79.4602 108.127 79.6875 108.585C79.9186 109.04 80.2386 109.386 80.6477 109.625C81.0568 109.86 81.5322 109.977 82.0739 109.977C82.4261 109.977 82.7443 109.928 83.0284 109.83C83.3163 109.727 83.5644 109.576 83.7727 109.375C83.9811 109.17 84.142 108.917 84.2557 108.614L85.5511 108.977C85.4148 109.417 85.1856 109.803 84.8636 110.136C84.5417 110.466 84.1439 110.723 83.6705 110.909C83.197 111.091 82.6648 111.182 82.0739 111.182ZM89.0682 105.75V111H87.7273V102.273H89.0227V103.636H89.1364C89.3409 103.193 89.6515 102.837 90.0682 102.568C90.4848 102.295 91.0227 102.159 91.6818 102.159C92.2727 102.159 92.7898 102.28 93.233 102.523C93.6761 102.761 94.0208 103.125 94.267 103.614C94.5133 104.098 94.6364 104.712 94.6364 105.455V111H93.2955V105.545C93.2955 104.86 93.1174 104.326 92.7614 103.943C92.4053 103.557 91.9167 103.364 91.2955 103.364C90.8674 103.364 90.4848 103.456 90.1477 103.642C89.8144 103.828 89.5511 104.098 89.358 104.455C89.1648 104.811 89.0682 105.242 89.0682 105.75ZM100.632 111.182C99.8442 111.182 99.1529 110.994 98.5582 110.619C97.9673 110.244 97.5052 109.72 97.1719 109.045C96.8423 108.371 96.6776 107.583 96.6776 106.682C96.6776 105.773 96.8423 104.979 97.1719 104.301C97.5052 103.623 97.9673 103.097 98.5582 102.722C99.1529 102.347 99.8442 102.159 100.632 102.159C101.42 102.159 102.109 102.347 102.7 102.722C103.295 103.097 103.757 103.623 104.087 104.301C104.42 104.979 104.587 105.773 104.587 106.682C104.587 107.583 104.42 108.371 104.087 109.045C103.757 109.72 103.295 110.244 102.7 110.619C102.109 110.994 101.42 111.182 100.632 111.182ZM100.632 109.977C101.231 109.977 101.723 109.824 102.109 109.517C102.496 109.21 102.782 108.807 102.967 108.307C103.153 107.807 103.246 107.265 103.246 106.682C103.246 106.098 103.153 105.555 102.967 105.051C102.782 104.547 102.496 104.14 102.109 103.83C101.723 103.519 101.231 103.364 100.632 103.364C100.034 103.364 99.5412 103.519 99.1548 103.83C98.7685 104.14 98.4825 104.547 98.2969 105.051C98.1113 105.555 98.0185 106.098 98.0185 106.682C98.0185 107.265 98.1113 107.807 98.2969 108.307C98.4825 108.807 98.7685 109.21 99.1548 109.517C99.5412 109.824 100.034 109.977 100.632 109.977ZM110.429 102.273V103.409H105.906V102.273H110.429ZM107.224 100.182H108.565V108.5C108.565 108.879 108.62 109.163 108.73 109.352C108.844 109.538 108.988 109.663 109.162 109.727C109.34 109.788 109.527 109.818 109.724 109.818C109.872 109.818 109.993 109.811 110.088 109.795C110.183 109.777 110.259 109.761 110.315 109.75L110.588 110.955C110.497 110.989 110.37 111.023 110.207 111.057C110.045 111.095 109.838 111.114 109.588 111.114C109.209 111.114 108.838 111.032 108.474 110.869C108.115 110.706 107.815 110.458 107.577 110.125C107.342 109.792 107.224 109.371 107.224 108.864V100.182ZM113.31 114.273C113.082 114.273 112.88 114.254 112.702 114.216C112.524 114.182 112.401 114.148 112.332 114.114L112.673 112.932C112.999 113.015 113.287 113.045 113.537 113.023C113.787 113 114.009 112.888 114.202 112.688C114.399 112.491 114.579 112.17 114.741 111.727L114.991 111.045L111.764 102.273H113.219L115.628 109.227H115.719L118.128 102.273H119.582L115.878 112.273C115.711 112.723 115.505 113.097 115.259 113.392C115.012 113.691 114.726 113.913 114.401 114.057C114.079 114.201 113.715 114.273 113.31 114.273ZM121.352 114.273V102.273H122.648V103.659H122.807C122.905 103.508 123.042 103.314 123.216 103.08C123.394 102.841 123.648 102.629 123.977 102.443C124.311 102.254 124.761 102.159 125.33 102.159C126.064 102.159 126.712 102.343 127.273 102.71C127.833 103.078 128.271 103.598 128.585 104.273C128.9 104.947 129.057 105.742 129.057 106.659C129.057 107.583 128.9 108.384 128.585 109.062C128.271 109.737 127.835 110.259 127.278 110.631C126.722 110.998 126.08 111.182 125.352 111.182C124.792 111.182 124.343 111.089 124.006 110.903C123.669 110.714 123.409 110.5 123.227 110.261C123.045 110.019 122.905 109.818 122.807 109.659H122.693V114.273H121.352ZM122.67 106.636C122.67 107.295 122.767 107.877 122.96 108.381C123.153 108.881 123.436 109.273 123.807 109.557C124.178 109.837 124.633 109.977 125.17 109.977C125.731 109.977 126.199 109.83 126.574 109.534C126.953 109.235 127.237 108.833 127.426 108.33C127.619 107.822 127.716 107.258 127.716 106.636C127.716 106.023 127.621 105.47 127.432 104.977C127.246 104.481 126.964 104.089 126.585 103.801C126.21 103.509 125.739 103.364 125.17 103.364C124.625 103.364 124.167 103.502 123.795 103.778C123.424 104.051 123.144 104.434 122.955 104.926C122.765 105.415 122.67 105.985 122.67 106.636ZM134.761 111.182C133.92 111.182 133.195 110.996 132.585 110.625C131.979 110.25 131.511 109.727 131.182 109.057C130.856 108.383 130.693 107.598 130.693 106.705C130.693 105.811 130.856 105.023 131.182 104.341C131.511 103.655 131.97 103.121 132.557 102.739C133.148 102.352 133.837 102.159 134.625 102.159C135.08 102.159 135.528 102.235 135.972 102.386C136.415 102.538 136.818 102.784 137.182 103.125C137.545 103.462 137.835 103.909 138.051 104.466C138.267 105.023 138.375 105.708 138.375 106.523V107.091H131.648V105.932H137.011C137.011 105.439 136.913 105 136.716 104.614C136.523 104.227 136.246 103.922 135.886 103.699C135.53 103.475 135.11 103.364 134.625 103.364C134.091 103.364 133.629 103.496 133.239 103.761C132.852 104.023 132.555 104.364 132.347 104.784C132.138 105.205 132.034 105.655 132.034 106.136V106.909C132.034 107.568 132.148 108.127 132.375 108.585C132.606 109.04 132.926 109.386 133.335 109.625C133.744 109.86 134.22 109.977 134.761 109.977C135.114 109.977 135.432 109.928 135.716 109.83C136.004 109.727 136.252 109.576 136.46 109.375C136.669 109.17 136.83 108.917 136.943 108.614L138.239 108.977C138.102 109.417 137.873 109.803 137.551 110.136C137.229 110.466 136.831 110.723 136.358 110.909C135.884 111.091 135.352 111.182 134.761 111.182ZM140.415 111V102.273H141.71V103.591H141.801C141.96 103.159 142.248 102.809 142.665 102.54C143.081 102.271 143.551 102.136 144.074 102.136C144.172 102.136 144.295 102.138 144.443 102.142C144.591 102.146 144.703 102.152 144.778 102.159V103.523C144.733 103.511 144.629 103.494 144.466 103.472C144.307 103.445 144.138 103.432 143.96 103.432C143.536 103.432 143.157 103.521 142.824 103.699C142.494 103.873 142.233 104.116 142.04 104.426C141.85 104.733 141.756 105.083 141.756 105.477V111H140.415Z" fill="black"/>
</svg>
