<svg width="192" height="171" viewBox="0 0 192 171" fill="none" xmlns="http://www.w3.org/2000/svg">
<path d="M6.89243 61.8025C7.39522 60.4893 7.96837 59.24 8.58695 58.0327C9.75703 54.3213 10.7072 50.3362 11.0822 46.7784C11.7864 40.0976 19.7853 30.3621 23.7571 26.5195C28.8447 21.5974 35.3082 17.252 41.6005 14.4911C45.4986 12.7807 49.693 12.4238 53.9937 12.508C60.2571 12.6305 66.7459 13.6885 72.8728 12.8637C86.275 11.0594 99.7215 10.1724 112.866 7.49394C122.854 5.45861 134.159 5.49552 144.945 10.2997C163.528 18.5765 175.937 41.7418 183.046 62.8703C187.308 75.5372 191.699 95.765 187.295 106.274C183.83 114.545 183.722 122.827 177.17 128.522C172.533 132.552 168.753 135.574 163.137 138.039C144.058 146.41 123.952 151.534 104.608 159.184C92.7351 163.88 80.0175 166.312 66.4815 164.575C61.0531 163.878 55.6584 162.649 50.2585 161.867C45.6501 161.199 40.307 155.672 35.651 153.83C24.2949 149.339 15.6322 121.038 10.6582 109.702C3.3755 93.104 1.59484 75.6394 6.89243 61.8025Z" fill="#D9D9D9"/>
<path d="M30.4091 91V79.3636H34.4773C35.2879 79.3636 35.9564 79.5038 36.483 79.7841C37.0095 80.0606 37.4015 80.4337 37.6591 80.9034C37.9167 81.3693 38.0455 81.8864 38.0455 82.4545C38.0455 82.9545 37.9564 83.3674 37.7784 83.6932C37.6042 84.0189 37.3731 84.2765 37.0852 84.4659C36.8011 84.6553 36.4924 84.7955 36.1591 84.8864V85C36.5152 85.0227 36.8731 85.1477 37.233 85.375C37.5928 85.6023 37.8939 85.928 38.1364 86.3523C38.3788 86.7765 38.5 87.2955 38.5 87.9091C38.5 88.4924 38.3674 89.017 38.1023 89.483C37.8371 89.9489 37.4186 90.3182 36.8466 90.5909C36.2746 90.8636 35.5303 91 34.6136 91H30.4091ZM31.8182 89.75H34.6136C35.5341 89.75 36.1875 89.572 36.5739 89.2159C36.964 88.8561 37.1591 88.4205 37.1591 87.9091C37.1591 87.5152 37.0587 87.1515 36.858 86.8182C36.6572 86.4811 36.3712 86.2121 36 86.0114C35.6288 85.8068 35.1894 85.7045 34.6818 85.7045H31.8182V89.75ZM31.8182 84.4773H34.4318C34.8561 84.4773 35.2386 84.3939 35.5795 84.2273C35.9242 84.0606 36.197 83.8258 36.3977 83.5227C36.6023 83.2197 36.7045 82.8636 36.7045 82.4545C36.7045 81.9432 36.5265 81.5095 36.1705 81.1534C35.8144 80.7936 35.25 80.6136 34.4773 80.6136H31.8182V84.4773ZM40.6335 91V82.2727H41.9744V91H40.6335ZM41.3153 80.8182C41.054 80.8182 40.8286 80.7292 40.6392 80.5511C40.4536 80.3731 40.3608 80.1591 40.3608 79.9091C40.3608 79.6591 40.4536 79.4451 40.6392 79.267C40.8286 79.089 41.054 79 41.3153 79C41.5767 79 41.8002 79.089 41.9858 79.267C42.1752 79.4451 42.2699 79.6591 42.2699 79.9091C42.2699 80.1591 42.1752 80.3731 41.9858 80.5511C41.8002 80.7292 41.5767 80.8182 41.3153 80.8182ZM47.9759 91.1818C47.188 91.1818 46.4967 90.9943 45.902 90.6193C45.3111 90.2443 44.849 89.7197 44.5156 89.0455C44.1861 88.3712 44.0213 87.5833 44.0213 86.6818C44.0213 85.7727 44.1861 84.9792 44.5156 84.3011C44.849 83.6231 45.3111 83.0966 45.902 82.7216C46.4967 82.3466 47.188 82.1591 47.9759 82.1591C48.7637 82.1591 49.4531 82.3466 50.044 82.7216C50.6387 83.0966 51.1009 83.6231 51.4304 84.3011C51.7637 84.9792 51.9304 85.7727 51.9304 86.6818C51.9304 87.5833 51.7637 88.3712 51.4304 89.0455C51.1009 89.7197 50.6387 90.2443 50.044 90.6193C49.4531 90.9943 48.7637 91.1818 47.9759 91.1818ZM47.9759 89.9773C48.5743 89.9773 49.0668 89.8239 49.4531 89.517C49.8395 89.2102 50.1255 88.8068 50.3111 88.3068C50.4967 87.8068 50.5895 87.2652 50.5895 86.6818C50.5895 86.0985 50.4967 85.5549 50.3111 85.0511C50.1255 84.5473 49.8395 84.1402 49.4531 83.8295C49.0668 83.5189 48.5743 83.3636 47.9759 83.3636C47.3774 83.3636 46.8849 83.5189 46.4986 83.8295C46.1122 84.1402 45.8262 84.5473 45.6406 85.0511C45.455 85.5549 45.3622 86.0985 45.3622 86.6818C45.3622 87.2652 45.455 87.8068 45.6406 88.3068C45.8262 88.8068 46.1122 89.2102 46.4986 89.517C46.8849 89.8239 47.3774 89.9773 47.9759 89.9773ZM57.7727 82.2727V83.4091H53.25V82.2727H57.7727ZM54.5682 80.1818H55.9091V88.5C55.9091 88.8788 55.964 89.1629 56.0739 89.3523C56.1875 89.5379 56.3314 89.6629 56.5057 89.7273C56.6837 89.7879 56.8712 89.8182 57.0682 89.8182C57.2159 89.8182 57.3371 89.8106 57.4318 89.7955C57.5265 89.7765 57.6023 89.7614 57.6591 89.75L57.9318 90.9545C57.8409 90.9886 57.714 91.0227 57.5511 91.0568C57.3883 91.0947 57.1818 91.1136 56.9318 91.1136C56.553 91.1136 56.1818 91.0322 55.8182 90.8693C55.4583 90.7064 55.1591 90.4583 54.9205 90.125C54.6856 89.7917 54.5682 89.3712 54.5682 88.8636V80.1818ZM63.2415 91.1818C62.4536 91.1818 61.7623 90.9943 61.1676 90.6193C60.5767 90.2443 60.1146 89.7197 59.7812 89.0455C59.4517 88.3712 59.2869 87.5833 59.2869 86.6818C59.2869 85.7727 59.4517 84.9792 59.7812 84.3011C60.1146 83.6231 60.5767 83.0966 61.1676 82.7216C61.7623 82.3466 62.4536 82.1591 63.2415 82.1591C64.0294 82.1591 64.7188 82.3466 65.3097 82.7216C65.9044 83.0966 66.3665 83.6231 66.696 84.3011C67.0294 84.9792 67.196 85.7727 67.196 86.6818C67.196 87.5833 67.0294 88.3712 66.696 89.0455C66.3665 89.7197 65.9044 90.2443 65.3097 90.6193C64.7188 90.9943 64.0294 91.1818 63.2415 91.1818ZM63.2415 89.9773C63.84 89.9773 64.3324 89.8239 64.7188 89.517C65.1051 89.2102 65.3911 88.8068 65.5767 88.3068C65.7623 87.8068 65.8551 87.2652 65.8551 86.6818C65.8551 86.0985 65.7623 85.5549 65.5767 85.0511C65.3911 84.5473 65.1051 84.1402 64.7188 83.8295C64.3324 83.5189 63.84 83.3636 63.2415 83.3636C62.643 83.3636 62.1506 83.5189 61.7642 83.8295C61.3778 84.1402 61.0919 84.5473 60.9062 85.0511C60.7206 85.5549 60.6278 86.0985 60.6278 86.6818C60.6278 87.2652 60.7206 87.8068 60.9062 88.3068C61.0919 88.8068 61.3778 89.2102 61.7642 89.517C62.1506 89.8239 62.643 89.9773 63.2415 89.9773ZM69.2429 94.2727V82.2727H70.5384V83.6591H70.6974C70.7959 83.5076 70.9323 83.3144 71.1065 83.0795C71.2846 82.8409 71.5384 82.6288 71.8679 82.4432C72.2012 82.2538 72.652 82.1591 73.2202 82.1591C73.955 82.1591 74.6027 82.3428 75.1634 82.7102C75.724 83.0777 76.1615 83.5985 76.4759 84.2727C76.7902 84.947 76.9474 85.7424 76.9474 86.6591C76.9474 87.5833 76.7902 88.3845 76.4759 89.0625C76.1615 89.7367 75.7259 90.2595 75.169 90.6307C74.6122 90.9981 73.9702 91.1818 73.2429 91.1818C72.6823 91.1818 72.2334 91.089 71.8963 90.9034C71.5592 90.714 71.2997 90.5 71.1179 90.2614C70.9361 90.0189 70.7959 89.8182 70.6974 89.6591H70.5838V94.2727H69.2429ZM70.5611 86.6364C70.5611 87.2955 70.6577 87.8769 70.8509 88.3807C71.044 88.8807 71.3262 89.2727 71.6974 89.5568C72.0687 89.8371 72.5232 89.9773 73.0611 89.9773C73.6217 89.9773 74.0895 89.8295 74.4645 89.5341C74.8433 89.2348 75.1274 88.8333 75.3168 88.3295C75.5099 87.822 75.6065 87.2576 75.6065 86.6364C75.6065 86.0227 75.5118 85.4697 75.3224 84.9773C75.1368 84.4811 74.8546 84.089 74.4759 83.8011C74.1009 83.5095 73.6293 83.3636 73.0611 83.3636C72.5156 83.3636 72.0573 83.5019 71.6861 83.7784C71.3149 84.0511 71.0346 84.4337 70.8452 84.9261C70.6558 85.4148 70.5611 85.9848 70.5611 86.6364ZM82.8793 82.2727V83.4091H78.1747V82.2727H82.8793ZM79.5838 91V81.0682C79.5838 80.5682 79.7012 80.1515 79.9361 79.8182C80.1709 79.4848 80.4759 79.2348 80.8509 79.0682C81.2259 78.9015 81.6217 78.8182 82.0384 78.8182C82.3679 78.8182 82.6368 78.8447 82.8452 78.8977C83.0535 78.9508 83.2088 79 83.3111 79.0455L82.9247 80.2045C82.8565 80.1818 82.7618 80.1534 82.6406 80.1193C82.5232 80.0852 82.3679 80.0682 82.1747 80.0682C81.7315 80.0682 81.4115 80.1799 81.2145 80.4034C81.0213 80.6269 80.9247 80.9545 80.9247 81.3864V91H79.5838ZM87.9446 91.1818C87.1567 91.1818 86.4654 90.9943 85.8707 90.6193C85.2798 90.2443 84.8177 89.7197 84.4844 89.0455C84.1548 88.3712 83.9901 87.5833 83.9901 86.6818C83.9901 85.7727 84.1548 84.9792 84.4844 84.3011C84.8177 83.6231 85.2798 83.0966 85.8707 82.7216C86.4654 82.3466 87.1567 82.1591 87.9446 82.1591C88.7325 82.1591 89.4219 82.3466 90.0128 82.7216C90.6075 83.0966 91.0696 83.6231 91.3991 84.3011C91.7325 84.9792 91.8991 85.7727 91.8991 86.6818C91.8991 87.5833 91.7325 88.3712 91.3991 89.0455C91.0696 89.7197 90.6075 90.2443 90.0128 90.6193C89.4219 90.9943 88.7325 91.1818 87.9446 91.1818ZM87.9446 89.9773C88.5431 89.9773 89.0355 89.8239 89.4219 89.517C89.8082 89.2102 90.0942 88.8068 90.2798 88.3068C90.4654 87.8068 90.5582 87.2652 90.5582 86.6818C90.5582 86.0985 90.4654 85.5549 90.2798 85.0511C90.0942 84.5473 89.8082 84.1402 89.4219 83.8295C89.0355 83.5189 88.5431 83.3636 87.9446 83.3636C87.3461 83.3636 86.8537 83.5189 86.4673 83.8295C86.081 84.1402 85.795 84.5473 85.6094 85.0511C85.4238 85.5549 85.331 86.0985 85.331 86.6818C85.331 87.2652 85.4238 87.8068 85.6094 88.3068C85.795 88.8068 86.081 89.2102 86.4673 89.517C86.8537 89.8239 87.3461 89.9773 87.9446 89.9773ZM86.3082 80.8182C86.0696 80.8182 85.8575 80.7273 85.6719 80.5455C85.4901 80.3598 85.3991 80.1477 85.3991 79.9091C85.3991 79.6477 85.4901 79.4318 85.6719 79.2614C85.8575 79.0871 86.0696 79 86.3082 79C86.5696 79 86.7855 79.0871 86.956 79.2614C87.1302 79.4318 87.2173 79.6477 87.2173 79.9091C87.2173 80.1477 87.1302 80.3598 86.956 80.5455C86.7855 80.7273 86.5696 80.8182 86.3082 80.8182ZM89.581 80.8182C89.3423 80.8182 89.1302 80.7273 88.9446 80.5455C88.7628 80.3598 88.6719 80.1477 88.6719 79.9091C88.6719 79.6477 88.7628 79.4318 88.9446 79.2614C89.1302 79.0871 89.3423 79 89.581 79C89.8423 79 90.0582 79.0871 90.2287 79.2614C90.4029 79.4318 90.4901 79.6477 90.4901 79.9091C90.4901 80.1477 90.4029 80.3598 90.2287 80.5455C90.0582 80.7273 89.8423 80.8182 89.581 80.8182ZM93.946 91V82.2727H95.2415V83.5909H95.3324C95.4915 83.1591 95.7794 82.8087 96.196 82.5398C96.6127 82.2708 97.0824 82.1364 97.6051 82.1364C97.7036 82.1364 97.8267 82.1383 97.9744 82.142C98.1222 82.1458 98.2339 82.1515 98.3097 82.1591V83.5227C98.2642 83.5114 98.16 83.4943 97.9972 83.4716C97.8381 83.4451 97.6695 83.4318 97.4915 83.4318C97.0672 83.4318 96.6884 83.5208 96.3551 83.6989C96.0256 83.8731 95.7642 84.1155 95.571 84.4261C95.3816 84.733 95.2869 85.0833 95.2869 85.4773V91H93.946ZM106.081 84.2273L104.876 84.5682C104.801 84.3674 104.689 84.1723 104.541 83.983C104.397 83.7898 104.2 83.6307 103.95 83.5057C103.7 83.3807 103.38 83.3182 102.99 83.3182C102.456 83.3182 102.011 83.4413 101.655 83.6875C101.303 83.9299 101.126 84.2386 101.126 84.6136C101.126 84.947 101.248 85.2102 101.49 85.4034C101.732 85.5966 102.111 85.7576 102.626 85.8864L103.922 86.2045C104.702 86.3939 105.284 86.6837 105.666 87.0739C106.049 87.4602 106.24 87.9583 106.24 88.5682C106.24 89.0682 106.096 89.5152 105.808 89.9091C105.524 90.303 105.126 90.6136 104.615 90.8409C104.104 91.0682 103.509 91.1818 102.831 91.1818C101.941 91.1818 101.204 90.9886 100.621 90.6023C100.037 90.2159 99.6681 89.6515 99.5128 88.9091L100.786 88.5909C100.907 89.0606 101.136 89.4129 101.473 89.6477C101.814 89.8826 102.259 90 102.808 90C103.433 90 103.929 89.8674 104.297 89.6023C104.668 89.3333 104.854 89.0114 104.854 88.6364C104.854 88.3333 104.748 88.0795 104.536 87.875C104.323 87.6667 103.998 87.5114 103.558 87.4091L102.104 87.0682C101.304 86.8788 100.717 86.5852 100.342 86.1875C99.9711 85.786 99.7855 85.2841 99.7855 84.6818C99.7855 84.1894 99.9238 83.7538 100.2 83.375C100.481 82.9962 100.861 82.6989 101.342 82.483C101.827 82.267 102.376 82.1591 102.99 82.1591C103.854 82.1591 104.532 82.3485 105.024 82.7273C105.52 83.1061 105.873 83.6061 106.081 84.2273ZM112.054 82.2727V83.4091H107.531V82.2727H112.054ZM108.849 80.1818H110.19V88.5C110.19 88.8788 110.245 89.1629 110.355 89.3523C110.469 89.5379 110.613 89.6629 110.787 89.7273C110.965 89.7879 111.152 89.8182 111.349 89.8182C111.497 89.8182 111.618 89.8106 111.713 89.7955C111.808 89.7765 111.884 89.7614 111.94 89.75L112.213 90.9545C112.122 90.9886 111.995 91.0227 111.832 91.0568C111.67 91.0947 111.463 91.1136 111.213 91.1136C110.834 91.1136 110.463 91.0322 110.099 90.8693C109.74 90.7064 109.44 90.4583 109.202 90.125C108.967 89.7917 108.849 89.3712 108.849 88.8636V80.1818ZM117.523 91.1818C116.735 91.1818 116.044 90.9943 115.449 90.6193C114.858 90.2443 114.396 89.7197 114.062 89.0455C113.733 88.3712 113.568 87.5833 113.568 86.6818C113.568 85.7727 113.733 84.9792 114.062 84.3011C114.396 83.6231 114.858 83.0966 115.449 82.7216C116.044 82.3466 116.735 82.1591 117.523 82.1591C118.311 82.1591 119 82.3466 119.591 82.7216C120.186 83.0966 120.648 83.6231 120.977 84.3011C121.311 84.9792 121.477 85.7727 121.477 86.6818C121.477 87.5833 121.311 88.3712 120.977 89.0455C120.648 89.7197 120.186 90.2443 119.591 90.6193C119 90.9943 118.311 91.1818 117.523 91.1818ZM117.523 89.9773C118.121 89.9773 118.614 89.8239 119 89.517C119.386 89.2102 119.672 88.8068 119.858 88.3068C120.044 87.8068 120.136 87.2652 120.136 86.6818C120.136 86.0985 120.044 85.5549 119.858 85.0511C119.672 84.5473 119.386 84.1402 119 83.8295C118.614 83.5189 118.121 83.3636 117.523 83.3636C116.924 83.3636 116.432 83.5189 116.045 83.8295C115.659 84.1402 115.373 84.5473 115.188 85.0511C115.002 85.5549 114.909 86.0985 114.909 86.6818C114.909 87.2652 115.002 87.8068 115.188 88.3068C115.373 88.8068 115.659 89.2102 116.045 89.517C116.432 89.8239 116.924 89.9773 117.523 89.9773ZM115.886 80.8182C115.648 80.8182 115.436 80.7273 115.25 80.5455C115.068 80.3598 114.977 80.1477 114.977 79.9091C114.977 79.6477 115.068 79.4318 115.25 79.2614C115.436 79.0871 115.648 79 115.886 79C116.148 79 116.364 79.0871 116.534 79.2614C116.708 79.4318 116.795 79.6477 116.795 79.9091C116.795 80.1477 116.708 80.3598 116.534 80.5455C116.364 80.7273 116.148 80.8182 115.886 80.8182ZM119.159 80.8182C118.92 80.8182 118.708 80.7273 118.523 80.5455C118.341 80.3598 118.25 80.1477 118.25 79.9091C118.25 79.6477 118.341 79.4318 118.523 79.2614C118.708 79.0871 118.92 79 119.159 79C119.42 79 119.636 79.0871 119.807 79.2614C119.981 79.4318 120.068 79.6477 120.068 79.9091C120.068 80.1477 119.981 80.3598 119.807 80.5455C119.636 80.7273 119.42 80.8182 119.159 80.8182ZM123.524 91V82.2727H124.82V83.5909H124.911C125.07 83.1591 125.357 82.8087 125.774 82.5398C126.191 82.2708 126.661 82.1364 127.183 82.1364C127.282 82.1364 127.405 82.1383 127.553 82.142C127.7 82.1458 127.812 82.1515 127.888 82.1591V83.5227C127.842 83.5114 127.738 83.4943 127.575 83.4716C127.416 83.4451 127.248 83.4318 127.07 83.4318C126.645 83.4318 126.267 83.5208 125.933 83.6989C125.604 83.8731 125.342 84.1155 125.149 84.4261C124.96 84.733 124.865 85.0833 124.865 85.4773V91H123.524ZM132.871 91.1818C132.03 91.1818 131.304 90.9962 130.695 90.625C130.089 90.25 129.621 89.7273 129.291 89.0568C128.965 88.3826 128.803 87.5985 128.803 86.7045C128.803 85.8106 128.965 85.0227 129.291 84.3409C129.621 83.6553 130.079 83.1212 130.666 82.7386C131.257 82.3523 131.946 82.1591 132.734 82.1591C133.189 82.1591 133.638 82.2348 134.081 82.3864C134.524 82.5379 134.928 82.7841 135.291 83.125C135.655 83.4621 135.945 83.9091 136.161 84.4659C136.376 85.0227 136.484 85.7083 136.484 86.5227V87.0909H129.757V85.9318H135.121C135.121 85.4394 135.022 85 134.825 84.6136C134.632 84.2273 134.356 83.9223 133.996 83.6989C133.64 83.4754 133.219 83.3636 132.734 83.3636C132.2 83.3636 131.738 83.4962 131.348 83.7614C130.962 84.0227 130.664 84.3636 130.456 84.7841C130.248 85.2045 130.143 85.6553 130.143 86.1364V86.9091C130.143 87.5682 130.257 88.1269 130.484 88.5852C130.715 89.0398 131.036 89.3864 131.445 89.625C131.854 89.8598 132.329 89.9773 132.871 89.9773C133.223 89.9773 133.541 89.928 133.825 89.8295C134.113 89.7273 134.361 89.5758 134.57 89.375C134.778 89.1705 134.939 88.9167 135.053 88.6136L136.348 88.9773C136.212 89.4167 135.982 89.803 135.661 90.1364C135.339 90.4659 134.941 90.7235 134.467 90.9091C133.994 91.0909 133.462 91.1818 132.871 91.1818ZM139.865 79.3636V91H138.524V79.3636H139.865ZM148.503 84.2273L147.298 84.5682C147.223 84.3674 147.111 84.1723 146.963 83.983C146.819 83.7898 146.622 83.6307 146.372 83.5057C146.122 83.3807 145.802 83.3182 145.412 83.3182C144.878 83.3182 144.433 83.4413 144.077 83.6875C143.724 83.9299 143.548 84.2386 143.548 84.6136C143.548 84.947 143.67 85.2102 143.912 85.4034C144.154 85.5966 144.533 85.7576 145.048 85.8864L146.344 86.2045C147.124 86.3939 147.705 86.6837 148.088 87.0739C148.471 87.4602 148.662 87.9583 148.662 88.5682C148.662 89.0682 148.518 89.5152 148.23 89.9091C147.946 90.303 147.548 90.6136 147.037 90.8409C146.526 91.0682 145.931 91.1818 145.253 91.1818C144.363 91.1818 143.626 90.9886 143.043 90.6023C142.459 90.2159 142.09 89.6515 141.935 88.9091L143.207 88.5909C143.329 89.0606 143.558 89.4129 143.895 89.6477C144.236 89.8826 144.681 90 145.23 90C145.855 90 146.351 89.8674 146.719 89.6023C147.09 89.3333 147.276 89.0114 147.276 88.6364C147.276 88.3333 147.17 88.0795 146.957 87.875C146.745 87.6667 146.42 87.5114 145.98 87.4091L144.526 87.0682C143.726 86.8788 143.139 86.5852 142.764 86.1875C142.393 85.786 142.207 85.2841 142.207 84.6818C142.207 84.1894 142.346 83.7538 142.622 83.375C142.902 82.9962 143.283 82.6989 143.764 82.483C144.249 82.267 144.798 82.1591 145.412 82.1591C146.276 82.1591 146.954 82.3485 147.446 82.7273C147.942 83.1061 148.295 83.6061 148.503 84.2273ZM154.339 91.1818C153.499 91.1818 152.773 90.9962 152.163 90.625C151.557 90.25 151.089 89.7273 150.76 89.0568C150.434 88.3826 150.271 87.5985 150.271 86.7045C150.271 85.8106 150.434 85.0227 150.76 84.3409C151.089 83.6553 151.548 83.1212 152.135 82.7386C152.726 82.3523 153.415 82.1591 154.203 82.1591C154.658 82.1591 155.107 82.2348 155.55 82.3864C155.993 82.5379 156.396 82.7841 156.76 83.125C157.124 83.4621 157.413 83.9091 157.629 84.4659C157.845 85.0227 157.953 85.7083 157.953 86.5227V87.0909H151.226V85.9318H156.589C156.589 85.4394 156.491 85 156.294 84.6136C156.101 84.2273 155.824 83.9223 155.464 83.6989C155.108 83.4754 154.688 83.3636 154.203 83.3636C153.669 83.3636 153.207 83.4962 152.817 83.7614C152.43 84.0227 152.133 84.3636 151.925 84.7841C151.716 85.2045 151.612 85.6553 151.612 86.1364V86.9091C151.612 87.5682 151.726 88.1269 151.953 88.5852C152.184 89.0398 152.504 89.3864 152.913 89.625C153.322 89.8598 153.798 89.9773 154.339 89.9773C154.692 89.9773 155.01 89.928 155.294 89.8295C155.582 89.7273 155.83 89.5758 156.038 89.375C156.247 89.1705 156.408 88.9167 156.521 88.6136L157.817 88.9773C157.68 89.4167 157.451 89.803 157.129 90.1364C156.807 90.4659 156.41 90.7235 155.936 90.9091C155.463 91.0909 154.93 91.1818 154.339 91.1818Z" fill="#193123"/>
</svg>
