<svg width="214" height="202" viewBox="0 0 214 202" fill="none" xmlns="http://www.w3.org/2000/svg">
<path d="M161.917 132.638C160.932 133.642 159.907 134.559 158.858 135.419C156.304 138.355 153.843 141.63 152.079 144.742C148.767 150.587 137.548 156.322 132.373 158.26C125.743 160.743 118.083 162.148 111.211 162.168C106.955 162.181 102.966 160.834 99.0565 159.041C93.3624 156.429 87.8349 152.869 81.8878 151.181C68.879 147.486 56.1957 142.934 43.0746 140.144C33.104 138.024 22.7527 133.479 14.7801 124.77C1.04447 109.765 -1.08976 83.5715 0.823793 61.3614C1.97099 48.046 6.01712 27.7465 14.2489 19.8677C20.7274 13.667 24.1307 6.11614 32.4112 3.50909C38.2716 1.66397 42.9432 0.401435 49.0769 0.383204C69.9112 0.321282 90.3916 3.64647 111.181 4.3517C123.942 4.78456 136.573 7.62982 148.292 14.6241C152.991 17.429 157.447 20.7095 162.086 23.5814C166.045 26.0323 168.739 33.2327 172.273 36.7794C180.893 45.43 177.542 74.8362 177.579 87.2157C177.633 105.341 172.296 122.065 161.917 132.638Z" fill="#D9D9D9" />
<path d="M36.2273 75.1818C36.2273 76.4091 36.0057 77.4697 35.5625 78.3636C35.1193 79.2576 34.5114 79.947 33.7386 80.4318C32.9659 80.9167 32.0833 81.1591 31.0909 81.1591C30.0985 81.1591 29.2159 80.9167 28.4432 80.4318C27.6705 79.947 27.0625 79.2576 26.6193 78.3636C26.1761 77.4697 25.9545 76.4091 25.9545 75.1818C25.9545 73.9545 26.1761 72.8939 26.6193 72C27.0625 71.1061 27.6705 70.4167 28.4432 69.9318C29.2159 69.447 30.0985 69.2045 31.0909 69.2045C32.0833 69.2045 32.9659 69.447 33.7386 69.9318C34.5114 70.4167 35.1193 71.1061 35.5625 72C36.0057 72.8939 36.2273 73.9545 36.2273 75.1818ZM34.8636 75.1818C34.8636 74.1742 34.6951 73.3239 34.358 72.6307C34.0246 71.9375 33.572 71.4129 33 71.0568C32.4318 70.7008 31.7955 70.5227 31.0909 70.5227C30.3864 70.5227 29.7481 70.7008 29.1761 71.0568C28.608 71.4129 28.1553 71.9375 27.8182 72.6307C27.4848 73.3239 27.3182 74.1742 27.3182 75.1818C27.3182 76.1894 27.4848 77.0398 27.8182 77.733C28.1553 78.4261 28.608 78.9508 29.1761 79.3068C29.7481 79.6629 30.3864 79.8409 31.0909 79.8409C31.7955 79.8409 32.4318 79.6629 33 79.3068C33.572 78.9508 34.0246 78.4261 34.358 77.733C34.6951 77.0398 34.8636 76.1894 34.8636 75.1818ZM29.4545 67.9091C29.2159 67.9091 29.0038 67.8182 28.8182 67.6364C28.6364 67.4508 28.5455 67.2386 28.5455 67C28.5455 66.7386 28.6364 66.5227 28.8182 66.3523C29.0038 66.178 29.2159 66.0909 29.4545 66.0909C29.7159 66.0909 29.9318 66.178 30.1023 66.3523C30.2765 66.5227 30.3636 66.7386 30.3636 67C30.3636 67.2386 30.2765 67.4508 30.1023 67.6364C29.9318 67.8182 29.7159 67.9091 29.4545 67.9091ZM32.7273 67.9091C32.4886 67.9091 32.2765 67.8182 32.0909 67.6364C31.9091 67.4508 31.8182 67.2386 31.8182 67C31.8182 66.7386 31.9091 66.5227 32.0909 66.3523C32.2765 66.178 32.4886 66.0909 32.7273 66.0909C32.9886 66.0909 33.2045 66.178 33.375 66.3523C33.5492 66.5227 33.6364 66.7386 33.6364 67C33.6364 67.2386 33.5492 67.4508 33.375 67.6364C33.2045 67.8182 32.9886 67.9091 32.7273 67.9091ZM45.5511 72.2727L42.3239 81H40.9602L37.733 72.2727H39.1875L41.5966 79.2273H41.6875L44.0966 72.2727H45.5511ZM50.6676 81.1818C49.8267 81.1818 49.1013 80.9962 48.4915 80.625C47.8854 80.25 47.4176 79.7273 47.0881 79.0568C46.7623 78.3826 46.5994 77.5985 46.5994 76.7045C46.5994 75.8106 46.7623 75.0227 47.0881 74.3409C47.4176 73.6553 47.8759 73.1212 48.4631 72.7386C49.054 72.3523 49.7434 72.1591 50.5312 72.1591C50.9858 72.1591 51.4347 72.2348 51.8778 72.3864C52.321 72.5379 52.7244 72.7841 53.0881 73.125C53.4517 73.4621 53.7415 73.9091 53.9574 74.4659C54.1733 75.0227 54.2812 75.7083 54.2812 76.5227V77.0909H47.554V75.9318H52.9176C52.9176 75.4394 52.8191 75 52.6222 74.6136C52.429 74.2273 52.1525 73.9223 51.7926 73.6989C51.4366 73.4754 51.0161 73.3636 50.5312 73.3636C49.9972 73.3636 49.535 73.4962 49.1449 73.7614C48.7585 74.0227 48.4612 74.3636 48.2528 74.7841C48.0445 75.2045 47.9403 75.6553 47.9403 76.1364V76.9091C47.9403 77.5682 48.054 78.1269 48.2812 78.5852C48.5123 79.0398 48.8324 79.3864 49.2415 79.625C49.6506 79.8598 50.1259 79.9773 50.6676 79.9773C51.0199 79.9773 51.3381 79.928 51.6222 79.8295C51.91 79.7273 52.1581 79.5758 52.3665 79.375C52.5748 79.1705 52.7358 78.9167 52.8494 78.6136L54.1449 78.9773C54.0085 79.4167 53.7794 79.803 53.4574 80.1364C53.1354 80.4659 52.7377 80.7235 52.2642 80.9091C51.7907 81.0909 51.2585 81.1818 50.6676 81.1818ZM56.321 81V72.2727H57.6165V73.5909H57.7074C57.8665 73.1591 58.1544 72.8087 58.571 72.5398C58.9877 72.2708 59.4574 72.1364 59.9801 72.1364C60.0786 72.1364 60.2017 72.1383 60.3494 72.142C60.4972 72.1458 60.6089 72.1515 60.6847 72.1591V73.5227C60.6392 73.5114 60.535 73.4943 60.3722 73.4716C60.2131 73.4451 60.0445 73.4318 59.8665 73.4318C59.4422 73.4318 59.0634 73.5208 58.7301 73.6989C58.4006 73.8731 58.1392 74.1155 57.946 74.4261C57.7566 74.733 57.6619 75.0833 57.6619 75.4773V81H56.321ZM65.6676 81.1818C64.8267 81.1818 64.1013 80.9962 63.4915 80.625C62.8854 80.25 62.4176 79.7273 62.0881 79.0568C61.7623 78.3826 61.5994 77.5985 61.5994 76.7045C61.5994 75.8106 61.7623 75.0227 62.0881 74.3409C62.4176 73.6553 62.8759 73.1212 63.4631 72.7386C64.054 72.3523 64.7434 72.1591 65.5312 72.1591C65.9858 72.1591 66.4347 72.2348 66.8778 72.3864C67.321 72.5379 67.7244 72.7841 68.0881 73.125C68.4517 73.4621 68.7415 73.9091 68.9574 74.4659C69.1733 75.0227 69.2812 75.7083 69.2812 76.5227V77.0909H62.554V75.9318H67.9176C67.9176 75.4394 67.8191 75 67.6222 74.6136C67.429 74.2273 67.1525 73.9223 66.7926 73.6989C66.4366 73.4754 66.0161 73.3636 65.5312 73.3636C64.9972 73.3636 64.535 73.4962 64.1449 73.7614C63.7585 74.0227 63.4612 74.3636 63.2528 74.7841C63.0445 75.2045 62.9403 75.6553 62.9403 76.1364V76.9091C62.9403 77.5682 63.054 78.1269 63.2812 78.5852C63.5123 79.0398 63.8324 79.3864 64.2415 79.625C64.6506 79.8598 65.1259 79.9773 65.6676 79.9773C66.0199 79.9773 66.3381 79.928 66.6222 79.8295C66.91 79.7273 67.1581 79.5758 67.3665 79.375C67.5748 79.1705 67.7358 78.9167 67.8494 78.6136L69.1449 78.9773C69.0085 79.4167 68.7794 79.803 68.4574 80.1364C68.1354 80.4659 67.7377 80.7235 67.2642 80.9091C66.7907 81.0909 66.2585 81.1818 65.6676 81.1818ZM72.0866 72.2727L74.1776 75.8409L76.2685 72.2727H77.8139L74.9957 76.6364L77.8139 81H76.2685L74.1776 77.6136L72.0866 81H70.5412L73.3139 76.6364L70.5412 72.2727H72.0866ZM79.7273 84.2727V72.2727H81.0227V73.6591H81.1818C81.2803 73.5076 81.4167 73.3144 81.5909 73.0795C81.7689 72.8409 82.0227 72.6288 82.3523 72.4432C82.6856 72.2538 83.1364 72.1591 83.7045 72.1591C84.4394 72.1591 85.0871 72.3428 85.6477 72.7102C86.2083 73.0777 86.6458 73.5985 86.9602 74.2727C87.2746 74.947 87.4318 75.7424 87.4318 76.6591C87.4318 77.5833 87.2746 78.3845 86.9602 79.0625C86.6458 79.7367 86.2102 80.2595 85.6534 80.6307C85.0966 80.9981 84.4545 81.1818 83.7273 81.1818C83.1667 81.1818 82.7178 81.089 82.3807 80.9034C82.0436 80.714 81.7841 80.5 81.6023 80.2614C81.4205 80.0189 81.2803 79.8182 81.1818 79.6591H81.0682V84.2727H79.7273ZM81.0455 76.6364C81.0455 77.2955 81.142 77.8769 81.3352 78.3807C81.5284 78.8807 81.8106 79.2727 82.1818 79.5568C82.553 79.8371 83.0076 79.9773 83.5455 79.9773C84.1061 79.9773 84.5739 79.8295 84.9489 79.5341C85.3277 79.2348 85.6117 78.8333 85.8011 78.3295C85.9943 77.822 86.0909 77.2576 86.0909 76.6364C86.0909 76.0227 85.9962 75.4697 85.8068 74.9773C85.6212 74.4811 85.339 74.089 84.9602 73.8011C84.5852 73.5095 84.1136 73.3636 83.5455 73.3636C83 73.3636 82.5417 73.5019 82.1705 73.7784C81.7992 74.0511 81.5189 74.4337 81.3295 74.9261C81.1402 75.4148 81.0455 75.9848 81.0455 76.6364ZM90.8182 69.3636V81H89.4773V69.3636H90.8182ZM96.8196 81.1818C96.0317 81.1818 95.3404 80.9943 94.7457 80.6193C94.1548 80.2443 93.6927 79.7197 93.3594 79.0455C93.0298 78.3712 92.8651 77.5833 92.8651 76.6818C92.8651 75.7727 93.0298 74.9792 93.3594 74.3011C93.6927 73.6231 94.1548 73.0966 94.7457 72.7216C95.3404 72.3466 96.0317 72.1591 96.8196 72.1591C97.6075 72.1591 98.2969 72.3466 98.8878 72.7216C99.4825 73.0966 99.9446 73.6231 100.274 74.3011C100.607 74.9792 100.774 75.7727 100.774 76.6818C100.774 77.5833 100.607 78.3712 100.274 79.0455C99.9446 79.7197 99.4825 80.2443 98.8878 80.6193C98.2969 80.9943 97.6075 81.1818 96.8196 81.1818ZM96.8196 79.9773C97.4181 79.9773 97.9105 79.8239 98.2969 79.517C98.6832 79.2102 98.9692 78.8068 99.1548 78.3068C99.3404 77.8068 99.4332 77.2652 99.4332 76.6818C99.4332 76.0985 99.3404 75.5549 99.1548 75.0511C98.9692 74.5473 98.6832 74.1402 98.2969 73.8295C97.9105 73.5189 97.4181 73.3636 96.8196 73.3636C96.2211 73.3636 95.7287 73.5189 95.3423 73.8295C94.956 74.1402 94.67 74.5473 94.4844 75.0511C94.2988 75.5549 94.206 76.0985 94.206 76.6818C94.206 77.2652 94.2988 77.8068 94.4844 78.3068C94.67 78.8068 94.956 79.2102 95.3423 79.517C95.7287 79.8239 96.2211 79.9773 96.8196 79.9773ZM105.389 81.2045C104.836 81.2045 104.334 81.1004 103.884 80.892C103.433 80.6799 103.075 80.375 102.81 79.9773C102.545 79.5758 102.412 79.0909 102.412 78.5227C102.412 78.0227 102.51 77.6174 102.707 77.3068C102.904 76.9924 103.168 76.7462 103.497 76.5682C103.827 76.3902 104.19 76.2576 104.588 76.1705C104.99 76.0795 105.393 76.0076 105.798 75.9545C106.329 75.8864 106.759 75.8352 107.088 75.8011C107.421 75.7633 107.664 75.7008 107.815 75.6136C107.971 75.5265 108.048 75.375 108.048 75.1591V75.1136C108.048 74.553 107.895 74.1174 107.588 73.8068C107.285 73.4962 106.825 73.3409 106.207 73.3409C105.567 73.3409 105.065 73.4811 104.702 73.7614C104.338 74.0417 104.082 74.3409 103.935 74.6591L102.662 74.2045C102.889 73.6742 103.192 73.2614 103.571 72.9659C103.954 72.6667 104.37 72.4583 104.821 72.3409C105.276 72.2197 105.723 72.1591 106.162 72.1591C106.442 72.1591 106.764 72.1932 107.128 72.2614C107.495 72.3258 107.849 72.4602 108.19 72.6648C108.535 72.8693 108.821 73.178 109.048 73.5909C109.276 74.0038 109.389 74.5568 109.389 75.25V81H108.048V79.8182H107.98C107.889 80.0076 107.738 80.2102 107.526 80.4261C107.313 80.642 107.031 80.8258 106.679 80.9773C106.327 81.1288 105.897 81.2045 105.389 81.2045ZM105.594 80C106.124 80 106.571 79.8958 106.935 79.6875C107.302 79.4792 107.579 79.2102 107.764 78.8807C107.954 78.5511 108.048 78.2045 108.048 77.8409V76.6136C107.991 76.6818 107.866 76.7443 107.673 76.8011C107.484 76.8542 107.264 76.9015 107.014 76.9432C106.768 76.9811 106.527 77.0152 106.293 77.0455C106.062 77.072 105.874 77.0947 105.73 77.1136C105.382 77.1591 105.056 77.233 104.753 77.3352C104.454 77.4337 104.211 77.5833 104.026 77.7841C103.844 77.9811 103.753 78.25 103.753 78.5909C103.753 79.0568 103.925 79.4091 104.27 79.6477C104.618 79.8826 105.06 80 105.594 80ZM115.632 72.2727V73.4091H111.109V72.2727H115.632ZM112.428 70.1818H113.768V78.5C113.768 78.8788 113.823 79.1629 113.933 79.3523C114.047 79.5379 114.191 79.6629 114.365 79.7273C114.543 79.7879 114.731 79.8182 114.928 79.8182C115.075 79.8182 115.196 79.8106 115.291 79.7955C115.386 79.7765 115.462 79.7614 115.518 79.75L115.791 80.9545C115.7 80.9886 115.573 81.0227 115.411 81.0568C115.248 81.0947 115.041 81.1136 114.791 81.1136C114.412 81.1136 114.041 81.0322 113.678 80.8693C113.318 80.7064 113.018 80.4583 112.78 80.125C112.545 79.7917 112.428 79.3712 112.428 78.8636V70.1818ZM121.214 81.1818C120.374 81.1818 119.648 80.9962 119.038 80.625C118.432 80.25 117.964 79.7273 117.635 79.0568C117.309 78.3826 117.146 77.5985 117.146 76.7045C117.146 75.8106 117.309 75.0227 117.635 74.3409C117.964 73.6553 118.423 73.1212 119.01 72.7386C119.601 72.3523 120.29 72.1591 121.078 72.1591C121.533 72.1591 121.982 72.2348 122.425 72.3864C122.868 72.5379 123.271 72.7841 123.635 73.125C123.999 73.4621 124.288 73.9091 124.504 74.4659C124.72 75.0227 124.828 75.7083 124.828 76.5227V77.0909H118.101V75.9318H123.464C123.464 75.4394 123.366 75 123.169 74.6136C122.976 74.2273 122.699 73.9223 122.339 73.6989C121.983 73.4754 121.563 73.3636 121.078 73.3636C120.544 73.3636 120.082 73.4962 119.692 73.7614C119.305 74.0227 119.008 74.3636 118.8 74.7841C118.591 75.2045 118.487 75.6553 118.487 76.1364V76.9091C118.487 77.5682 118.601 78.1269 118.828 78.5852C119.059 79.0398 119.379 79.3864 119.788 79.625C120.197 79.8598 120.673 79.9773 121.214 79.9773C121.567 79.9773 121.885 79.928 122.169 79.8295C122.457 79.7273 122.705 79.5758 122.913 79.375C123.122 79.1705 123.283 78.9167 123.396 78.6136L124.692 78.9773C124.555 79.4167 124.326 79.803 124.004 80.1364C123.682 80.4659 123.285 80.7235 122.811 80.9091C122.338 81.0909 121.805 81.1818 121.214 81.1818ZM126.868 81V72.2727H128.163V73.5909H128.254C128.413 73.1591 128.701 72.8087 129.118 72.5398C129.535 72.2708 130.004 72.1364 130.527 72.1364C130.625 72.1364 130.749 72.1383 130.896 72.142C131.044 72.1458 131.156 72.1515 131.232 72.1591V73.5227C131.186 73.5114 131.082 73.4943 130.919 73.4716C130.76 73.4451 130.591 73.4318 130.413 73.4318C129.989 73.4318 129.61 73.5208 129.277 73.6989C128.947 73.8731 128.686 74.1155 128.493 74.4261C128.304 74.733 128.209 75.0833 128.209 75.4773V81H126.868ZM132.821 81V72.2727H134.162V81H132.821ZM133.503 70.8182C133.241 70.8182 133.016 70.7292 132.827 70.5511C132.641 70.3731 132.548 70.1591 132.548 69.9091C132.548 69.6591 132.641 69.4451 132.827 69.267C133.016 69.089 133.241 69 133.503 69C133.764 69 133.988 69.089 134.173 69.267C134.363 69.4451 134.457 69.6591 134.457 69.9091C134.457 70.1591 134.363 70.3731 134.173 70.5511C133.988 70.7292 133.764 70.8182 133.503 70.8182ZM137.959 75.75V81H136.618V72.2727H137.913V73.6364H138.027C138.232 73.1932 138.542 72.8371 138.959 72.5682C139.375 72.2955 139.913 72.1591 140.572 72.1591C141.163 72.1591 141.68 72.2803 142.124 72.5227C142.567 72.7614 142.911 73.125 143.158 73.6136C143.404 74.0985 143.527 74.7121 143.527 75.4545V81H142.186V75.5455C142.186 74.8598 142.008 74.3258 141.652 73.9432C141.296 73.5568 140.807 73.3636 140.186 73.3636C139.758 73.3636 139.375 73.4564 139.038 73.642C138.705 73.8277 138.442 74.0985 138.249 74.4545C138.055 74.8106 137.959 75.2424 137.959 75.75ZM149.5 84.4545C148.852 84.4545 148.295 84.3712 147.83 84.2045C147.364 84.0417 146.975 83.8258 146.665 83.5568C146.358 83.2917 146.114 83.0076 145.932 82.7045L147 81.9545C147.121 82.1136 147.275 82.2955 147.46 82.5C147.646 82.7083 147.9 82.8883 148.222 83.0398C148.547 83.1951 148.973 83.2727 149.5 83.2727C150.205 83.2727 150.786 83.1023 151.244 82.7614C151.703 82.4205 151.932 81.8864 151.932 81.1591V79.3864H151.818C151.72 79.5455 151.58 79.7424 151.398 79.9773C151.22 80.2083 150.962 80.4148 150.625 80.5966C150.292 80.7746 149.841 80.8636 149.273 80.8636C148.568 80.8636 147.936 80.697 147.375 80.3636C146.818 80.0303 146.377 79.5455 146.051 78.9091C145.729 78.2727 145.568 77.5 145.568 76.5909C145.568 75.697 145.725 74.9186 146.04 74.2557C146.354 73.589 146.792 73.0739 147.352 72.7102C147.913 72.3428 148.561 72.1591 149.295 72.1591C149.864 72.1591 150.314 72.2538 150.648 72.4432C150.985 72.6288 151.242 72.8409 151.42 73.0795C151.602 73.3144 151.742 73.5076 151.841 73.6591H151.977V72.2727H153.273V81.25C153.273 82 153.102 82.6098 152.761 83.0795C152.424 83.553 151.97 83.8996 151.398 84.1193C150.83 84.3428 150.197 84.4545 149.5 84.4545ZM149.455 79.6591C149.992 79.6591 150.447 79.536 150.818 79.2898C151.189 79.0436 151.472 78.6894 151.665 78.2273C151.858 77.7652 151.955 77.2121 151.955 76.5682C151.955 75.9394 151.86 75.3845 151.67 74.9034C151.481 74.4223 151.201 74.0455 150.83 73.7727C150.458 73.5 150 73.3636 149.455 73.3636C148.886 73.3636 148.413 73.5076 148.034 73.7955C147.659 74.0833 147.377 74.4697 147.188 74.9545C147.002 75.4394 146.909 75.9773 146.909 76.5682C146.909 77.1742 147.004 77.7102 147.193 78.1761C147.386 78.6383 147.67 79.0019 148.045 79.267C148.424 79.5284 148.894 79.6591 149.455 79.6591Z" fill="#000000"/>
</svg>
