<svg width="214" height="202" viewBox="0 0 214 202" fill="none" xmlns="http://www.w3.org/2000/svg">
<path d="M49.3831 33.1385C50.5868 32.4115 51.8066 31.7782 53.0365 31.2058C56.2403 28.9969 59.4388 26.4369 61.921 23.8606C66.582 19.0229 78.875 16.258 84.3697 15.6673C91.408 14.9107 99.1775 15.4544 105.838 17.1431C109.964 18.1892 113.493 20.4852 116.834 23.1945C121.7 27.1401 126.169 31.9623 131.509 35.0767C143.191 41.8891 154.344 49.4525 166.359 55.4168C175.49 59.949 184.386 66.9255 189.943 77.3436C199.516 95.2925 195.071 121.194 187.695 142.231C183.273 154.843 174.307 173.499 164.375 179.083C156.558 183.478 151.384 189.946 142.716 190.412C136.58 190.742 131.742 190.804 125.796 189.296C105.601 184.176 86.5901 175.863 66.6287 170.011C54.3765 166.419 42.8489 160.523 33.2377 150.834C29.3831 146.949 25.883 142.664 22.1035 138.729C18.878 135.37 18.0594 127.726 15.518 123.412C9.31946 112.89 19.8765 85.2405 22.9189 73.2406C27.3733 55.6711 36.7008 40.799 49.3831 33.1385Z" fill="#D9D9D9" fill-opacity="0.94"/>
<path d="M51.8182 80.3636V92H50.4091V80.3636H51.8182ZM55.8026 86.75V92H54.4616V83.2727H55.7571V84.6364H55.8707C56.0753 84.1932 56.3859 83.8371 56.8026 83.5682C57.2192 83.2955 57.7571 83.1591 58.4162 83.1591C59.0071 83.1591 59.5241 83.2803 59.9673 83.5227C60.4105 83.7614 60.7552 84.125 61.0014 84.6136C61.2476 85.0985 61.3707 85.7121 61.3707 86.4545V92H60.0298V86.5455C60.0298 85.8598 59.8518 85.3258 59.4957 84.9432C59.1397 84.5568 58.651 84.3636 58.0298 84.3636C57.6018 84.3636 57.2192 84.4564 56.8821 84.642C56.5488 84.8277 56.2855 85.0985 56.0923 85.4545C55.8991 85.8106 55.8026 86.2424 55.8026 86.75ZM67.7074 83.2727V84.4091H63.0028V83.2727H67.7074ZM64.4119 92V82.0682C64.4119 81.5682 64.5294 81.1515 64.7642 80.8182C64.9991 80.4848 65.304 80.2348 65.679 80.0682C66.054 79.9015 66.4498 79.8182 66.8665 79.8182C67.196 79.8182 67.465 79.8447 67.6733 79.8977C67.8816 79.9508 68.0369 80 68.1392 80.0455L67.7528 81.2045C67.6847 81.1818 67.59 81.1534 67.4688 81.1193C67.3513 81.0852 67.196 81.0682 67.0028 81.0682C66.5597 81.0682 66.2396 81.1799 66.0426 81.4034C65.8494 81.6269 65.7528 81.9545 65.7528 82.3864V92H64.4119ZM72.7727 92.1818C71.9848 92.1818 71.2936 91.9943 70.6989 91.6193C70.108 91.2443 69.6458 90.7197 69.3125 90.0455C68.983 89.3712 68.8182 88.5833 68.8182 87.6818C68.8182 86.7727 68.983 85.9792 69.3125 85.3011C69.6458 84.6231 70.108 84.0966 70.6989 83.7216C71.2936 83.3466 71.9848 83.1591 72.7727 83.1591C73.5606 83.1591 74.25 83.3466 74.8409 83.7216C75.4356 84.0966 75.8977 84.6231 76.2273 85.3011C76.5606 85.9792 76.7273 86.7727 76.7273 87.6818C76.7273 88.5833 76.5606 89.3712 76.2273 90.0455C75.8977 90.7197 75.4356 91.2443 74.8409 91.6193C74.25 91.9943 73.5606 92.1818 72.7727 92.1818ZM72.7727 90.9773C73.3712 90.9773 73.8636 90.8239 74.25 90.517C74.6364 90.2102 74.9223 89.8068 75.108 89.3068C75.2936 88.8068 75.3864 88.2652 75.3864 87.6818C75.3864 87.0985 75.2936 86.5549 75.108 86.0511C74.9223 85.5473 74.6364 85.1402 74.25 84.8295C73.8636 84.5189 73.3712 84.3636 72.7727 84.3636C72.1742 84.3636 71.6818 84.5189 71.2955 84.8295C70.9091 85.1402 70.6231 85.5473 70.4375 86.0511C70.2519 86.5549 70.1591 87.0985 70.1591 87.6818C70.1591 88.2652 70.2519 88.8068 70.4375 89.3068C70.6231 89.8068 70.9091 90.2102 71.2955 90.517C71.6818 90.8239 72.1742 90.9773 72.7727 90.9773ZM71.1364 81.8182C70.8977 81.8182 70.6856 81.7273 70.5 81.5455C70.3182 81.3598 70.2273 81.1477 70.2273 80.9091C70.2273 80.6477 70.3182 80.4318 70.5 80.2614C70.6856 80.0871 70.8977 80 71.1364 80C71.3977 80 71.6136 80.0871 71.7841 80.2614C71.9583 80.4318 72.0455 80.6477 72.0455 80.9091C72.0455 81.1477 71.9583 81.3598 71.7841 81.5455C71.6136 81.7273 71.3977 81.8182 71.1364 81.8182ZM74.4091 81.8182C74.1705 81.8182 73.9583 81.7273 73.7727 81.5455C73.5909 81.3598 73.5 81.1477 73.5 80.9091C73.5 80.6477 73.5909 80.4318 73.7727 80.2614C73.9583 80.0871 74.1705 80 74.4091 80C74.6705 80 74.8864 80.0871 75.0568 80.2614C75.2311 80.4318 75.3182 80.6477 75.3182 80.9091C75.3182 81.1477 75.2311 81.3598 75.0568 81.5455C74.8864 81.7273 74.6705 81.8182 74.4091 81.8182ZM78.7741 92V83.2727H80.0696V84.5909H80.1605C80.3196 84.1591 80.6075 83.8087 81.0241 83.5398C81.4408 83.2708 81.9105 83.1364 82.4332 83.1364C82.5317 83.1364 82.6548 83.1383 82.8026 83.142C82.9503 83.1458 83.062 83.1515 83.1378 83.1591V84.5227C83.0923 84.5114 82.9882 84.4943 82.8253 84.4716C82.6662 84.4451 82.4976 84.4318 82.3196 84.4318C81.8954 84.4318 81.5166 84.5208 81.1832 84.6989C80.8537 84.8731 80.5923 85.1155 80.3991 85.4261C80.2098 85.733 80.1151 86.0833 80.1151 86.4773V92H78.7741ZM90.9091 85.2273L89.7045 85.5682C89.6288 85.3674 89.517 85.1723 89.3693 84.983C89.2254 84.7898 89.0284 84.6307 88.7784 84.5057C88.5284 84.3807 88.2083 84.3182 87.8182 84.3182C87.2841 84.3182 86.839 84.4413 86.483 84.6875C86.1307 84.9299 85.9545 85.2386 85.9545 85.6136C85.9545 85.947 86.0758 86.2102 86.3182 86.4034C86.5606 86.5966 86.9394 86.7576 87.4545 86.8864L88.75 87.2045C89.5303 87.3939 90.1117 87.6837 90.4943 88.0739C90.8769 88.4602 91.0682 88.9583 91.0682 89.5682C91.0682 90.0682 90.9242 90.5152 90.6364 90.9091C90.3523 91.303 89.9545 91.6136 89.4432 91.8409C88.9318 92.0682 88.3371 92.1818 87.6591 92.1818C86.7689 92.1818 86.0322 91.9886 85.4489 91.6023C84.8655 91.2159 84.4962 90.6515 84.3409 89.9091L85.6136 89.5909C85.7348 90.0606 85.964 90.4129 86.3011 90.6477C86.642 90.8826 87.0871 91 87.6364 91C88.2614 91 88.7576 90.8674 89.125 90.6023C89.4962 90.3333 89.6818 90.0114 89.6818 89.6364C89.6818 89.3333 89.5758 89.0795 89.3636 88.875C89.1515 88.6667 88.8258 88.5114 88.3864 88.4091L86.9318 88.0682C86.1326 87.8788 85.5455 87.5852 85.1705 87.1875C84.7992 86.786 84.6136 86.2841 84.6136 85.6818C84.6136 85.1894 84.7519 84.7538 85.0284 84.375C85.3087 83.9962 85.6894 83.6989 86.1705 83.483C86.6553 83.267 87.2045 83.1591 87.8182 83.1591C88.6818 83.1591 89.3598 83.3485 89.8523 83.7273C90.3485 84.1061 90.7008 84.6061 90.9091 85.2273ZM96.7457 92.1818C95.9048 92.1818 95.1795 91.9962 94.5696 91.625C93.9635 91.25 93.4957 90.7273 93.1662 90.0568C92.8404 89.3826 92.6776 88.5985 92.6776 87.7045C92.6776 86.8106 92.8404 86.0227 93.1662 85.3409C93.4957 84.6553 93.9541 84.1212 94.5412 83.7386C95.1321 83.3523 95.8215 83.1591 96.6094 83.1591C97.0639 83.1591 97.5128 83.2348 97.956 83.3864C98.3991 83.5379 98.8026 83.7841 99.1662 84.125C99.5298 84.4621 99.8196 84.9091 100.036 85.4659C100.251 86.0227 100.359 86.7083 100.359 87.5227V88.0909H93.6321V86.9318H98.9957C98.9957 86.4394 98.8973 86 98.7003 85.6136C98.5071 85.2273 98.2306 84.9223 97.8707 84.6989C97.5147 84.4754 97.0942 84.3636 96.6094 84.3636C96.0753 84.3636 95.6132 84.4962 95.223 84.7614C94.8366 85.0227 94.5393 85.3636 94.331 85.7841C94.1226 86.2045 94.0185 86.6553 94.0185 87.1364V87.9091C94.0185 88.5682 94.1321 89.1269 94.3594 89.5852C94.5904 90.0398 94.9105 90.3864 95.3196 90.625C95.7287 90.8598 96.2041 90.9773 96.7457 90.9773C97.098 90.9773 97.4162 90.928 97.7003 90.8295C97.9882 90.7273 98.2363 90.5758 98.4446 90.375C98.6529 90.1705 98.8139 89.9167 98.9276 89.6136L100.223 89.9773C100.087 90.4167 99.8575 90.803 99.5355 91.1364C99.2135 91.4659 98.8158 91.7235 98.3423 91.9091C97.8688 92.0909 97.3366 92.1818 96.7457 92.1818ZM103.74 80.3636V92H102.399V80.3636H103.74ZM113.264 92.2045C112.711 92.2045 112.209 92.1004 111.759 91.892C111.308 91.6799 110.95 91.375 110.685 90.9773C110.42 90.5758 110.287 90.0909 110.287 89.5227C110.287 89.0227 110.385 88.6174 110.582 88.3068C110.779 87.9924 111.043 87.7462 111.372 87.5682C111.702 87.3902 112.065 87.2576 112.463 87.1705C112.865 87.0795 113.268 87.0076 113.673 86.9545C114.204 86.8864 114.634 86.8352 114.963 86.8011C115.296 86.7633 115.539 86.7008 115.69 86.6136C115.846 86.5265 115.923 86.375 115.923 86.1591V86.1136C115.923 85.553 115.77 85.1174 115.463 84.8068C115.16 84.4962 114.7 84.3409 114.082 84.3409C113.442 84.3409 112.94 84.4811 112.577 84.7614C112.213 85.0417 111.957 85.3409 111.81 85.6591L110.537 85.2045C110.764 84.6742 111.067 84.2614 111.446 83.9659C111.829 83.6667 112.245 83.4583 112.696 83.3409C113.151 83.2197 113.598 83.1591 114.037 83.1591C114.317 83.1591 114.639 83.1932 115.003 83.2614C115.37 83.3258 115.724 83.4602 116.065 83.6648C116.41 83.8693 116.696 84.178 116.923 84.5909C117.151 85.0038 117.264 85.5568 117.264 86.25V92H115.923V90.8182H115.855C115.764 91.0076 115.613 91.2102 115.401 91.4261C115.188 91.642 114.906 91.8258 114.554 91.9773C114.202 92.1288 113.772 92.2045 113.264 92.2045ZM113.469 91C113.999 91 114.446 90.8958 114.81 90.6875C115.177 90.4792 115.454 90.2102 115.639 89.8807C115.829 89.5511 115.923 89.2045 115.923 88.8409V87.6136C115.866 87.6818 115.741 87.7443 115.548 87.8011C115.359 87.8542 115.139 87.9015 114.889 87.9432C114.643 87.9811 114.402 88.0152 114.168 88.0455C113.937 88.072 113.749 88.0947 113.605 88.1136C113.257 88.1591 112.931 88.233 112.628 88.3352C112.329 88.4337 112.086 88.5833 111.901 88.7841C111.719 88.9811 111.628 89.25 111.628 89.5909C111.628 90.0568 111.8 90.4091 112.145 90.6477C112.493 90.8826 112.935 91 113.469 91ZM126.536 83.2727L123.308 92H121.945L118.717 83.2727H120.172L122.581 90.2273H122.672L125.081 83.2727H126.536ZM54.1136 102.273V103.409H49.4091V102.273H54.1136ZM50.8182 111V101.068C50.8182 100.568 50.9356 100.152 51.1705 99.8182C51.4053 99.4848 51.7102 99.2348 52.0852 99.0682C52.4602 98.9015 52.8561 98.8182 53.2727 98.8182C53.6023 98.8182 53.8712 98.8447 54.0795 98.8977C54.2879 98.9508 54.4432 99 54.5455 99.0455L54.1591 100.205C54.0909 100.182 53.9962 100.153 53.875 100.119C53.7576 100.085 53.6023 100.068 53.4091 100.068C52.9659 100.068 52.6458 100.18 52.4489 100.403C52.2557 100.627 52.1591 100.955 52.1591 101.386V111H50.8182ZM55.9929 111V102.273H57.2884V103.591H57.3793C57.5384 103.159 57.8262 102.809 58.2429 102.54C58.6596 102.271 59.1293 102.136 59.652 102.136C59.7505 102.136 59.8736 102.138 60.0213 102.142C60.169 102.146 60.2808 102.152 60.3565 102.159V103.523C60.3111 103.511 60.2069 103.494 60.044 103.472C59.8849 103.445 59.7164 103.432 59.5384 103.432C59.1141 103.432 58.7353 103.521 58.402 103.699C58.0724 103.873 57.8111 104.116 57.6179 104.426C57.4285 104.733 57.3338 105.083 57.3338 105.477V111H55.9929ZM64.5142 111.205C63.9612 111.205 63.4593 111.1 63.0085 110.892C62.5578 110.68 62.1998 110.375 61.9347 109.977C61.6695 109.576 61.5369 109.091 61.5369 108.523C61.5369 108.023 61.6354 107.617 61.8324 107.307C62.0294 106.992 62.2926 106.746 62.6222 106.568C62.9517 106.39 63.3153 106.258 63.7131 106.17C64.1146 106.08 64.518 106.008 64.9233 105.955C65.4536 105.886 65.8835 105.835 66.2131 105.801C66.5464 105.763 66.7888 105.701 66.9403 105.614C67.0956 105.527 67.1733 105.375 67.1733 105.159V105.114C67.1733 104.553 67.0199 104.117 66.7131 103.807C66.41 103.496 65.9498 103.341 65.3324 103.341C64.6922 103.341 64.1903 103.481 63.8267 103.761C63.4631 104.042 63.2074 104.341 63.0597 104.659L61.7869 104.205C62.0142 103.674 62.3172 103.261 62.696 102.966C63.0786 102.667 63.4953 102.458 63.946 102.341C64.4006 102.22 64.8475 102.159 65.2869 102.159C65.5672 102.159 65.8892 102.193 66.2528 102.261C66.6203 102.326 66.9744 102.46 67.3153 102.665C67.66 102.869 67.946 103.178 68.1733 103.591C68.4006 104.004 68.5142 104.557 68.5142 105.25V111H67.1733V109.818H67.1051C67.0142 110.008 66.8627 110.21 66.6506 110.426C66.4384 110.642 66.1563 110.826 65.804 110.977C65.4517 111.129 65.0218 111.205 64.5142 111.205ZM64.7188 110C65.2491 110 65.696 109.896 66.0597 109.688C66.4271 109.479 66.7036 109.21 66.8892 108.881C67.0786 108.551 67.1733 108.205 67.1733 107.841V106.614C67.1165 106.682 66.9915 106.744 66.7983 106.801C66.6089 106.854 66.3892 106.902 66.1392 106.943C65.893 106.981 65.6525 107.015 65.4176 107.045C65.1866 107.072 64.9991 107.095 64.8551 107.114C64.5066 107.159 64.1809 107.233 63.8778 107.335C63.5786 107.434 63.3362 107.583 63.1506 107.784C62.9688 107.981 62.8778 108.25 62.8778 108.591C62.8778 109.057 63.0502 109.409 63.3949 109.648C63.7434 109.883 64.1847 110 64.7188 110ZM63.7415 100.818C63.5028 100.818 63.2907 100.727 63.1051 100.545C62.9233 100.36 62.8324 100.148 62.8324 99.9091C62.8324 99.6477 62.9233 99.4318 63.1051 99.2614C63.2907 99.0871 63.5028 99 63.7415 99C64.0028 99 64.2188 99.0871 64.3892 99.2614C64.5634 99.4318 64.6506 99.6477 64.6506 99.9091C64.6506 100.148 64.5634 100.36 64.3892 100.545C64.2188 100.727 64.0028 100.818 63.7415 100.818ZM67.0142 100.818C66.7756 100.818 66.5634 100.727 66.3778 100.545C66.196 100.36 66.1051 100.148 66.1051 99.9091C66.1051 99.6477 66.196 99.4318 66.3778 99.2614C66.5634 99.0871 66.7756 99 67.0142 99C67.2756 99 67.4915 99.0871 67.6619 99.2614C67.8362 99.4318 67.9233 99.6477 67.9233 99.9091C67.9233 100.148 67.8362 100.36 67.6619 100.545C67.4915 100.727 67.2756 100.818 67.0142 100.818ZM70.9616 111V102.273H72.2571V103.636H72.3707C72.5526 103.17 72.8461 102.809 73.2514 102.551C73.6567 102.29 74.1435 102.159 74.7116 102.159C75.2874 102.159 75.7666 102.29 76.1491 102.551C76.5355 102.809 76.8366 103.17 77.0526 103.636H77.1435C77.367 103.186 77.7022 102.828 78.1491 102.562C78.5961 102.294 79.1321 102.159 79.7571 102.159C80.5374 102.159 81.1757 102.403 81.6719 102.892C82.1681 103.377 82.4162 104.133 82.4162 105.159V111H81.0753V105.159C81.0753 104.515 80.8991 104.055 80.5469 103.778C80.1946 103.502 79.7798 103.364 79.3026 103.364C78.6889 103.364 78.2135 103.549 77.8764 103.92C77.5393 104.288 77.3707 104.754 77.3707 105.318V111H76.0071V105.023C76.0071 104.527 75.8461 104.127 75.5241 103.824C75.2022 103.517 74.7874 103.364 74.2798 103.364C73.9313 103.364 73.6056 103.456 73.3026 103.642C73.0033 103.828 72.7609 104.085 72.5753 104.415C72.3935 104.741 72.3026 105.117 72.3026 105.545V111H70.9616ZM84.8679 111V102.273H86.1634V103.636H86.277C86.4588 103.17 86.7524 102.809 87.1577 102.551C87.563 102.29 88.0497 102.159 88.6179 102.159C89.1937 102.159 89.6728 102.29 90.0554 102.551C90.4418 102.809 90.7429 103.17 90.9588 103.636H91.0497C91.2732 103.186 91.6084 102.828 92.0554 102.562C92.5024 102.294 93.0384 102.159 93.6634 102.159C94.4437 102.159 95.0819 102.403 95.5781 102.892C96.0743 103.377 96.3224 104.133 96.3224 105.159V111H94.9815V105.159C94.9815 104.515 94.8054 104.055 94.4531 103.778C94.1009 103.502 93.6861 103.364 93.2088 103.364C92.5952 103.364 92.1198 103.549 91.7827 103.92C91.4455 104.288 91.277 104.754 91.277 105.318V111H89.9134V105.023C89.9134 104.527 89.7524 104.127 89.4304 103.824C89.1084 103.517 88.6937 103.364 88.1861 103.364C87.8376 103.364 87.5118 103.456 87.2088 103.642C86.9096 103.828 86.6671 104.085 86.4815 104.415C86.2997 104.741 86.2088 105.117 86.2088 105.545V111H84.8679ZM101.342 111.205C100.789 111.205 100.287 111.1 99.8366 110.892C99.3859 110.68 99.0279 110.375 98.7628 109.977C98.4976 109.576 98.3651 109.091 98.3651 108.523C98.3651 108.023 98.4635 107.617 98.6605 107.307C98.8575 106.992 99.1207 106.746 99.4503 106.568C99.7798 106.39 100.143 106.258 100.541 106.17C100.943 106.08 101.346 106.008 101.751 105.955C102.282 105.886 102.712 105.835 103.041 105.801C103.375 105.763 103.617 105.701 103.768 105.614C103.924 105.527 104.001 105.375 104.001 105.159V105.114C104.001 104.553 103.848 104.117 103.541 103.807C103.238 103.496 102.778 103.341 102.161 103.341C101.52 103.341 101.018 103.481 100.655 103.761C100.291 104.042 100.036 104.341 99.8878 104.659L98.6151 104.205C98.8423 103.674 99.1454 103.261 99.5241 102.966C99.9067 102.667 100.323 102.458 100.774 102.341C101.229 102.22 101.676 102.159 102.115 102.159C102.395 102.159 102.717 102.193 103.081 102.261C103.448 102.326 103.803 102.46 104.143 102.665C104.488 102.869 104.774 103.178 105.001 103.591C105.229 104.004 105.342 104.557 105.342 105.25V111H104.001V109.818H103.933C103.842 110.008 103.691 110.21 103.479 110.426C103.267 110.642 102.984 110.826 102.632 110.977C102.28 111.129 101.85 111.205 101.342 111.205ZM101.547 110C102.077 110 102.524 109.896 102.888 109.688C103.255 109.479 103.532 109.21 103.717 108.881C103.907 108.551 104.001 108.205 104.001 107.841V106.614C103.945 106.682 103.82 106.744 103.626 106.801C103.437 106.854 103.217 106.902 102.967 106.943C102.721 106.981 102.481 107.015 102.246 107.045C102.015 107.072 101.827 107.095 101.683 107.114C101.335 107.159 101.009 107.233 100.706 107.335C100.407 107.434 100.164 107.583 99.9787 107.784C99.7969 107.981 99.706 108.25 99.706 108.591C99.706 109.057 99.8783 109.409 100.223 109.648C100.571 109.883 101.013 110 101.547 110ZM109.131 105.75V111H107.79V102.273H109.085V103.636H109.199C109.403 103.193 109.714 102.837 110.131 102.568C110.547 102.295 111.085 102.159 111.744 102.159C112.335 102.159 112.852 102.28 113.295 102.523C113.739 102.761 114.083 103.125 114.33 103.614C114.576 104.098 114.699 104.712 114.699 105.455V111H113.358V105.545C113.358 104.86 113.18 104.326 112.824 103.943C112.468 103.557 111.979 103.364 111.358 103.364C110.93 103.364 110.547 103.456 110.21 103.642C109.877 103.828 109.614 104.098 109.42 104.455C109.227 104.811 109.131 105.242 109.131 105.75ZM120.445 111.182C119.717 111.182 119.075 110.998 118.518 110.631C117.962 110.259 117.526 109.737 117.212 109.062C116.897 108.384 116.74 107.583 116.74 106.659C116.74 105.742 116.897 104.947 117.212 104.273C117.526 103.598 117.964 103.078 118.524 102.71C119.085 102.343 119.732 102.159 120.467 102.159C121.036 102.159 121.484 102.254 121.814 102.443C122.147 102.629 122.401 102.841 122.575 103.08C122.753 103.314 122.892 103.508 122.99 103.659H123.104V99.3636H124.445V111H123.149V109.659H122.99C122.892 109.818 122.751 110.019 122.57 110.261C122.388 110.5 122.128 110.714 121.791 110.903C121.454 111.089 121.005 111.182 120.445 111.182ZM120.626 109.977C121.164 109.977 121.619 109.837 121.99 109.557C122.361 109.273 122.643 108.881 122.837 108.381C123.03 107.877 123.126 107.295 123.126 106.636C123.126 105.985 123.032 105.415 122.842 104.926C122.653 104.434 122.373 104.051 122.001 103.778C121.63 103.502 121.172 103.364 120.626 103.364C120.058 103.364 119.585 103.509 119.206 103.801C118.831 104.089 118.549 104.481 118.359 104.977C118.174 105.47 118.081 106.023 118.081 106.636C118.081 107.258 118.176 107.822 118.365 108.33C118.558 108.833 118.842 109.235 119.217 109.534C119.596 109.83 120.066 109.977 120.626 109.977ZM130.746 111.182C129.905 111.182 129.179 110.996 128.57 110.625C127.964 110.25 127.496 109.727 127.166 109.057C126.84 108.383 126.678 107.598 126.678 106.705C126.678 105.811 126.84 105.023 127.166 104.341C127.496 103.655 127.954 103.121 128.541 102.739C129.132 102.352 129.821 102.159 130.609 102.159C131.064 102.159 131.513 102.235 131.956 102.386C132.399 102.538 132.803 102.784 133.166 103.125C133.53 103.462 133.82 103.909 134.036 104.466C134.251 105.023 134.359 105.708 134.359 106.523V107.091H127.632V105.932H132.996C132.996 105.439 132.897 105 132.7 104.614C132.507 104.227 132.231 103.922 131.871 103.699C131.515 103.475 131.094 103.364 130.609 103.364C130.075 103.364 129.613 103.496 129.223 103.761C128.837 104.023 128.539 104.364 128.331 104.784C128.123 105.205 128.018 105.655 128.018 106.136V106.909C128.018 107.568 128.132 108.127 128.359 108.585C128.59 109.04 128.911 109.386 129.32 109.625C129.729 109.86 130.204 109.977 130.746 109.977C131.098 109.977 131.416 109.928 131.7 109.83C131.988 109.727 132.236 109.576 132.445 109.375C132.653 109.17 132.814 108.917 132.928 108.614L134.223 108.977C134.087 109.417 133.857 109.803 133.536 110.136C133.214 110.466 132.816 110.723 132.342 110.909C131.869 111.091 131.337 111.182 130.746 111.182ZM143.467 111.205C142.914 111.205 142.412 111.1 141.962 110.892C141.511 110.68 141.153 110.375 140.888 109.977C140.623 109.576 140.49 109.091 140.49 108.523C140.49 108.023 140.589 107.617 140.786 107.307C140.982 106.992 141.246 106.746 141.575 106.568C141.905 106.39 142.268 106.258 142.666 106.17C143.068 106.08 143.471 106.008 143.876 105.955C144.407 105.886 144.837 105.835 145.166 105.801C145.5 105.763 145.742 105.701 145.893 105.614C146.049 105.527 146.126 105.375 146.126 105.159V105.114C146.126 104.553 145.973 104.117 145.666 103.807C145.363 103.496 144.903 103.341 144.286 103.341C143.645 103.341 143.143 103.481 142.78 103.761C142.416 104.042 142.161 104.341 142.013 104.659L140.74 104.205C140.967 103.674 141.27 103.261 141.649 102.966C142.032 102.667 142.448 102.458 142.899 102.341C143.354 102.22 143.801 102.159 144.24 102.159C144.52 102.159 144.842 102.193 145.206 102.261C145.573 102.326 145.928 102.46 146.268 102.665C146.613 102.869 146.899 103.178 147.126 103.591C147.354 104.004 147.467 104.557 147.467 105.25V111H146.126V109.818H146.058C145.967 110.008 145.816 110.21 145.604 110.426C145.392 110.642 145.109 110.826 144.757 110.977C144.405 111.129 143.975 111.205 143.467 111.205ZM143.672 110C144.202 110 144.649 109.896 145.013 109.688C145.38 109.479 145.657 109.21 145.842 108.881C146.032 108.551 146.126 108.205 146.126 107.841V106.614C146.07 106.682 145.945 106.744 145.751 106.801C145.562 106.854 145.342 106.902 145.092 106.943C144.846 106.981 144.606 107.015 144.371 107.045C144.14 107.072 143.952 107.095 143.808 107.114C143.46 107.159 143.134 107.233 142.831 107.335C142.532 107.434 142.289 107.583 142.104 107.784C141.922 107.981 141.831 108.25 141.831 108.591C141.831 109.057 142.003 109.409 142.348 109.648C142.696 109.883 143.138 110 143.672 110ZM149.915 111V102.273H151.21V103.591H151.301C151.46 103.159 151.748 102.809 152.165 102.54C152.581 102.271 153.051 102.136 153.574 102.136C153.672 102.136 153.795 102.138 153.943 102.142C154.091 102.146 154.203 102.152 154.278 102.159V103.523C154.233 103.511 154.129 103.494 153.966 103.472C153.807 103.445 153.638 103.432 153.46 103.432C153.036 103.432 152.657 103.521 152.324 103.699C151.994 103.873 151.733 104.116 151.54 104.426C151.35 104.733 151.256 105.083 151.256 105.477V111H149.915ZM160.21 102.273V103.409H155.688V102.273H160.21ZM157.006 100.182H158.347V108.5C158.347 108.879 158.402 109.163 158.511 109.352C158.625 109.538 158.769 109.663 158.943 109.727C159.121 109.788 159.309 109.818 159.506 109.818C159.653 109.818 159.775 109.811 159.869 109.795C159.964 109.777 160.04 109.761 160.097 109.75L160.369 110.955C160.278 110.989 160.152 111.023 159.989 111.057C159.826 111.095 159.619 111.114 159.369 111.114C158.991 111.114 158.619 111.032 158.256 110.869C157.896 110.706 157.597 110.458 157.358 110.125C157.123 109.792 157.006 109.371 157.006 108.864V100.182ZM165.793 111.182C164.952 111.182 164.226 110.996 163.616 110.625C163.01 110.25 162.543 109.727 162.213 109.057C161.887 108.383 161.724 107.598 161.724 106.705C161.724 105.811 161.887 105.023 162.213 104.341C162.543 103.655 163.001 103.121 163.588 102.739C164.179 102.352 164.868 102.159 165.656 102.159C166.111 102.159 166.56 102.235 167.003 102.386C167.446 102.538 167.849 102.784 168.213 103.125C168.577 103.462 168.866 103.909 169.082 104.466C169.298 105.023 169.406 105.708 169.406 106.523V107.091H162.679V105.932H168.043C168.043 105.439 167.944 105 167.747 104.614C167.554 104.227 167.277 103.922 166.918 103.699C166.562 103.475 166.141 103.364 165.656 103.364C165.122 103.364 164.66 103.496 164.27 103.761C163.884 104.023 163.586 104.364 163.378 104.784C163.17 105.205 163.065 105.655 163.065 106.136V106.909C163.065 107.568 163.179 108.127 163.406 108.585C163.637 109.04 163.957 109.386 164.366 109.625C164.776 109.86 165.251 109.977 165.793 109.977C166.145 109.977 166.463 109.928 166.747 109.83C167.035 109.727 167.283 109.576 167.491 109.375C167.7 109.17 167.861 108.917 167.974 108.614L169.27 108.977C169.134 109.417 168.904 109.803 168.582 110.136C168.26 110.466 167.863 110.723 167.389 110.909C166.916 111.091 166.384 111.182 165.793 111.182ZM171.446 111V102.273H172.741V103.591H172.832C172.991 103.159 173.279 102.809 173.696 102.54C174.113 102.271 174.582 102.136 175.105 102.136C175.204 102.136 175.327 102.138 175.474 102.142C175.622 102.146 175.734 102.152 175.81 102.159V103.523C175.764 103.511 175.66 103.494 175.497 103.472C175.338 103.445 175.17 103.432 174.991 103.432C174.567 103.432 174.188 103.521 173.855 103.699C173.526 103.873 173.264 104.116 173.071 104.426C172.882 104.733 172.787 105.083 172.787 105.477V111H171.446ZM53.7727 130.182C52.9848 130.182 52.2936 129.994 51.6989 129.619C51.108 129.244 50.6458 128.72 50.3125 128.045C49.983 127.371 49.8182 126.583 49.8182 125.682C49.8182 124.773 49.983 123.979 50.3125 123.301C50.6458 122.623 51.108 122.097 51.6989 121.722C52.2936 121.347 52.9848 121.159 53.7727 121.159C54.5606 121.159 55.25 121.347 55.8409 121.722C56.4356 122.097 56.8977 122.623 57.2273 123.301C57.5606 123.979 57.7273 124.773 57.7273 125.682C57.7273 126.583 57.5606 127.371 57.2273 128.045C56.8977 128.72 56.4356 129.244 55.8409 129.619C55.25 129.994 54.5606 130.182 53.7727 130.182ZM53.7727 128.977C54.3712 128.977 54.8636 128.824 55.25 128.517C55.6364 128.21 55.9223 127.807 56.108 127.307C56.2936 126.807 56.3864 126.265 56.3864 125.682C56.3864 125.098 56.2936 124.555 56.108 124.051C55.9223 123.547 55.6364 123.14 55.25 122.83C54.8636 122.519 54.3712 122.364 53.7727 122.364C53.1742 122.364 52.6818 122.519 52.2955 122.83C51.9091 123.14 51.6231 123.547 51.4375 124.051C51.2519 124.555 51.1591 125.098 51.1591 125.682C51.1591 126.265 51.2519 126.807 51.4375 127.307C51.6231 127.807 51.9091 128.21 52.2955 128.517C52.6818 128.824 53.1742 128.977 53.7727 128.977ZM63.3196 130.182C62.5014 130.182 61.7969 129.989 61.206 129.602C60.6151 129.216 60.1605 128.684 59.8423 128.006C59.5241 127.328 59.3651 126.553 59.3651 125.682C59.3651 124.795 59.5279 124.013 59.8537 123.335C60.1832 122.653 60.6416 122.121 61.2287 121.739C61.8196 121.352 62.509 121.159 63.2969 121.159C63.9105 121.159 64.4635 121.273 64.956 121.5C65.4484 121.727 65.8518 122.045 66.1662 122.455C66.4806 122.864 66.6757 123.341 66.7514 123.886H65.4105C65.3082 123.489 65.081 123.136 64.7287 122.83C64.3802 122.519 63.9105 122.364 63.3196 122.364C62.7969 122.364 62.3385 122.5 61.9446 122.773C61.5545 123.042 61.2495 123.422 61.0298 123.915C60.8139 124.403 60.706 124.977 60.706 125.636C60.706 126.311 60.812 126.898 61.0241 127.398C61.2401 127.898 61.5431 128.286 61.9332 128.562C62.3272 128.839 62.7893 128.977 63.3196 128.977C63.6681 128.977 63.9844 128.917 64.2685 128.795C64.5526 128.674 64.7931 128.5 64.9901 128.273C65.187 128.045 65.3272 127.773 65.4105 127.455H66.7514C66.6757 127.97 66.4882 128.434 66.1889 128.847C65.8935 129.256 65.5014 129.581 65.0128 129.824C64.5279 130.062 63.9635 130.182 63.3196 130.182ZM70.0526 124.75V130H68.7116V118.364H70.0526V122.636H70.1662C70.3707 122.186 70.6776 121.828 71.0866 121.562C71.4995 121.294 72.0488 121.159 72.7344 121.159C73.3291 121.159 73.8499 121.278 74.2969 121.517C74.7438 121.752 75.0904 122.114 75.3366 122.602C75.5866 123.087 75.7116 123.705 75.7116 124.455V130H74.3707V124.545C74.3707 123.852 74.1908 123.316 73.831 122.938C73.4749 122.555 72.9806 122.364 72.348 122.364C71.9086 122.364 71.5147 122.456 71.1662 122.642C70.8215 122.828 70.5488 123.098 70.348 123.455C70.151 123.811 70.0526 124.242 70.0526 124.75ZM86.1875 133.455C85.5398 133.455 84.983 133.371 84.517 133.205C84.0511 133.042 83.6629 132.826 83.3523 132.557C83.0455 132.292 82.8011 132.008 82.6193 131.705L83.6875 130.955C83.8087 131.114 83.9621 131.295 84.1477 131.5C84.3333 131.708 84.5871 131.888 84.9091 132.04C85.2348 132.195 85.661 132.273 86.1875 132.273C86.892 132.273 87.4735 132.102 87.9318 131.761C88.3902 131.42 88.6193 130.886 88.6193 130.159V128.386H88.5057C88.4072 128.545 88.267 128.742 88.0852 128.977C87.9072 129.208 87.6496 129.415 87.3125 129.597C86.9792 129.775 86.5284 129.864 85.9602 129.864C85.2557 129.864 84.6231 129.697 84.0625 129.364C83.5057 129.03 83.0644 128.545 82.7386 127.909C82.4167 127.273 82.2557 126.5 82.2557 125.591C82.2557 124.697 82.4129 123.919 82.7273 123.256C83.0417 122.589 83.4792 122.074 84.0398 121.71C84.6004 121.343 85.2481 121.159 85.983 121.159C86.5511 121.159 87.0019 121.254 87.3352 121.443C87.6723 121.629 87.9299 121.841 88.108 122.08C88.2898 122.314 88.4299 122.508 88.5284 122.659H88.6648V121.273H89.9602V130.25C89.9602 131 89.7898 131.61 89.4489 132.08C89.1117 132.553 88.6572 132.9 88.0852 133.119C87.517 133.343 86.8845 133.455 86.1875 133.455ZM86.142 128.659C86.6799 128.659 87.1345 128.536 87.5057 128.29C87.8769 128.044 88.1591 127.689 88.3523 127.227C88.5455 126.765 88.642 126.212 88.642 125.568C88.642 124.939 88.5473 124.384 88.358 123.903C88.1686 123.422 87.8883 123.045 87.517 122.773C87.1458 122.5 86.6875 122.364 86.142 122.364C85.5739 122.364 85.1004 122.508 84.7216 122.795C84.3466 123.083 84.0644 123.47 83.875 123.955C83.6894 124.439 83.5966 124.977 83.5966 125.568C83.5966 126.174 83.6913 126.71 83.8807 127.176C84.0739 127.638 84.358 128.002 84.733 128.267C85.1117 128.528 85.5814 128.659 86.142 128.659ZM96.0739 130.182C95.233 130.182 94.5076 129.996 93.8977 129.625C93.2917 129.25 92.8239 128.727 92.4943 128.057C92.1686 127.383 92.0057 126.598 92.0057 125.705C92.0057 124.811 92.1686 124.023 92.4943 123.341C92.8239 122.655 93.2822 122.121 93.8693 121.739C94.4602 121.352 95.1496 121.159 95.9375 121.159C96.392 121.159 96.8409 121.235 97.2841 121.386C97.7273 121.538 98.1307 121.784 98.4943 122.125C98.858 122.462 99.1477 122.909 99.3636 123.466C99.5795 124.023 99.6875 124.708 99.6875 125.523V126.091H92.9602V124.932H98.3239C98.3239 124.439 98.2254 124 98.0284 123.614C97.8352 123.227 97.5587 122.922 97.1989 122.699C96.8428 122.475 96.4223 122.364 95.9375 122.364C95.4034 122.364 94.9413 122.496 94.5511 122.761C94.1648 123.023 93.8674 123.364 93.6591 123.784C93.4508 124.205 93.3466 124.655 93.3466 125.136V125.909C93.3466 126.568 93.4602 127.127 93.6875 127.585C93.9186 128.04 94.2386 128.386 94.6477 128.625C95.0568 128.86 95.5322 128.977 96.0739 128.977C96.4261 128.977 96.7443 128.928 97.0284 128.83C97.3163 128.727 97.5644 128.576 97.7727 128.375C97.9811 128.17 98.142 127.917 98.2557 127.614L99.5511 127.977C99.4148 128.417 99.1856 128.803 98.8636 129.136C98.5417 129.466 98.1439 129.723 97.6705 129.909C97.197 130.091 96.6648 130.182 96.0739 130.182ZM103.068 124.75V130H101.727V121.273H103.023V122.636H103.136C103.341 122.193 103.652 121.837 104.068 121.568C104.485 121.295 105.023 121.159 105.682 121.159C106.273 121.159 106.79 121.28 107.233 121.523C107.676 121.761 108.021 122.125 108.267 122.614C108.513 123.098 108.636 123.712 108.636 124.455V130H107.295V124.545C107.295 123.86 107.117 123.326 106.761 122.943C106.405 122.557 105.917 122.364 105.295 122.364C104.867 122.364 104.485 122.456 104.148 122.642C103.814 122.828 103.551 123.098 103.358 123.455C103.165 123.811 103.068 124.242 103.068 124.75ZM114.632 130.182C113.844 130.182 113.153 129.994 112.558 129.619C111.967 129.244 111.505 128.72 111.172 128.045C110.842 127.371 110.678 126.583 110.678 125.682C110.678 124.773 110.842 123.979 111.172 123.301C111.505 122.623 111.967 122.097 112.558 121.722C113.153 121.347 113.844 121.159 114.632 121.159C115.42 121.159 116.109 121.347 116.7 121.722C117.295 122.097 117.757 122.623 118.087 123.301C118.42 123.979 118.587 124.773 118.587 125.682C118.587 126.583 118.42 127.371 118.087 128.045C117.757 128.72 117.295 129.244 116.7 129.619C116.109 129.994 115.42 130.182 114.632 130.182ZM114.632 128.977C115.231 128.977 115.723 128.824 116.109 128.517C116.496 128.21 116.782 127.807 116.967 127.307C117.153 126.807 117.246 126.265 117.246 125.682C117.246 125.098 117.153 124.555 116.967 124.051C116.782 123.547 116.496 123.14 116.109 122.83C115.723 122.519 115.231 122.364 114.632 122.364C114.034 122.364 113.541 122.519 113.155 122.83C112.768 123.14 112.482 123.547 112.297 124.051C112.111 124.555 112.018 125.098 112.018 125.682C112.018 126.265 112.111 126.807 112.297 127.307C112.482 127.807 112.768 128.21 113.155 128.517C113.541 128.824 114.034 128.977 114.632 128.977ZM124.429 121.273V122.409H119.906V121.273H124.429ZM121.224 119.182H122.565V127.5C122.565 127.879 122.62 128.163 122.73 128.352C122.844 128.538 122.988 128.663 123.162 128.727C123.34 128.788 123.527 128.818 123.724 128.818C123.872 128.818 123.993 128.811 124.088 128.795C124.183 128.777 124.259 128.761 124.315 128.75L124.588 129.955C124.497 129.989 124.37 130.023 124.207 130.057C124.045 130.095 123.838 130.114 123.588 130.114C123.209 130.114 122.838 130.032 122.474 129.869C122.115 129.706 121.815 129.458 121.577 129.125C121.342 128.792 121.224 128.371 121.224 127.864V119.182ZM127.31 133.273C127.082 133.273 126.88 133.254 126.702 133.216C126.524 133.182 126.401 133.148 126.332 133.114L126.673 131.932C126.999 132.015 127.287 132.045 127.537 132.023C127.787 132 128.009 131.888 128.202 131.688C128.399 131.491 128.579 131.17 128.741 130.727L128.991 130.045L125.764 121.273H127.219L129.628 128.227H129.719L132.128 121.273H133.582L129.878 131.273C129.711 131.723 129.505 132.097 129.259 132.392C129.012 132.691 128.726 132.913 128.401 133.057C128.079 133.201 127.715 133.273 127.31 133.273ZM135.352 133.273V121.273H136.648V122.659H136.807C136.905 122.508 137.042 122.314 137.216 122.08C137.394 121.841 137.648 121.629 137.977 121.443C138.311 121.254 138.761 121.159 139.33 121.159C140.064 121.159 140.712 121.343 141.273 121.71C141.833 122.078 142.271 122.598 142.585 123.273C142.9 123.947 143.057 124.742 143.057 125.659C143.057 126.583 142.9 127.384 142.585 128.062C142.271 128.737 141.835 129.259 141.278 129.631C140.722 129.998 140.08 130.182 139.352 130.182C138.792 130.182 138.343 130.089 138.006 129.903C137.669 129.714 137.409 129.5 137.227 129.261C137.045 129.019 136.905 128.818 136.807 128.659H136.693V133.273H135.352ZM136.67 125.636C136.67 126.295 136.767 126.877 136.96 127.381C137.153 127.881 137.436 128.273 137.807 128.557C138.178 128.837 138.633 128.977 139.17 128.977C139.731 128.977 140.199 128.83 140.574 128.534C140.953 128.235 141.237 127.833 141.426 127.33C141.619 126.822 141.716 126.258 141.716 125.636C141.716 125.023 141.621 124.47 141.432 123.977C141.246 123.481 140.964 123.089 140.585 122.801C140.21 122.509 139.739 122.364 139.17 122.364C138.625 122.364 138.167 122.502 137.795 122.778C137.424 123.051 137.144 123.434 136.955 123.926C136.765 124.415 136.67 124.985 136.67 125.636ZM148.761 130.182C147.92 130.182 147.195 129.996 146.585 129.625C145.979 129.25 145.511 128.727 145.182 128.057C144.856 127.383 144.693 126.598 144.693 125.705C144.693 124.811 144.856 124.023 145.182 123.341C145.511 122.655 145.97 122.121 146.557 121.739C147.148 121.352 147.837 121.159 148.625 121.159C149.08 121.159 149.528 121.235 149.972 121.386C150.415 121.538 150.818 121.784 151.182 122.125C151.545 122.462 151.835 122.909 152.051 123.466C152.267 124.023 152.375 124.708 152.375 125.523V126.091H145.648V124.932H151.011C151.011 124.439 150.913 124 150.716 123.614C150.523 123.227 150.246 122.922 149.886 122.699C149.53 122.475 149.11 122.364 148.625 122.364C148.091 122.364 147.629 122.496 147.239 122.761C146.852 123.023 146.555 123.364 146.347 123.784C146.138 124.205 146.034 124.655 146.034 125.136V125.909C146.034 126.568 146.148 127.127 146.375 127.585C146.606 128.04 146.926 128.386 147.335 128.625C147.744 128.86 148.22 128.977 148.761 128.977C149.114 128.977 149.432 128.928 149.716 128.83C150.004 128.727 150.252 128.576 150.46 128.375C150.669 128.17 150.83 127.917 150.943 127.614L152.239 127.977C152.102 128.417 151.873 128.803 151.551 129.136C151.229 129.466 150.831 129.723 150.358 129.909C149.884 130.091 149.352 130.182 148.761 130.182ZM154.415 130V121.273H155.71V122.591H155.801C155.96 122.159 156.248 121.809 156.665 121.54C157.081 121.271 157.551 121.136 158.074 121.136C158.172 121.136 158.295 121.138 158.443 121.142C158.591 121.146 158.703 121.152 158.778 121.159V122.523C158.733 122.511 158.629 122.494 158.466 122.472C158.307 122.445 158.138 122.432 157.96 122.432C157.536 122.432 157.157 122.521 156.824 122.699C156.494 122.873 156.233 123.116 156.04 123.426C155.85 123.733 155.756 124.083 155.756 124.477V130H154.415Z" fill="#193123"/>
</svg>
