<svg width="214" height="202" viewBox="0 0 214 202" fill="none" xmlns="http://www.w3.org/2000/svg">
<path d="M27.8534 91.8675C28.3562 90.5542 28.9293 89.305 29.5479 88.0977C30.718 84.3863 31.6681 80.4011 32.0431 76.8433C32.7474 70.1626 40.7462 60.4271 44.718 56.5845C49.8056 51.6624 56.2691 47.3169 62.5615 44.556C66.4595 42.8457 70.6539 42.4888 74.9546 42.5729C81.218 42.6955 87.7068 43.7535 93.8338 42.9286C107.236 41.1243 120.682 40.2373 133.827 37.5589C143.815 35.5236 155.12 35.5605 165.906 40.3646C184.489 48.6415 196.898 71.8067 204.007 92.9352C208.269 105.602 212.66 125.83 208.256 136.339C204.791 144.61 204.683 152.892 198.131 158.587C193.494 162.617 189.714 165.639 184.098 168.104C165.019 176.475 144.913 181.599 125.569 189.249C113.696 193.945 100.978 196.377 87.4425 194.64C82.014 193.943 76.6193 192.714 71.2194 191.932C66.6111 191.264 61.268 185.737 56.612 183.895C45.2558 179.404 36.5931 151.103 31.6191 139.767C24.3364 123.169 22.5558 105.704 27.8534 91.8675Z" fill="#D9D9D9" fill-opacity="0.94"/>
<path d="M52.4091 118V106.364H56.4773C57.2879 106.364 57.9564 106.504 58.483 106.784C59.0095 107.061 59.4015 107.434 59.6591 107.903C59.9167 108.369 60.0455 108.886 60.0455 109.455C60.0455 109.955 59.9564 110.367 59.7784 110.693C59.6042 111.019 59.3731 111.277 59.0852 111.466C58.8011 111.655 58.4924 111.795 58.1591 111.886V112C58.5152 112.023 58.8731 112.148 59.233 112.375C59.5928 112.602 59.8939 112.928 60.1364 113.352C60.3788 113.777 60.5 114.295 60.5 114.909C60.5 115.492 60.3674 116.017 60.1023 116.483C59.8371 116.949 59.4186 117.318 58.8466 117.591C58.2746 117.864 57.5303 118 56.6136 118H52.4091ZM53.8182 116.75H56.6136C57.5341 116.75 58.1875 116.572 58.5739 116.216C58.964 115.856 59.1591 115.42 59.1591 114.909C59.1591 114.515 59.0587 114.152 58.858 113.818C58.6572 113.481 58.3712 113.212 58 113.011C57.6288 112.807 57.1894 112.705 56.6818 112.705H53.8182V116.75ZM53.8182 111.477H56.4318C56.8561 111.477 57.2386 111.394 57.5795 111.227C57.9242 111.061 58.197 110.826 58.3977 110.523C58.6023 110.22 58.7045 109.864 58.7045 109.455C58.7045 108.943 58.5265 108.509 58.1705 108.153C57.8144 107.794 57.25 107.614 56.4773 107.614H53.8182V111.477ZM62.6335 118V109.273H63.9744V118H62.6335ZM63.3153 107.818C63.054 107.818 62.8286 107.729 62.6392 107.551C62.4536 107.373 62.3608 107.159 62.3608 106.909C62.3608 106.659 62.4536 106.445 62.6392 106.267C62.8286 106.089 63.054 106 63.3153 106C63.5767 106 63.8002 106.089 63.9858 106.267C64.1752 106.445 64.2699 106.659 64.2699 106.909C64.2699 107.159 64.1752 107.373 63.9858 107.551C63.8002 107.729 63.5767 107.818 63.3153 107.818ZM69.9759 118.182C69.188 118.182 68.4967 117.994 67.902 117.619C67.3111 117.244 66.849 116.72 66.5156 116.045C66.1861 115.371 66.0213 114.583 66.0213 113.682C66.0213 112.773 66.1861 111.979 66.5156 111.301C66.849 110.623 67.3111 110.097 67.902 109.722C68.4967 109.347 69.188 109.159 69.9759 109.159C70.7637 109.159 71.4531 109.347 72.044 109.722C72.6387 110.097 73.1009 110.623 73.4304 111.301C73.7637 111.979 73.9304 112.773 73.9304 113.682C73.9304 114.583 73.7637 115.371 73.4304 116.045C73.1009 116.72 72.6387 117.244 72.044 117.619C71.4531 117.994 70.7637 118.182 69.9759 118.182ZM69.9759 116.977C70.5743 116.977 71.0668 116.824 71.4531 116.517C71.8395 116.21 72.1255 115.807 72.3111 115.307C72.4967 114.807 72.5895 114.265 72.5895 113.682C72.5895 113.098 72.4967 112.555 72.3111 112.051C72.1255 111.547 71.8395 111.14 71.4531 110.83C71.0668 110.519 70.5743 110.364 69.9759 110.364C69.3774 110.364 68.8849 110.519 68.4986 110.83C68.1122 111.14 67.8262 111.547 67.6406 112.051C67.455 112.555 67.3622 113.098 67.3622 113.682C67.3622 114.265 67.455 114.807 67.6406 115.307C67.8262 115.807 68.1122 116.21 68.4986 116.517C68.8849 116.824 69.3774 116.977 69.9759 116.977ZM79.7727 109.273V110.409H75.25V109.273H79.7727ZM76.5682 107.182H77.9091V115.5C77.9091 115.879 77.964 116.163 78.0739 116.352C78.1875 116.538 78.3314 116.663 78.5057 116.727C78.6837 116.788 78.8712 116.818 79.0682 116.818C79.2159 116.818 79.3371 116.811 79.4318 116.795C79.5265 116.777 79.6023 116.761 79.6591 116.75L79.9318 117.955C79.8409 117.989 79.714 118.023 79.5511 118.057C79.3883 118.095 79.1818 118.114 78.9318 118.114C78.553 118.114 78.1818 118.032 77.8182 117.869C77.4583 117.706 77.1591 117.458 76.9205 117.125C76.6856 116.792 76.5682 116.371 76.5682 115.864V107.182ZM85.2415 118.182C84.4536 118.182 83.7623 117.994 83.1676 117.619C82.5767 117.244 82.1146 116.72 81.7812 116.045C81.4517 115.371 81.2869 114.583 81.2869 113.682C81.2869 112.773 81.4517 111.979 81.7812 111.301C82.1146 110.623 82.5767 110.097 83.1676 109.722C83.7623 109.347 84.4536 109.159 85.2415 109.159C86.0294 109.159 86.7188 109.347 87.3097 109.722C87.9044 110.097 88.3665 110.623 88.696 111.301C89.0294 111.979 89.196 112.773 89.196 113.682C89.196 114.583 89.0294 115.371 88.696 116.045C88.3665 116.72 87.9044 117.244 87.3097 117.619C86.7188 117.994 86.0294 118.182 85.2415 118.182ZM85.2415 116.977C85.84 116.977 86.3324 116.824 86.7188 116.517C87.1051 116.21 87.3911 115.807 87.5767 115.307C87.7623 114.807 87.8551 114.265 87.8551 113.682C87.8551 113.098 87.7623 112.555 87.5767 112.051C87.3911 111.547 87.1051 111.14 86.7188 110.83C86.3324 110.519 85.84 110.364 85.2415 110.364C84.643 110.364 84.1506 110.519 83.7642 110.83C83.3778 111.14 83.0919 111.547 82.9062 112.051C82.7206 112.555 82.6278 113.098 82.6278 113.682C82.6278 114.265 82.7206 114.807 82.9062 115.307C83.0919 115.807 83.3778 116.21 83.7642 116.517C84.1506 116.824 84.643 116.977 85.2415 116.977ZM91.2429 121.273V109.273H92.5384V110.659H92.6974C92.7959 110.508 92.9323 110.314 93.1065 110.08C93.2846 109.841 93.5384 109.629 93.8679 109.443C94.2012 109.254 94.652 109.159 95.2202 109.159C95.955 109.159 96.6027 109.343 97.1634 109.71C97.724 110.078 98.1615 110.598 98.4759 111.273C98.7902 111.947 98.9474 112.742 98.9474 113.659C98.9474 114.583 98.7902 115.384 98.4759 116.062C98.1615 116.737 97.7259 117.259 97.169 117.631C96.6122 117.998 95.9702 118.182 95.2429 118.182C94.6823 118.182 94.2334 118.089 93.8963 117.903C93.5592 117.714 93.2997 117.5 93.1179 117.261C92.9361 117.019 92.7959 116.818 92.6974 116.659H92.5838V121.273H91.2429ZM92.5611 113.636C92.5611 114.295 92.6577 114.877 92.8509 115.381C93.044 115.881 93.3262 116.273 93.6974 116.557C94.0687 116.837 94.5232 116.977 95.0611 116.977C95.6217 116.977 96.0895 116.83 96.4645 116.534C96.8433 116.235 97.1274 115.833 97.3168 115.33C97.5099 114.822 97.6065 114.258 97.6065 113.636C97.6065 113.023 97.5118 112.47 97.3224 111.977C97.1368 111.481 96.8546 111.089 96.4759 110.801C96.1009 110.509 95.6293 110.364 95.0611 110.364C94.5156 110.364 94.0573 110.502 93.6861 110.778C93.3149 111.051 93.0346 111.434 92.8452 111.926C92.6558 112.415 92.5611 112.985 92.5611 113.636ZM104.879 109.273V110.409H100.175V109.273H104.879ZM101.584 118V108.068C101.584 107.568 101.701 107.152 101.936 106.818C102.171 106.485 102.476 106.235 102.851 106.068C103.226 105.902 103.622 105.818 104.038 105.818C104.368 105.818 104.637 105.845 104.845 105.898C105.054 105.951 105.209 106 105.311 106.045L104.925 107.205C104.857 107.182 104.762 107.153 104.641 107.119C104.523 107.085 104.368 107.068 104.175 107.068C103.732 107.068 103.411 107.18 103.214 107.403C103.021 107.627 102.925 107.955 102.925 108.386V118H101.584ZM109.945 118.182C109.157 118.182 108.465 117.994 107.871 117.619C107.28 117.244 106.818 116.72 106.484 116.045C106.155 115.371 105.99 114.583 105.99 113.682C105.99 112.773 106.155 111.979 106.484 111.301C106.818 110.623 107.28 110.097 107.871 109.722C108.465 109.347 109.157 109.159 109.945 109.159C110.732 109.159 111.422 109.347 112.013 109.722C112.607 110.097 113.07 110.623 113.399 111.301C113.732 111.979 113.899 112.773 113.899 113.682C113.899 114.583 113.732 115.371 113.399 116.045C113.07 116.72 112.607 117.244 112.013 117.619C111.422 117.994 110.732 118.182 109.945 118.182ZM109.945 116.977C110.543 116.977 111.036 116.824 111.422 116.517C111.808 116.21 112.094 115.807 112.28 115.307C112.465 114.807 112.558 114.265 112.558 113.682C112.558 113.098 112.465 112.555 112.28 112.051C112.094 111.547 111.808 111.14 111.422 110.83C111.036 110.519 110.543 110.364 109.945 110.364C109.346 110.364 108.854 110.519 108.467 110.83C108.081 111.14 107.795 111.547 107.609 112.051C107.424 112.555 107.331 113.098 107.331 113.682C107.331 114.265 107.424 114.807 107.609 115.307C107.795 115.807 108.081 116.21 108.467 116.517C108.854 116.824 109.346 116.977 109.945 116.977ZM108.308 107.818C108.07 107.818 107.857 107.727 107.672 107.545C107.49 107.36 107.399 107.148 107.399 106.909C107.399 106.648 107.49 106.432 107.672 106.261C107.857 106.087 108.07 106 108.308 106C108.57 106 108.786 106.087 108.956 106.261C109.13 106.432 109.217 106.648 109.217 106.909C109.217 107.148 109.13 107.36 108.956 107.545C108.786 107.727 108.57 107.818 108.308 107.818ZM111.581 107.818C111.342 107.818 111.13 107.727 110.945 107.545C110.763 107.36 110.672 107.148 110.672 106.909C110.672 106.648 110.763 106.432 110.945 106.261C111.13 106.087 111.342 106 111.581 106C111.842 106 112.058 106.087 112.229 106.261C112.403 106.432 112.49 106.648 112.49 106.909C112.49 107.148 112.403 107.36 112.229 107.545C112.058 107.727 111.842 107.818 111.581 107.818ZM115.946 118V109.273H117.241V110.591H117.332C117.491 110.159 117.779 109.809 118.196 109.54C118.613 109.271 119.082 109.136 119.605 109.136C119.704 109.136 119.827 109.138 119.974 109.142C120.122 109.146 120.234 109.152 120.31 109.159V110.523C120.264 110.511 120.16 110.494 119.997 110.472C119.838 110.445 119.67 110.432 119.491 110.432C119.067 110.432 118.688 110.521 118.355 110.699C118.026 110.873 117.764 111.116 117.571 111.426C117.382 111.733 117.287 112.083 117.287 112.477V118H115.946ZM128.081 111.227L126.876 111.568C126.801 111.367 126.689 111.172 126.541 110.983C126.397 110.79 126.2 110.631 125.95 110.506C125.7 110.381 125.38 110.318 124.99 110.318C124.456 110.318 124.011 110.441 123.655 110.688C123.303 110.93 123.126 111.239 123.126 111.614C123.126 111.947 123.248 112.21 123.49 112.403C123.732 112.597 124.111 112.758 124.626 112.886L125.922 113.205C126.702 113.394 127.284 113.684 127.666 114.074C128.049 114.46 128.24 114.958 128.24 115.568C128.24 116.068 128.096 116.515 127.808 116.909C127.524 117.303 127.126 117.614 126.615 117.841C126.104 118.068 125.509 118.182 124.831 118.182C123.941 118.182 123.204 117.989 122.621 117.602C122.037 117.216 121.668 116.652 121.513 115.909L122.786 115.591C122.907 116.061 123.136 116.413 123.473 116.648C123.814 116.883 124.259 117 124.808 117C125.433 117 125.929 116.867 126.297 116.602C126.668 116.333 126.854 116.011 126.854 115.636C126.854 115.333 126.748 115.08 126.536 114.875C126.323 114.667 125.998 114.511 125.558 114.409L124.104 114.068C123.304 113.879 122.717 113.585 122.342 113.188C121.971 112.786 121.786 112.284 121.786 111.682C121.786 111.189 121.924 110.754 122.2 110.375C122.481 109.996 122.861 109.699 123.342 109.483C123.827 109.267 124.376 109.159 124.99 109.159C125.854 109.159 126.532 109.348 127.024 109.727C127.52 110.106 127.873 110.606 128.081 111.227ZM134.054 109.273V110.409H129.531V109.273H134.054ZM130.849 107.182H132.19V115.5C132.19 115.879 132.245 116.163 132.355 116.352C132.469 116.538 132.613 116.663 132.787 116.727C132.965 116.788 133.152 116.818 133.349 116.818C133.497 116.818 133.618 116.811 133.713 116.795C133.808 116.777 133.884 116.761 133.94 116.75L134.213 117.955C134.122 117.989 133.995 118.023 133.832 118.057C133.67 118.095 133.463 118.114 133.213 118.114C132.834 118.114 132.463 118.032 132.099 117.869C131.74 117.706 131.44 117.458 131.202 117.125C130.967 116.792 130.849 116.371 130.849 115.864V107.182ZM139.523 118.182C138.735 118.182 138.044 117.994 137.449 117.619C136.858 117.244 136.396 116.72 136.062 116.045C135.733 115.371 135.568 114.583 135.568 113.682C135.568 112.773 135.733 111.979 136.062 111.301C136.396 110.623 136.858 110.097 137.449 109.722C138.044 109.347 138.735 109.159 139.523 109.159C140.311 109.159 141 109.347 141.591 109.722C142.186 110.097 142.648 110.623 142.977 111.301C143.311 111.979 143.477 112.773 143.477 113.682C143.477 114.583 143.311 115.371 142.977 116.045C142.648 116.72 142.186 117.244 141.591 117.619C141 117.994 140.311 118.182 139.523 118.182ZM139.523 116.977C140.121 116.977 140.614 116.824 141 116.517C141.386 116.21 141.672 115.807 141.858 115.307C142.044 114.807 142.136 114.265 142.136 113.682C142.136 113.098 142.044 112.555 141.858 112.051C141.672 111.547 141.386 111.14 141 110.83C140.614 110.519 140.121 110.364 139.523 110.364C138.924 110.364 138.432 110.519 138.045 110.83C137.659 111.14 137.373 111.547 137.188 112.051C137.002 112.555 136.909 113.098 136.909 113.682C136.909 114.265 137.002 114.807 137.188 115.307C137.373 115.807 137.659 116.21 138.045 116.517C138.432 116.824 138.924 116.977 139.523 116.977ZM137.886 107.818C137.648 107.818 137.436 107.727 137.25 107.545C137.068 107.36 136.977 107.148 136.977 106.909C136.977 106.648 137.068 106.432 137.25 106.261C137.436 106.087 137.648 106 137.886 106C138.148 106 138.364 106.087 138.534 106.261C138.708 106.432 138.795 106.648 138.795 106.909C138.795 107.148 138.708 107.36 138.534 107.545C138.364 107.727 138.148 107.818 137.886 107.818ZM141.159 107.818C140.92 107.818 140.708 107.727 140.523 107.545C140.341 107.36 140.25 107.148 140.25 106.909C140.25 106.648 140.341 106.432 140.523 106.261C140.708 106.087 140.92 106 141.159 106C141.42 106 141.636 106.087 141.807 106.261C141.981 106.432 142.068 106.648 142.068 106.909C142.068 107.148 141.981 107.36 141.807 107.545C141.636 107.727 141.42 107.818 141.159 107.818ZM145.524 118V109.273H146.82V110.591H146.911C147.07 110.159 147.357 109.809 147.774 109.54C148.191 109.271 148.661 109.136 149.183 109.136C149.282 109.136 149.405 109.138 149.553 109.142C149.7 109.146 149.812 109.152 149.888 109.159V110.523C149.842 110.511 149.738 110.494 149.575 110.472C149.416 110.445 149.248 110.432 149.07 110.432C148.645 110.432 148.267 110.521 147.933 110.699C147.604 110.873 147.342 111.116 147.149 111.426C146.96 111.733 146.865 112.083 146.865 112.477V118H145.524ZM154.871 118.182C154.03 118.182 153.304 117.996 152.695 117.625C152.089 117.25 151.621 116.727 151.291 116.057C150.965 115.383 150.803 114.598 150.803 113.705C150.803 112.811 150.965 112.023 151.291 111.341C151.621 110.655 152.079 110.121 152.666 109.739C153.257 109.352 153.946 109.159 154.734 109.159C155.189 109.159 155.638 109.235 156.081 109.386C156.524 109.538 156.928 109.784 157.291 110.125C157.655 110.462 157.945 110.909 158.161 111.466C158.376 112.023 158.484 112.708 158.484 113.523V114.091H151.757V112.932H157.121C157.121 112.439 157.022 112 156.825 111.614C156.632 111.227 156.356 110.922 155.996 110.699C155.64 110.475 155.219 110.364 154.734 110.364C154.2 110.364 153.738 110.496 153.348 110.761C152.962 111.023 152.664 111.364 152.456 111.784C152.248 112.205 152.143 112.655 152.143 113.136V113.909C152.143 114.568 152.257 115.127 152.484 115.585C152.715 116.04 153.036 116.386 153.445 116.625C153.854 116.86 154.329 116.977 154.871 116.977C155.223 116.977 155.541 116.928 155.825 116.83C156.113 116.727 156.361 116.576 156.57 116.375C156.778 116.17 156.939 115.917 157.053 115.614L158.348 115.977C158.212 116.417 157.982 116.803 157.661 117.136C157.339 117.466 156.941 117.723 156.467 117.909C155.994 118.091 155.462 118.182 154.871 118.182ZM161.865 106.364V118H160.524V106.364H161.865ZM170.503 111.227L169.298 111.568C169.223 111.367 169.111 111.172 168.963 110.983C168.819 110.79 168.622 110.631 168.372 110.506C168.122 110.381 167.802 110.318 167.412 110.318C166.878 110.318 166.433 110.441 166.077 110.688C165.724 110.93 165.548 111.239 165.548 111.614C165.548 111.947 165.67 112.21 165.912 112.403C166.154 112.597 166.533 112.758 167.048 112.886L168.344 113.205C169.124 113.394 169.705 113.684 170.088 114.074C170.471 114.46 170.662 114.958 170.662 115.568C170.662 116.068 170.518 116.515 170.23 116.909C169.946 117.303 169.548 117.614 169.037 117.841C168.526 118.068 167.931 118.182 167.253 118.182C166.363 118.182 165.626 117.989 165.043 117.602C164.459 117.216 164.09 116.652 163.935 115.909L165.207 115.591C165.329 116.061 165.558 116.413 165.895 116.648C166.236 116.883 166.681 117 167.23 117C167.855 117 168.351 116.867 168.719 116.602C169.09 116.333 169.276 116.011 169.276 115.636C169.276 115.333 169.17 115.08 168.957 114.875C168.745 114.667 168.42 114.511 167.98 114.409L166.526 114.068C165.726 113.879 165.139 113.585 164.764 113.188C164.393 112.786 164.207 112.284 164.207 111.682C164.207 111.189 164.346 110.754 164.622 110.375C164.902 109.996 165.283 109.699 165.764 109.483C166.249 109.267 166.798 109.159 167.412 109.159C168.276 109.159 168.954 109.348 169.446 109.727C169.942 110.106 170.295 110.606 170.503 111.227ZM176.339 118.182C175.499 118.182 174.773 117.996 174.163 117.625C173.557 117.25 173.089 116.727 172.76 116.057C172.434 115.383 172.271 114.598 172.271 113.705C172.271 112.811 172.434 112.023 172.76 111.341C173.089 110.655 173.548 110.121 174.135 109.739C174.726 109.352 175.415 109.159 176.203 109.159C176.658 109.159 177.107 109.235 177.55 109.386C177.993 109.538 178.396 109.784 178.76 110.125C179.124 110.462 179.413 110.909 179.629 111.466C179.845 112.023 179.953 112.708 179.953 113.523V114.091H173.226V112.932H178.589C178.589 112.439 178.491 112 178.294 111.614C178.101 111.227 177.824 110.922 177.464 110.699C177.108 110.475 176.688 110.364 176.203 110.364C175.669 110.364 175.207 110.496 174.817 110.761C174.43 111.023 174.133 111.364 173.925 111.784C173.716 112.205 173.612 112.655 173.612 113.136V113.909C173.612 114.568 173.726 115.127 173.953 115.585C174.184 116.04 174.504 116.386 174.913 116.625C175.322 116.86 175.798 116.977 176.339 116.977C176.692 116.977 177.01 116.928 177.294 116.83C177.582 116.727 177.83 116.576 178.038 116.375C178.247 116.17 178.408 115.917 178.521 115.614L179.817 115.977C179.68 116.417 179.451 116.803 179.129 117.136C178.807 117.466 178.41 117.723 177.936 117.909C177.463 118.091 176.93 118.182 176.339 118.182Z" fill="#193123"/>
</svg>
