<svg width="232" height="222" viewBox="0 0 232 222" fill="none" xmlns="http://www.w3.org/2000/svg">
<path d="M190.462 183.889C189.165 184.926 187.837 185.853 186.491 186.709C183.07 189.796 179.699 193.301 177.155 196.727C172.378 203.159 158.557 208.18 152.301 209.653C144.287 211.54 135.273 211.976 127.395 210.888C122.515 210.215 118.171 207.964 113.992 205.193C107.906 201.158 102.17 196.02 95.6383 193.045C81.3519 186.536 67.5826 179.056 53.0154 173.608C41.946 169.467 30.8478 162.374 23.1753 150.701C9.95662 130.59 11.9125 99.0187 17.8375 72.8506C21.3897 57.1623 29.4375 33.6169 40.1946 25.5562C48.6606 19.2123 53.8294 10.7612 63.7564 8.99298C70.7821 7.74155 76.3476 6.99231 83.3795 7.96303C107.265 11.2603 130.175 18.5382 153.88 22.7427C168.43 25.3235 182.427 30.7593 194.68 40.9936C199.594 45.0979 204.149 49.7297 208.983 53.904C213.108 57.4665 214.984 66.4862 218.438 71.2863C226.863 82.9938 218.081 117.508 216.043 132.272C213.059 153.889 204.133 172.963 190.462 183.889Z" fill="#D9D9D9"/>
<path d="M96.5185 163V151.364H97.9276V157.136H98.0639L103.291 151.364H105.132L100.246 156.614L105.132 163H103.428L99.3821 157.591L97.9276 159.227V163H96.5185ZM109.342 163.205C108.789 163.205 108.287 163.1 107.837 162.892C107.386 162.68 107.028 162.375 106.763 161.977C106.498 161.576 106.365 161.091 106.365 160.523C106.365 160.023 106.464 159.617 106.661 159.307C106.857 158.992 107.121 158.746 107.45 158.568C107.78 158.39 108.143 158.258 108.541 158.17C108.943 158.08 109.346 158.008 109.751 157.955C110.282 157.886 110.712 157.835 111.041 157.801C111.375 157.763 111.617 157.701 111.768 157.614C111.924 157.527 112.001 157.375 112.001 157.159V157.114C112.001 156.553 111.848 156.117 111.541 155.807C111.238 155.496 110.778 155.341 110.161 155.341C109.52 155.341 109.018 155.481 108.655 155.761C108.291 156.042 108.036 156.341 107.888 156.659L106.615 156.205C106.842 155.674 107.145 155.261 107.524 154.966C107.907 154.667 108.323 154.458 108.774 154.341C109.229 154.22 109.676 154.159 110.115 154.159C110.395 154.159 110.717 154.193 111.081 154.261C111.448 154.326 111.803 154.46 112.143 154.665C112.488 154.869 112.774 155.178 113.001 155.591C113.229 156.004 113.342 156.557 113.342 157.25V163H112.001V161.818H111.933C111.842 162.008 111.691 162.21 111.479 162.426C111.267 162.642 110.984 162.826 110.632 162.977C110.28 163.129 109.85 163.205 109.342 163.205ZM109.547 162C110.077 162 110.524 161.896 110.888 161.688C111.255 161.479 111.532 161.21 111.717 160.881C111.907 160.551 112.001 160.205 112.001 159.841V158.614C111.945 158.682 111.82 158.744 111.626 158.801C111.437 158.854 111.217 158.902 110.967 158.943C110.721 158.981 110.481 159.015 110.246 159.045C110.015 159.072 109.827 159.095 109.683 159.114C109.335 159.159 109.009 159.233 108.706 159.335C108.407 159.434 108.164 159.583 107.979 159.784C107.797 159.981 107.706 160.25 107.706 160.591C107.706 161.057 107.878 161.409 108.223 161.648C108.571 161.883 109.013 162 109.547 162ZM115.79 163V154.273H117.085V155.591H117.176C117.335 155.159 117.623 154.809 118.04 154.54C118.456 154.271 118.926 154.136 119.449 154.136C119.547 154.136 119.67 154.138 119.818 154.142C119.966 154.146 120.078 154.152 120.153 154.159V155.523C120.108 155.511 120.004 155.494 119.841 155.472C119.682 155.445 119.513 155.432 119.335 155.432C118.911 155.432 118.532 155.521 118.199 155.699C117.869 155.873 117.608 156.116 117.415 156.426C117.225 156.733 117.131 157.083 117.131 157.477V163H115.79ZM126.085 154.273V155.409H121.562V154.273H126.085ZM122.881 152.182H124.222V160.5C124.222 160.879 124.277 161.163 124.386 161.352C124.5 161.538 124.644 161.663 124.818 161.727C124.996 161.788 125.184 161.818 125.381 161.818C125.528 161.818 125.65 161.811 125.744 161.795C125.839 161.777 125.915 161.761 125.972 161.75L126.244 162.955C126.153 162.989 126.027 163.023 125.864 163.057C125.701 163.095 125.494 163.114 125.244 163.114C124.866 163.114 124.494 163.032 124.131 162.869C123.771 162.706 123.472 162.458 123.233 162.125C122.998 161.792 122.881 161.371 122.881 160.864V152.182ZM130.67 163.205C130.117 163.205 129.616 163.1 129.165 162.892C128.714 162.68 128.356 162.375 128.091 161.977C127.826 161.576 127.693 161.091 127.693 160.523C127.693 160.023 127.792 159.617 127.989 159.307C128.186 158.992 128.449 158.746 128.778 158.568C129.108 158.39 129.472 158.258 129.869 158.17C130.271 158.08 130.674 158.008 131.08 157.955C131.61 157.886 132.04 157.835 132.369 157.801C132.703 157.763 132.945 157.701 133.097 157.614C133.252 157.527 133.33 157.375 133.33 157.159V157.114C133.33 156.553 133.176 156.117 132.869 155.807C132.566 155.496 132.106 155.341 131.489 155.341C130.848 155.341 130.347 155.481 129.983 155.761C129.619 156.042 129.364 156.341 129.216 156.659L127.943 156.205C128.17 155.674 128.473 155.261 128.852 154.966C129.235 154.667 129.652 154.458 130.102 154.341C130.557 154.22 131.004 154.159 131.443 154.159C131.723 154.159 132.045 154.193 132.409 154.261C132.777 154.326 133.131 154.46 133.472 154.665C133.816 154.869 134.102 155.178 134.33 155.591C134.557 156.004 134.67 156.557 134.67 157.25V163H133.33V161.818H133.261C133.17 162.008 133.019 162.21 132.807 162.426C132.595 162.642 132.313 162.826 131.96 162.977C131.608 163.129 131.178 163.205 130.67 163.205ZM130.875 162C131.405 162 131.852 161.896 132.216 161.688C132.583 161.479 132.86 161.21 133.045 160.881C133.235 160.551 133.33 160.205 133.33 159.841V158.614C133.273 158.682 133.148 158.744 132.955 158.801C132.765 158.854 132.545 158.902 132.295 158.943C132.049 158.981 131.809 159.015 131.574 159.045C131.343 159.072 131.155 159.095 131.011 159.114C130.663 159.159 130.337 159.233 130.034 159.335C129.735 159.434 129.492 159.583 129.307 159.784C129.125 159.981 129.034 160.25 129.034 160.591C129.034 161.057 129.206 161.409 129.551 161.648C129.9 161.883 130.341 162 130.875 162Z" fill="black"/>
<path d="M116 59C93.944 59 76 76.944 76 99C76 121.056 93.944 139 116 139C138.056 139 156 121.056 156 99C156 76.944 138.056 59 116 59ZM84 99C84 95.404 84.624 91.952 85.724 88.724L92 95L100 103V111L108 119L112 123V130.724C96.244 128.744 84 115.288 84 99ZM141.32 118.492C138.708 116.388 134.748 115 132 115V111C132 108.878 131.157 106.843 129.657 105.343C128.157 103.843 126.122 103 124 103H108V91C110.122 91 112.157 90.1571 113.657 88.6569C115.157 87.1566 116 85.1217 116 83V79H120C122.122 79 124.157 78.1571 125.657 76.6569C127.157 75.1566 128 73.1217 128 71V69.356C139.712 74.112 148 85.6 148 99C147.999 106.059 145.649 112.917 141.32 118.492Z" fill="black"/>
</svg>
