<svg width="130" height="130" viewBox="0 0 130 130" fill="none" xmlns="http://www.w3.org/2000/svg">
<path d="M59.5833 113.75V90.675C57.0375 91.5958 54.3291 92.0833 51.4583 92.0833C37.9166 92.0833 27.0833 81.25 27.0833 67.7083C27.0833 60.8292 29.7916 54.6542 34.45 50.2125C33.2041 47.2875 32.5 44.0375 32.5 40.625C32.5 27.0833 43.3333 16.25 56.875 16.25C65.325 16.25 72.8 20.5833 77.1875 27.0833H78.5416C82.4539 27.0833 86.3279 27.8539 89.9424 29.3511C93.5569 30.8483 96.8411 33.0427 99.6075 35.8091C102.374 38.5755 104.568 41.8597 106.066 45.4742C107.563 49.0887 108.333 52.9627 108.333 56.875C108.333 60.7873 107.563 64.6613 106.066 68.2758C104.568 71.8903 102.374 75.1745 99.6075 77.9409C96.8411 80.7073 93.5569 82.9017 89.9424 84.3989C86.3279 85.8961 82.4539 86.6667 78.5416 86.6667C75.8333 86.6667 73.125 86.2875 70.4166 85.5292V113.75H59.5833Z" fill="black"/>
</svg>
