<svg width="155" height="155" viewBox="0 0 155 155" fill="none" xmlns="http://www.w3.org/2000/svg">
<path d="M54.7021 38.4271C57.8021 36.6187 61.1604 35.1333 64.5834 34.1V25.8333C64.5834 18.7292 70.2021 12.9167 77.3063 12.7229C84.7979 12.9167 90.4167 18.7292 90.4167 25.8333V34.1C93.8396 35.1979 97.1979 36.6187 100.298 38.4271L89.9646 52.1187H65.0354L54.7021 38.4271ZM122.708 77.5C122.708 80.7291 122.385 83.6354 121.804 86.5416L105.465 81.5042L97.7792 57.8666L108.113 44.2396C110.89 46.8229 113.344 49.7291 115.475 52.9583C120.577 52.5062 125.485 53.2812 129.877 55.4771C136.529 58.9 141.05 65.4229 142.083 72.85L122.708 75.175V77.5ZM32.2917 77.5V75.2396L12.9167 72.85C13.95 65.4229 18.4709 58.9 25.1229 55.4771C29.4882 53.2722 34.4455 52.5252 39.2667 53.3458C41.3979 50.0521 43.8521 47.0166 46.7584 44.3687L57.2209 57.8021L49.5354 81.5042L33.1959 86.5416C32.6146 83.6354 32.2917 80.7291 32.2917 77.5ZM66.1334 61.8062H88.8667L95.9063 83.5062L77.5 96.875L59.0938 83.5062L66.1334 61.8062ZM52.5063 90.7396L72.6563 105.335V122.45C68.975 122.062 65.4229 121.223 62.1292 119.996L54.1854 137.821C50.8132 136.323 47.8601 134.021 45.5855 131.116C43.3108 128.211 41.7842 124.791 41.1396 121.158C40.2354 116.25 41.0104 111.342 43.2063 106.95C40.3 103.592 37.9104 99.8458 36.1021 95.7125L52.5063 90.7396ZM102.494 90.7396L118.898 95.7125C117.09 99.8458 114.7 103.592 111.794 106.95C113.99 111.342 114.765 116.25 113.925 121.158C113.258 124.792 111.716 128.208 109.431 131.112C107.147 134.015 104.189 136.318 100.815 137.821L92.9354 119.996C89.5125 121.223 86.0896 122.321 82.3438 122.708V105.335L102.494 90.7396Z" fill="black"/>
</svg>
