<svg width="226" height="215" viewBox="0 0 226 215" fill="none" xmlns="http://www.w3.org/2000/svg">
<path d="M23.0569 54.1683C24.0729 52.8543 25.1439 51.6398 26.2504 50.4903C28.8447 46.6829 31.2926 42.4801 32.9558 38.551C36.079 31.1728 48.3228 23.0299 54.0542 20.1208C61.3957 16.3943 70.0526 13.8422 77.9642 13.0386C82.8653 12.5407 87.6181 13.7019 92.3332 15.4073C99.2002 17.891 105.987 21.529 113.036 22.878C128.456 25.8287 143.602 29.8453 159.044 31.6997C170.778 33.1088 183.238 37.381 193.45 46.9117C211.044 63.3319 216.599 94.4721 217.021 121.299C217.274 137.383 215.015 162.163 206.465 172.536C199.737 180.7 196.71 190.132 187.482 194.195C180.95 197.07 175.719 199.112 168.657 199.83C144.668 202.266 120.687 200.605 96.6598 202.117C81.9118 203.046 67.0271 201.069 52.7037 194.018C46.9595 191.19 41.4397 187.765 35.757 184.85C30.9072 182.363 26.9537 174.041 22.4639 170.193C11.5129 160.806 11.8952 125.194 10.389 110.366C8.18374 88.6558 12.3529 68.0131 23.0569 54.1683Z" fill="#D9D9D9"/>
<path d="M105.8 140V119.41C103.544 120.232 101.144 120.667 98.6 120.667C86.6 120.667 77 111 77 98.9167C77 92.7783 79.4 87.2683 83.528 83.305C82.424 80.695 81.8 77.795 81.8 74.75C81.8 62.6667 91.4 53 103.4 53C110.888 53 117.512 56.8667 121.4 62.6667H122.6C126.067 62.6667 129.5 63.3543 132.703 64.6902C135.906 66.0261 138.816 67.9843 141.268 70.4527C143.719 72.9212 145.664 75.8518 146.99 79.077C148.317 82.3022 149 85.759 149 89.25C149 92.741 148.317 96.1978 146.99 99.423C145.664 102.648 143.719 105.579 141.268 108.047C138.816 110.516 135.906 112.474 132.703 113.81C129.5 115.146 126.067 115.833 122.6 115.833C120.2 115.833 117.8 115.495 115.4 114.818V140H105.8Z" fill="black"/>
<path d="M77.4723 155.364V167H76.1087L69.7678 157.864H69.6541V167H68.245V155.364H69.6087L75.9723 164.523H76.0859V155.364H77.4723ZM82.6783 167.205C82.1252 167.205 81.6233 167.1 81.1726 166.892C80.7218 166.68 80.3639 166.375 80.0987 165.977C79.8336 165.576 79.701 165.091 79.701 164.523C79.701 164.023 79.7995 163.617 79.9964 163.307C80.1934 162.992 80.4567 162.746 80.7862 162.568C81.1158 162.39 81.4794 162.258 81.8771 162.17C82.2786 162.08 82.6821 162.008 83.0874 161.955C83.6177 161.886 84.0476 161.835 84.3771 161.801C84.7105 161.763 84.9529 161.701 85.1044 161.614C85.2597 161.527 85.3374 161.375 85.3374 161.159V161.114C85.3374 160.553 85.1839 160.117 84.8771 159.807C84.5741 159.496 84.1139 159.341 83.4964 159.341C82.8563 159.341 82.3544 159.481 81.9908 159.761C81.6271 160.042 81.3714 160.341 81.2237 160.659L79.951 160.205C80.1783 159.674 80.4813 159.261 80.8601 158.966C81.2427 158.667 81.6593 158.458 82.1101 158.341C82.5646 158.22 83.0116 158.159 83.451 158.159C83.7313 158.159 84.0533 158.193 84.4169 158.261C84.7843 158.326 85.1385 158.46 85.4794 158.665C85.8241 158.869 86.1101 159.178 86.3374 159.591C86.5646 160.004 86.6783 160.557 86.6783 161.25V167H85.3374V165.818H85.2692C85.1783 166.008 85.0268 166.21 84.8146 166.426C84.6025 166.642 84.3203 166.826 83.968 166.977C83.6158 167.129 83.1858 167.205 82.6783 167.205ZM82.8828 166C83.4131 166 83.8601 165.896 84.2237 165.688C84.5911 165.479 84.8677 165.21 85.0533 164.881C85.2427 164.551 85.3374 164.205 85.3374 163.841V162.614C85.2805 162.682 85.1555 162.744 84.9624 162.801C84.773 162.854 84.5533 162.902 84.3033 162.943C84.0571 162.981 83.8165 163.015 83.5817 163.045C83.3506 163.072 83.1631 163.095 83.0192 163.114C82.6707 163.159 82.3449 163.233 82.0419 163.335C81.7427 163.434 81.5002 163.583 81.3146 163.784C81.1328 163.981 81.0419 164.25 81.0419 164.591C81.0419 165.057 81.2143 165.409 81.5589 165.648C81.9074 165.883 82.3487 166 82.8828 166ZM92.9212 158.273V159.409H88.3984V158.273H92.9212ZM89.7166 156.182H91.0575V164.5C91.0575 164.879 91.1125 165.163 91.2223 165.352C91.3359 165.538 91.4799 165.663 91.6541 165.727C91.8321 165.788 92.0196 165.818 92.2166 165.818C92.3643 165.818 92.4856 165.811 92.5803 165.795C92.675 165.777 92.7507 165.761 92.8075 165.75L93.0803 166.955C92.9893 166.989 92.8625 167.023 92.6996 167.057C92.5367 167.095 92.3303 167.114 92.0803 167.114C91.7015 167.114 91.3303 167.032 90.9666 166.869C90.6068 166.706 90.3075 166.458 90.0689 166.125C89.834 165.792 89.7166 165.371 89.7166 164.864V156.182ZM100.438 163.432V158.273H101.779V167H100.438V165.523H100.347C100.143 165.966 99.8246 166.343 99.3928 166.653C98.9609 166.96 98.4155 167.114 97.7564 167.114C97.2109 167.114 96.7261 166.994 96.3018 166.756C95.8776 166.513 95.5443 166.15 95.3018 165.665C95.0594 165.176 94.9382 164.561 94.9382 163.818V158.273H96.2791V163.727C96.2791 164.364 96.4571 164.871 96.8132 165.25C97.1731 165.629 97.6314 165.818 98.1882 165.818C98.5215 165.818 98.8606 165.733 99.2053 165.562C99.5537 165.392 99.8454 165.131 100.08 164.778C100.319 164.426 100.438 163.977 100.438 163.432ZM104.235 167V158.273H105.531V159.591H105.621C105.781 159.159 106.068 158.809 106.485 158.54C106.902 158.271 107.371 158.136 107.894 158.136C107.993 158.136 108.116 158.138 108.263 158.142C108.411 158.146 108.523 158.152 108.599 158.159V159.523C108.553 159.511 108.449 159.494 108.286 159.472C108.127 159.445 107.959 159.432 107.781 159.432C107.356 159.432 106.978 159.521 106.644 159.699C106.315 159.873 106.053 160.116 105.86 160.426C105.671 160.733 105.576 161.083 105.576 161.477V167H104.235ZM112.756 167.205C112.203 167.205 111.701 167.1 111.251 166.892C110.8 166.68 110.442 166.375 110.177 165.977C109.912 165.576 109.779 165.091 109.779 164.523C109.779 164.023 109.878 163.617 110.075 163.307C110.272 162.992 110.535 162.746 110.864 162.568C111.194 162.39 111.558 162.258 111.955 162.17C112.357 162.08 112.76 162.008 113.165 161.955C113.696 161.886 114.126 161.835 114.455 161.801C114.789 161.763 115.031 161.701 115.183 161.614C115.338 161.527 115.415 161.375 115.415 161.159V161.114C115.415 160.553 115.262 160.117 114.955 159.807C114.652 159.496 114.192 159.341 113.575 159.341C112.934 159.341 112.433 159.481 112.069 159.761C111.705 160.042 111.45 160.341 111.302 160.659L110.029 160.205C110.256 159.674 110.559 159.261 110.938 158.966C111.321 158.667 111.737 158.458 112.188 158.341C112.643 158.22 113.09 158.159 113.529 158.159C113.809 158.159 114.131 158.193 114.495 158.261C114.862 158.326 115.217 158.46 115.558 158.665C115.902 158.869 116.188 159.178 116.415 159.591C116.643 160.004 116.756 160.557 116.756 161.25V167H115.415V165.818H115.347C115.256 166.008 115.105 166.21 114.893 166.426C114.681 166.642 114.398 166.826 114.046 166.977C113.694 167.129 113.264 167.205 112.756 167.205ZM112.961 166C113.491 166 113.938 165.896 114.302 165.688C114.669 165.479 114.946 165.21 115.131 164.881C115.321 164.551 115.415 164.205 115.415 163.841V162.614C115.359 162.682 115.234 162.744 115.04 162.801C114.851 162.854 114.631 162.902 114.381 162.943C114.135 162.981 113.895 163.015 113.66 163.045C113.429 163.072 113.241 163.095 113.097 163.114C112.749 163.159 112.423 163.233 112.12 163.335C111.821 163.434 111.578 163.583 111.393 163.784C111.211 163.981 111.12 164.25 111.12 164.591C111.12 165.057 111.292 165.409 111.637 165.648C111.986 165.883 112.427 166 112.961 166ZM123.681 167V165.977L127.522 161.773C127.973 161.28 128.344 160.852 128.636 160.489C128.927 160.121 129.143 159.777 129.283 159.455C129.427 159.129 129.499 158.788 129.499 158.432C129.499 158.023 129.401 157.669 129.204 157.369C129.011 157.07 128.746 156.839 128.408 156.676C128.071 156.513 127.692 156.432 127.272 156.432C126.825 156.432 126.435 156.525 126.102 156.71C125.772 156.892 125.516 157.148 125.335 157.477C125.156 157.807 125.067 158.193 125.067 158.636H123.727C123.727 157.955 123.884 157.356 124.198 156.841C124.513 156.326 124.941 155.924 125.482 155.636C126.028 155.348 126.639 155.205 127.317 155.205C127.999 155.205 128.603 155.348 129.13 155.636C129.656 155.924 130.069 156.312 130.369 156.801C130.668 157.29 130.817 157.833 130.817 158.432C130.817 158.86 130.74 159.278 130.585 159.688C130.433 160.093 130.168 160.545 129.789 161.045C129.414 161.542 128.893 162.148 128.227 162.864L125.613 165.659V165.75H131.022V167H123.681ZM137.164 167.159C136.308 167.159 135.579 166.926 134.977 166.46C134.374 165.991 133.914 165.311 133.596 164.42C133.278 163.527 133.119 162.447 133.119 161.182C133.119 159.924 133.278 158.85 133.596 157.96C133.918 157.066 134.38 156.384 134.982 155.915C135.588 155.441 136.316 155.205 137.164 155.205C138.013 155.205 138.738 155.441 139.34 155.915C139.946 156.384 140.408 157.066 140.727 157.96C141.049 158.85 141.21 159.924 141.21 161.182C141.21 162.447 141.05 163.527 140.732 164.42C140.414 165.311 139.954 165.991 139.352 166.46C138.749 166.926 138.02 167.159 137.164 167.159ZM137.164 165.909C138.013 165.909 138.672 165.5 139.141 164.682C139.611 163.864 139.846 162.697 139.846 161.182C139.846 160.174 139.738 159.316 139.522 158.608C139.31 157.9 139.003 157.36 138.602 156.989C138.204 156.617 137.725 156.432 137.164 156.432C136.323 156.432 135.666 156.847 135.192 157.676C134.719 158.502 134.482 159.67 134.482 161.182C134.482 162.189 134.588 163.045 134.8 163.75C135.013 164.455 135.317 164.991 135.715 165.358C136.117 165.725 136.6 165.909 137.164 165.909ZM147.164 167.159C146.308 167.159 145.579 166.926 144.977 166.46C144.374 165.991 143.914 165.311 143.596 164.42C143.278 163.527 143.119 162.447 143.119 161.182C143.119 159.924 143.278 158.85 143.596 157.96C143.918 157.066 144.38 156.384 144.982 155.915C145.588 155.441 146.316 155.205 147.164 155.205C148.013 155.205 148.738 155.441 149.34 155.915C149.946 156.384 150.408 157.066 150.727 157.96C151.049 158.85 151.21 159.924 151.21 161.182C151.21 162.447 151.05 163.527 150.732 164.42C150.414 165.311 149.954 165.991 149.352 166.46C148.749 166.926 148.02 167.159 147.164 167.159ZM147.164 165.909C148.013 165.909 148.672 165.5 149.141 164.682C149.611 163.864 149.846 162.697 149.846 161.182C149.846 160.174 149.738 159.316 149.522 158.608C149.31 157.9 149.003 157.36 148.602 156.989C148.204 156.617 147.725 156.432 147.164 156.432C146.323 156.432 145.666 156.847 145.192 157.676C144.719 158.502 144.482 159.67 144.482 161.182C144.482 162.189 144.588 163.045 144.8 163.75C145.013 164.455 145.317 164.991 145.715 165.358C146.117 165.725 146.6 165.909 147.164 165.909ZM157.164 167.159C156.308 167.159 155.579 166.926 154.977 166.46C154.374 165.991 153.914 165.311 153.596 164.42C153.278 163.527 153.119 162.447 153.119 161.182C153.119 159.924 153.278 158.85 153.596 157.96C153.918 157.066 154.38 156.384 154.982 155.915C155.588 155.441 156.316 155.205 157.164 155.205C158.013 155.205 158.738 155.441 159.34 155.915C159.946 156.384 160.408 157.066 160.727 157.96C161.049 158.85 161.21 159.924 161.21 161.182C161.21 162.447 161.05 163.527 160.732 164.42C160.414 165.311 159.954 165.991 159.352 166.46C158.749 166.926 158.02 167.159 157.164 167.159ZM157.164 165.909C158.013 165.909 158.672 165.5 159.141 164.682C159.611 163.864 159.846 162.697 159.846 161.182C159.846 160.174 159.738 159.316 159.522 158.608C159.31 157.9 159.003 157.36 158.602 156.989C158.204 156.617 157.725 156.432 157.164 156.432C156.323 156.432 155.666 156.847 155.192 157.676C154.719 158.502 154.482 159.67 154.482 161.182C154.482 162.189 154.588 163.045 154.8 163.75C155.013 164.455 155.317 164.991 155.715 165.358C156.117 165.725 156.6 165.909 157.164 165.909Z" fill="black"/>
</svg>
