<svg width="193" height="193" viewBox="0 0 193 193" fill="none" xmlns="http://www.w3.org/2000/svg">
<path d="M155.175 18.1581C156.364 19.1844 157.452 20.2537 158.475 21.3505C161.948 24.0046 165.814 26.554 169.479 28.3656C176.362 31.7675 183.251 43.5667 185.604 49.0232C188.617 56.0127 190.389 64.1183 190.531 71.4129C190.619 75.9319 189.115 80.1925 187.087 84.3784C184.135 90.4747 180.073 96.4125 178.202 102.759C174.112 116.642 169.012 130.197 165.98 144.181C163.675 154.808 158.544 165.887 148.51 174.521C131.223 189.396 100.67 192.174 74.6998 190.576C59.13 189.618 35.3542 185.719 26.0119 177.134C18.6595 170.377 9.7829 166.911 6.59626 158.171C4.34092 151.986 2.78637 147.051 2.65985 140.539C2.2301 118.421 5.76199 96.6131 6.22891 74.5279C6.51549 60.9721 9.62156 47.506 17.5886 34.9285C20.7837 29.8844 24.5383 25.0899 27.8126 20.1085C30.6069 15.8573 38.9695 12.8571 43.0508 9.0357C53.0053 -0.284868 87.4043 2.69818 101.861 2.41729C123.027 2.00603 142.65 7.3453 155.175 18.1581Z" fill="#D9D9D9"/>
<path d="M85.2266 146H81.6357V134.364H85.3857C86.5144 134.364 87.4804 134.597 88.2834 135.062C89.0864 135.525 89.7019 136.189 90.13 137.057C90.558 137.92 90.772 138.955 90.772 140.159C90.772 141.371 90.5561 142.415 90.1243 143.29C89.6925 144.161 89.0637 144.831 88.2379 145.301C87.4122 145.767 86.4084 146 85.2266 146ZM83.0447 144.75H85.1357C86.0978 144.75 86.8951 144.564 87.5277 144.193C88.1603 143.822 88.6319 143.294 88.9425 142.608C89.2531 141.922 89.4084 141.106 89.4084 140.159C89.4084 139.22 89.255 138.411 88.9482 137.733C88.6413 137.051 88.183 136.528 87.5732 136.165C86.9633 135.797 86.2038 135.614 85.2947 135.614H83.0447V144.75ZM92.9538 137.273H94.2947V146.636C94.2947 147.174 94.2019 147.64 94.0163 148.034C93.8345 148.428 93.558 148.733 93.1868 148.949C92.8194 149.165 92.3554 149.273 91.7947 149.273C91.7493 149.273 91.7038 149.273 91.6584 149.273C91.6129 149.273 91.5675 149.273 91.522 149.273V148.023C91.5675 148.023 91.6091 148.023 91.647 148.023C91.6849 148.023 91.7266 148.023 91.772 148.023C92.1811 148.023 92.4804 147.902 92.6697 147.659C92.8591 147.42 92.9538 147.08 92.9538 146.636V137.273ZM93.6129 135.818C93.3516 135.818 93.1262 135.729 92.9368 135.551C92.7512 135.373 92.6584 135.159 92.6584 134.909C92.6584 134.659 92.7512 134.445 92.9368 134.267C93.1262 134.089 93.3516 134 93.6129 134C93.8743 134 94.0978 134.089 94.2834 134.267C94.4728 134.445 94.5675 134.659 94.5675 134.909C94.5675 135.159 94.4728 135.373 94.2834 135.551C94.0978 135.729 93.8743 135.818 93.6129 135.818ZM102.251 142.432V137.273H103.592V146H102.251V144.523H102.16C101.955 144.966 101.637 145.343 101.205 145.653C100.773 145.96 100.228 146.114 99.5689 146.114C99.0234 146.114 98.5386 145.994 98.1143 145.756C97.6901 145.513 97.3568 145.15 97.1143 144.665C96.8719 144.176 96.7507 143.561 96.7507 142.818V137.273H98.0916V142.727C98.0916 143.364 98.2696 143.871 98.6257 144.25C98.9856 144.629 99.4439 144.818 100.001 144.818C100.334 144.818 100.673 144.733 101.018 144.562C101.366 144.392 101.658 144.131 101.893 143.778C102.131 143.426 102.251 142.977 102.251 142.432ZM106.048 146V137.273H107.343V138.591H107.434C107.593 138.159 107.881 137.809 108.298 137.54C108.714 137.271 109.184 137.136 109.707 137.136C109.805 137.136 109.928 137.138 110.076 137.142C110.224 137.146 110.335 137.152 110.411 137.159V138.523C110.366 138.511 110.262 138.494 110.099 138.472C109.94 138.445 109.771 138.432 109.593 138.432C109.169 138.432 108.79 138.521 108.457 138.699C108.127 138.873 107.866 139.116 107.673 139.426C107.483 139.733 107.388 140.083 107.388 140.477V146H106.048Z" fill="black"/>
<path d="M81.3996 47.0001C86.1196 46.3201 91.1196 51.4801 92.5596 58.6001C93.9996 65.6801 91.3996 72.0001 86.6796 72.7201C81.9996 73.4401 76.9596 68.2801 75.4796 61.1601C73.9996 54.0801 76.6796 47.7601 81.3996 47.0001ZM110 47.0001C114.76 47.7601 117.4 54.0801 116 61.1601C114.48 68.2801 109.48 73.4401 104.76 72.7201C99.9996 72.0001 97.3996 65.6801 98.8796 58.6001C100.32 51.4801 105.32 46.3201 110 47.0001ZM59.9996 65.4001C64.5596 63.4401 70.7596 67.0001 73.9996 73.2001C77.0396 79.5201 75.9996 86.1601 71.4796 88.1201C66.9596 90.0801 60.7996 86.5601 57.6396 80.2801C54.4796 74.0001 55.5996 67.3201 59.9996 65.4001ZM132 65.4001C136.4 67.3201 137.52 74.0001 134.36 80.2801C131.2 86.5601 125.04 90.0801 120.52 88.1201C116 86.1601 114.96 79.5201 118 73.2001C121.24 67.0001 127.44 63.4401 132 65.4001ZM125.32 108.52C125.48 112.28 122.6 116.44 119.16 118C112 121.28 103.52 114.48 95.5596 114.48C87.5996 114.48 79.0396 121.56 71.9996 118C67.9996 116.04 65.2396 110.84 65.7596 106.52C66.4796 100.56 73.6396 97.3601 77.8796 93.0001C83.5196 87.3601 87.5196 76.7601 95.5596 76.7601C103.56 76.7601 107.8 87.2001 113.2 93.0001C117.64 97.8801 125.04 102 125.32 108.52Z" fill="black"/>
</svg>
