<svg width="193" height="193" viewBox="0 0 193 193" fill="none" xmlns="http://www.w3.org/2000/svg">
<path d="M155.174 18.1581C156.363 19.1844 157.451 20.2537 158.474 21.3505C161.947 24.0046 165.813 26.554 169.479 28.3656C176.361 31.7675 183.25 43.5667 185.603 49.0232C188.616 56.0127 190.388 64.1183 190.53 71.4129C190.618 75.9319 189.114 80.1925 187.086 84.3784C184.134 90.4747 180.072 96.4125 178.201 102.759C174.111 116.642 169.011 130.197 165.979 144.181C163.674 154.808 158.544 165.887 148.509 174.521C131.222 189.396 100.669 192.174 74.6988 190.576C59.129 189.618 35.3532 185.719 26.0109 177.134C18.6585 170.377 9.78192 166.911 6.59528 158.171C4.33994 151.986 2.78539 147.051 2.65887 140.539C2.22912 118.421 5.76102 96.6131 6.22793 74.5279C6.51451 60.9721 9.62058 47.506 17.5877 34.9285C20.7827 29.8844 24.5373 25.0899 27.8116 20.1085C30.6059 15.8573 38.9685 12.8571 43.0499 9.0357C53.0044 -0.284868 87.4033 2.69818 101.86 2.41729C123.026 2.00603 142.649 7.3453 155.174 18.1581Z" fill="#D9D9D9"/>
<path d="M36.8388 153L36.8388 141.364L40.7706 141.364C41.6797 141.364 42.4259 141.519 43.0092 141.83C43.5926 142.136 44.0244 142.559 44.3047 143.097C44.585 143.634 44.7251 144.246 44.7251 144.932C44.7251 145.617 44.585 146.225 44.3047 146.756C44.0244 147.286 43.5945 147.703 43.0149 148.006C42.4354 148.305 41.6948 148.455 40.7933 148.455L37.6115 148.455L37.6115 147.182L40.7479 147.182C41.3691 147.182 41.8691 147.091 42.2479 146.909C42.6304 146.727 42.907 146.47 43.0774 146.136C43.2517 145.799 43.3388 145.398 43.3388 144.932C43.3388 144.466 43.2517 144.059 43.0774 143.71C42.9032 143.362 42.6248 143.093 42.2422 142.903C41.8596 142.71 41.3539 142.614 40.7251 142.614L38.2479 142.614L38.2479 153L36.8388 153ZM42.3161 147.773L45.1797 153L43.5433 153L40.7251 147.773L42.3161 147.773ZM50.343 153.182C49.5552 153.182 48.8639 152.994 48.2692 152.619C47.6783 152.244 47.2161 151.72 46.8828 151.045C46.5533 150.371 46.3885 149.583 46.3885 148.682C46.3885 147.773 46.5533 146.979 46.8828 146.301C47.2161 145.623 47.6783 145.097 48.2692 144.722C48.8639 144.347 49.5552 144.159 50.343 144.159C51.1309 144.159 51.8203 144.347 52.4112 144.722C53.0059 145.097 53.468 145.623 53.7976 146.301C54.1309 146.979 54.2976 147.773 54.2976 148.682C54.2976 149.583 54.1309 150.371 53.7976 151.045C53.468 151.72 53.0059 152.244 52.4112 152.619C51.8203 152.994 51.1309 153.182 50.343 153.182ZM50.343 151.977C50.9415 151.977 51.4339 151.824 51.8203 151.517C52.2067 151.21 52.4927 150.807 52.6783 150.307C52.8639 149.807 52.9567 149.265 52.9567 148.682C52.9567 148.098 52.8639 147.555 52.6783 147.051C52.4927 146.547 52.2067 146.14 51.8203 145.83C51.4339 145.519 50.9415 145.364 50.343 145.364C49.7446 145.364 49.2521 145.519 48.8658 145.83C48.4794 146.14 48.1934 146.547 48.0078 147.051C47.8222 147.555 47.7294 148.098 47.7294 148.682C47.7294 149.265 47.8222 149.807 48.0078 150.307C48.1934 150.807 48.4794 151.21 48.8658 151.517C49.2521 151.824 49.7446 151.977 50.343 151.977ZM48.7067 142.818C48.468 142.818 48.2559 142.727 48.0703 142.545C47.8885 142.36 47.7976 142.148 47.7976 141.909C47.7976 141.648 47.8885 141.432 48.0703 141.261C48.2559 141.087 48.468 141 48.7067 141C48.968 141 49.1839 141.087 49.3544 141.261C49.5286 141.432 49.6158 141.648 49.6158 141.909C49.6158 142.148 49.5286 142.36 49.3544 142.545C49.1839 142.727 48.968 142.818 48.7067 142.818ZM51.9794 142.818C51.7408 142.818 51.5286 142.727 51.343 142.545C51.1612 142.36 51.0703 142.148 51.0703 141.909C51.0703 141.648 51.1612 141.432 51.343 141.261C51.5286 141.087 51.7408 141 51.9794 141C52.2408 141 52.4567 141.087 52.6271 141.261C52.8014 141.432 52.8885 141.648 52.8885 141.909C52.8885 142.148 52.8014 142.36 52.6271 142.545C52.4567 142.727 52.2408 142.818 51.9794 142.818ZM59.6399 153.182C58.9126 153.182 58.2706 152.998 57.7138 152.631C57.157 152.259 56.7214 151.737 56.407 151.062C56.0926 150.384 55.9354 149.583 55.9354 148.659C55.9354 147.742 56.0926 146.947 56.407 146.273C56.7214 145.598 57.1589 145.078 57.7195 144.71C58.2801 144.343 58.9278 144.159 59.6626 144.159C60.2308 144.159 60.6797 144.254 61.0092 144.443C61.3426 144.629 61.5964 144.841 61.7706 145.08C61.9486 145.314 62.0869 145.508 62.1854 145.659L62.299 145.659L62.299 141.364L63.6399 141.364L63.6399 153L62.3445 153L62.3445 151.659L62.1854 151.659C62.0869 151.818 61.9467 152.019 61.7649 152.261C61.5831 152.5 61.3236 152.714 60.9865 152.903C60.6494 153.089 60.2005 153.182 59.6399 153.182ZM59.8217 151.977C60.3596 151.977 60.8142 151.837 61.1854 151.557C61.5566 151.273 61.8388 150.881 62.032 150.381C62.2251 149.877 62.3217 149.295 62.3217 148.636C62.3217 147.985 62.227 147.415 62.0376 146.926C61.8482 146.434 61.5679 146.051 61.1967 145.778C60.8255 145.502 60.3672 145.364 59.8217 145.364C59.2536 145.364 58.7801 145.509 58.4013 145.801C58.0263 146.089 57.7441 146.481 57.5547 146.977C57.3691 147.47 57.2763 148.023 57.2763 148.636C57.2763 149.258 57.371 149.822 57.5604 150.33C57.7536 150.833 58.0376 151.235 58.4126 151.534C58.7914 151.83 59.2611 151.977 59.8217 151.977ZM67.6229 141.364L67.6229 153L66.282 153L66.282 141.364L67.6229 141.364ZM70.0788 153L70.0788 144.273L71.4197 144.273L71.4197 153L70.0788 153ZM70.7607 142.818C70.4993 142.818 70.2739 142.729 70.0845 142.551C69.8989 142.373 69.8061 142.159 69.8061 141.909C69.8061 141.659 69.8989 141.445 70.0845 141.267C70.2739 141.089 70.4993 141 70.7607 141C71.022 141 71.2455 141.089 71.4311 141.267C71.6205 141.445 71.7152 141.659 71.7152 141.909C71.7152 142.159 71.6205 142.373 71.4311 142.551C71.2455 142.729 71.022 142.818 70.7607 142.818ZM80.0575 146.227L78.853 146.568C78.7772 146.367 78.6655 146.172 78.5178 145.983C78.3738 145.79 78.1768 145.631 77.9268 145.506C77.6768 145.381 77.3568 145.318 76.9666 145.318C76.4325 145.318 75.9875 145.441 75.6314 145.687C75.2791 145.93 75.103 146.239 75.103 146.614C75.103 146.947 75.2242 147.21 75.4666 147.403C75.709 147.597 76.0878 147.758 76.603 147.886L77.8984 148.205C78.6787 148.394 79.2602 148.684 79.6428 149.074C80.0253 149.46 80.2166 149.958 80.2166 150.568C80.2166 151.068 80.0727 151.515 79.7848 151.909C79.5007 152.303 79.103 152.614 78.5916 152.841C78.0803 153.068 77.4856 153.182 76.8075 153.182C75.9174 153.182 75.1806 152.989 74.5973 152.602C74.014 152.216 73.6446 151.652 73.4893 150.909L74.7621 150.591C74.8833 151.061 75.1125 151.413 75.4496 151.648C75.7905 151.883 76.2356 152 76.7848 152C77.4098 152 77.906 151.867 78.2734 151.602C78.6446 151.333 78.8303 151.011 78.8303 150.636C78.8303 150.333 78.7242 150.08 78.5121 149.875C78.3 149.667 77.9742 149.511 77.5348 149.409L76.0803 149.068C75.281 148.879 74.6939 148.585 74.3189 148.187C73.9477 147.786 73.7621 147.284 73.7621 146.682C73.7621 146.189 73.9003 145.754 74.1768 145.375C74.4571 144.996 74.8378 144.699 75.3189 144.483C75.8037 144.267 76.353 144.159 76.9666 144.159C77.8303 144.159 78.5083 144.348 79.0007 144.727C79.4969 145.106 79.8492 145.606 80.0575 146.227ZM86.0305 144.273L86.0305 145.409L81.5078 145.409L81.5078 144.273L86.0305 144.273ZM82.826 142.182L84.1669 142.182L84.1669 150.5C84.1669 150.879 84.2218 151.163 84.3317 151.352C84.4453 151.538 84.5893 151.663 84.7635 151.727C84.9415 151.788 85.129 151.818 85.326 151.818C85.4737 151.818 85.5949 151.811 85.6896 151.795C85.7843 151.777 85.8601 151.761 85.9169 151.75L86.1896 152.955C86.0987 152.989 85.9718 153.023 85.8089 153.057C85.6461 153.095 85.4396 153.114 85.1896 153.114C84.8108 153.114 84.4396 153.032 84.076 152.869C83.7161 152.706 83.4169 152.458 83.1783 152.125C82.9434 151.792 82.826 151.371 82.826 150.864L82.826 142.182ZM90.6158 153.205C90.0627 153.205 89.5608 153.1 89.1101 152.892C88.6593 152.68 88.3014 152.375 88.0362 151.977C87.7711 151.576 87.6385 151.091 87.6385 150.523C87.6385 150.023 87.737 149.617 87.9339 149.307C88.1309 148.992 88.3942 148.746 88.7237 148.568C89.0533 148.39 89.4169 148.258 89.8146 148.17C90.2161 148.08 90.6196 148.008 91.0249 147.955C91.5552 147.886 91.9851 147.835 92.3146 147.801C92.648 147.763 92.8904 147.701 93.0419 147.614C93.1972 147.527 93.2749 147.375 93.2749 147.159L93.2749 147.114C93.2749 146.553 93.1214 146.117 92.8146 145.807C92.5116 145.496 92.0514 145.341 91.4339 145.341C90.7938 145.341 90.2919 145.481 89.9283 145.761C89.5646 146.042 89.3089 146.341 89.1612 146.659L87.8885 146.205C88.1158 145.674 88.4188 145.261 88.7976 144.966C89.1802 144.667 89.5968 144.458 90.0476 144.341C90.5021 144.22 90.9491 144.159 91.3885 144.159C91.6688 144.159 91.9908 144.193 92.3544 144.261C92.7218 144.326 93.076 144.46 93.4169 144.665C93.7616 144.869 94.0476 145.178 94.2749 145.591C94.5021 146.004 94.6158 146.557 94.6158 147.25L94.6158 153L93.2749 153L93.2749 151.818L93.2067 151.818C93.1158 152.008 92.9643 152.21 92.7521 152.426C92.54 152.642 92.2578 152.826 91.9055 152.977C91.5533 153.129 91.1233 153.205 90.6158 153.205ZM90.8203 152C91.3506 152 91.7976 151.896 92.1612 151.687C92.5286 151.479 92.8052 151.21 92.9908 150.881C93.1802 150.551 93.2749 150.205 93.2749 149.841L93.2749 148.614C93.218 148.682 93.093 148.744 92.8999 148.801C92.7105 148.854 92.4908 148.902 92.2408 148.943C91.9946 148.981 91.754 149.015 91.5192 149.045C91.2881 149.072 91.1006 149.095 90.9567 149.114C90.6082 149.159 90.2824 149.233 89.9794 149.335C89.6802 149.434 89.4377 149.583 89.2521 149.784C89.0703 149.981 88.9794 150.25 88.9794 150.591C88.9794 151.057 89.1518 151.409 89.4964 151.648C89.8449 151.883 90.2862 152 90.8203 152ZM100.359 153.182C99.6314 153.182 98.9893 152.998 98.4325 152.631C97.8757 152.259 97.4401 151.737 97.1257 151.062C96.8113 150.384 96.6541 149.583 96.6541 148.659C96.6541 147.742 96.8113 146.947 97.1257 146.273C97.4401 145.598 97.8776 145.078 98.4382 144.71C98.9988 144.343 99.6465 144.159 100.381 144.159C100.95 144.159 101.398 144.254 101.728 144.443C102.061 144.629 102.315 144.841 102.489 145.08C102.667 145.314 102.806 145.508 102.904 145.659L103.018 145.659L103.018 141.364L104.359 141.364L104.359 153L103.063 153L103.063 151.659L102.904 151.659C102.806 151.818 102.665 152.019 102.484 152.261C102.302 152.5 102.042 152.714 101.705 152.903C101.368 153.089 100.919 153.182 100.359 153.182ZM100.54 151.977C101.078 151.977 101.533 151.837 101.904 151.557C102.275 151.273 102.558 150.881 102.751 150.381C102.944 149.877 103.04 149.295 103.04 148.636C103.04 147.985 102.946 147.415 102.756 146.926C102.567 146.434 102.287 146.051 101.915 145.778C101.544 145.502 101.086 145.364 100.54 145.364C99.9723 145.364 99.4988 145.509 99.12 145.801C98.745 146.089 98.4628 146.481 98.2734 146.977C98.0878 147.47 97.995 148.023 97.995 148.636C97.995 149.258 98.0897 149.822 98.2791 150.33C98.4723 150.833 98.7564 151.235 99.1314 151.534C99.5102 151.83 99.9799 151.977 100.54 151.977ZM110.66 153.182C109.819 153.182 109.094 152.996 108.484 152.625C107.878 152.25 107.41 151.727 107.08 151.057C106.754 150.383 106.592 149.598 106.592 148.705C106.592 147.811 106.754 147.023 107.08 146.341C107.41 145.655 107.868 145.121 108.455 144.739C109.046 144.352 109.736 144.159 110.523 144.159C110.978 144.159 111.427 144.235 111.87 144.386C112.313 144.538 112.717 144.784 113.08 145.125C113.444 145.462 113.734 145.909 113.95 146.466C114.165 147.023 114.273 147.708 114.273 148.523L114.273 149.091L107.546 149.091L107.546 147.932L112.91 147.932C112.91 147.439 112.811 147 112.614 146.614C112.421 146.227 112.145 145.922 111.785 145.699C111.429 145.475 111.008 145.364 110.523 145.364C109.989 145.364 109.527 145.496 109.137 145.761C108.751 146.023 108.453 146.364 108.245 146.784C108.037 147.205 107.933 147.655 107.933 148.136L107.933 148.909C107.933 149.568 108.046 150.127 108.273 150.585C108.504 151.04 108.825 151.386 109.234 151.625C109.643 151.86 110.118 151.977 110.66 151.977C111.012 151.977 111.33 151.928 111.614 151.83C111.902 151.727 112.15 151.576 112.359 151.375C112.567 151.17 112.728 150.917 112.842 150.614L114.137 150.977C114.001 151.417 113.772 151.803 113.45 152.136C113.128 152.466 112.73 152.723 112.256 152.909C111.783 153.091 111.251 153.182 110.66 153.182ZM124.109 153.182C123.381 153.182 122.739 152.998 122.183 152.631C121.626 152.259 121.19 151.737 120.876 151.062C120.561 150.384 120.404 149.583 120.404 148.659C120.404 147.742 120.561 146.947 120.876 146.273C121.19 145.598 121.628 145.078 122.188 144.71C122.749 144.343 123.397 144.159 124.131 144.159C124.7 144.159 125.148 144.254 125.478 144.443C125.811 144.629 126.065 144.841 126.239 145.08C126.417 145.314 126.556 145.508 126.654 145.659L126.768 145.659L126.768 141.364L128.109 141.364L128.109 153L126.813 153L126.813 151.659L126.654 151.659C126.556 151.818 126.415 152.019 126.234 152.261C126.052 152.5 125.792 152.714 125.455 152.903C125.118 153.089 124.669 153.182 124.109 153.182ZM124.29 151.977C124.828 151.977 125.283 151.837 125.654 151.557C126.025 151.273 126.308 150.881 126.501 150.381C126.694 149.877 126.79 149.295 126.79 148.636C126.79 147.985 126.696 147.415 126.506 146.926C126.317 146.434 126.037 146.051 125.665 145.778C125.294 145.502 124.836 145.364 124.29 145.364C123.722 145.364 123.249 145.509 122.87 145.801C122.495 146.089 122.213 146.481 122.023 146.977C121.838 147.47 121.745 148.023 121.745 148.636C121.745 149.258 121.84 149.822 122.029 150.33C122.222 150.833 122.506 151.235 122.881 151.534C123.26 151.83 123.73 151.977 124.29 151.977ZM130.751 144.273L132.092 144.273L132.092 153.636C132.092 154.174 131.999 154.64 131.813 155.034C131.631 155.428 131.355 155.733 130.984 155.949C130.616 156.165 130.152 156.273 129.592 156.273C129.546 156.273 129.501 156.273 129.455 156.273C129.41 156.273 129.364 156.273 129.319 156.273L129.319 155.023C129.364 155.023 129.406 155.023 129.444 155.023C129.482 155.023 129.523 155.023 129.569 155.023C129.978 155.023 130.277 154.902 130.467 154.659C130.656 154.42 130.751 154.08 130.751 153.636L130.751 144.273ZM131.41 142.818C131.148 142.818 130.923 142.729 130.734 142.551C130.548 142.373 130.455 142.159 130.455 141.909C130.455 141.659 130.548 141.445 130.734 141.267C130.923 141.089 131.148 141 131.41 141C131.671 141 131.895 141.089 132.08 141.267C132.27 141.445 132.364 141.659 132.364 141.909C132.364 142.159 132.27 142.373 132.08 142.551C131.895 142.729 131.671 142.818 131.41 142.818ZM140.048 149.432L140.048 144.273L141.388 144.273L141.388 153L140.048 153L140.048 151.523L139.957 151.523C139.752 151.966 139.434 152.343 139.002 152.653C138.57 152.96 138.025 153.114 137.366 153.114C136.82 153.114 136.335 152.994 135.911 152.756C135.487 152.513 135.154 152.15 134.911 151.665C134.669 151.176 134.548 150.561 134.548 149.818L134.548 144.273L135.888 144.273L135.888 149.727C135.888 150.364 136.067 150.871 136.423 151.25C136.782 151.629 137.241 151.818 137.798 151.818C138.131 151.818 138.47 151.733 138.815 151.562C139.163 151.392 139.455 151.131 139.69 150.778C139.928 150.426 140.048 149.977 140.048 149.432ZM143.844 153L143.844 144.273L145.14 144.273L145.14 145.591L145.231 145.591C145.39 145.159 145.678 144.809 146.094 144.54C146.511 144.271 146.981 144.136 147.504 144.136C147.602 144.136 147.725 144.138 147.873 144.142C148.021 144.146 148.132 144.152 148.208 144.159L148.208 145.523C148.163 145.511 148.058 145.494 147.896 145.472C147.737 145.445 147.568 145.432 147.39 145.432C146.966 145.432 146.587 145.521 146.254 145.699C145.924 145.873 145.663 146.116 145.469 146.426C145.28 146.733 145.185 147.083 145.185 147.477L145.185 153L143.844 153Z" fill="black"/>
<path d="M76.0507 50.0635C81.0453 49.3463 86.3361 54.7883 87.8599 62.2975C89.3837 69.7645 86.6324 76.43 81.6379 77.1893C76.6856 77.9487 71.3524 72.5066 69.7864 64.9974C68.2203 57.5305 71.0562 50.865 76.0507 50.0635ZM106.314 50.0635C111.351 50.865 114.145 57.5305 112.663 64.9974C111.055 72.5066 105.764 77.9487 100.77 77.1893C95.7327 76.43 92.9814 69.7645 94.5475 62.2975C96.0713 54.7883 101.362 49.3463 106.314 50.0635ZM53.4059 69.4692C58.2311 67.4021 64.7918 71.1567 68.2203 77.6956C71.4371 84.361 70.3366 91.3639 65.5537 93.4311C60.7707 95.4982 54.2524 91.7858 50.9086 85.1625C47.5648 78.5393 48.7499 71.4941 53.4059 69.4692ZM129.594 69.4692C134.25 71.4941 135.435 78.5393 132.091 85.1625C128.748 91.7858 122.229 95.4982 117.446 93.4311C112.663 91.3639 111.563 84.361 114.78 77.6956C118.208 71.1567 124.769 67.4021 129.594 69.4692ZM122.526 114.946C122.695 118.912 119.647 123.299 116.007 124.944C108.431 128.404 99.4574 121.232 91.0344 121.232C82.6114 121.232 73.5534 128.699 66.1039 124.944C61.8712 122.877 58.9507 117.393 59.5009 112.837C60.2628 106.551 67.8393 103.176 72.326 98.5778C78.294 92.6295 82.5267 81.4501 91.0344 81.4501C99.4998 81.4501 103.986 92.4608 109.701 98.5778C114.399 103.725 122.229 108.07 122.526 114.946Z" fill="black"/>
</svg>
