<svg width="226" height="217" viewBox="0 0 226 217" fill="none" xmlns="http://www.w3.org/2000/svg">
<path d="M23.0569 55.1683C24.0729 53.8543 25.1439 52.6398 26.2504 51.4903C28.8447 47.6829 31.2926 43.4801 32.9558 39.551C36.079 32.1728 48.3228 24.0299 54.0542 21.1208C61.3957 17.3943 70.0526 14.8422 77.9642 14.0386C82.8653 13.5407 87.6181 14.7019 92.3332 16.4073C99.2002 18.891 105.987 22.529 113.036 23.878C128.456 26.8287 143.602 30.8453 159.044 32.6997C170.778 34.1088 183.238 38.381 193.45 47.9117C211.044 64.3319 216.599 95.4721 217.021 122.299C217.274 138.383 215.015 163.163 206.465 173.536C199.737 181.7 196.71 191.132 187.482 195.195C180.95 198.07 175.719 200.112 168.657 200.83C144.668 203.266 120.687 201.605 96.6598 203.117C81.9118 204.046 67.0271 202.069 52.7037 195.018C46.9595 192.19 41.4397 188.765 35.757 185.85C30.9072 183.363 26.9537 175.041 22.4639 171.193C11.5129 161.806 11.8952 126.194 10.389 111.366C8.18374 89.6558 12.3529 69.0131 23.0569 55.1683Z" fill="#D9D9D9"/>
<path d="M101.352 162.273C101.284 161.697 101.007 161.25 100.522 160.932C100.037 160.614 99.4427 160.455 98.7382 160.455C98.223 160.455 97.7723 160.538 97.3859 160.705C97.0033 160.871 96.7041 161.1 96.4882 161.392C96.2761 161.684 96.17 162.015 96.17 162.386C96.17 162.697 96.2439 162.964 96.3916 163.188C96.5431 163.407 96.7363 163.591 96.9711 163.739C97.206 163.883 97.4522 164.002 97.7098 164.097C97.9674 164.187 98.2041 164.261 98.42 164.318L99.6018 164.636C99.9049 164.716 100.242 164.826 100.613 164.966C100.988 165.106 101.346 165.297 101.687 165.54C102.032 165.778 102.316 166.085 102.539 166.46C102.763 166.835 102.875 167.295 102.875 167.841C102.875 168.47 102.71 169.038 102.38 169.545C102.054 170.053 101.577 170.456 100.948 170.756C100.323 171.055 99.564 171.205 98.67 171.205C97.8367 171.205 97.1151 171.07 96.5052 170.801C95.8992 170.532 95.4219 170.157 95.0734 169.676C94.7287 169.195 94.5336 168.636 94.4882 168H95.9427C95.9806 168.439 96.1283 168.803 96.3859 169.091C96.6473 169.375 96.9768 169.587 97.3746 169.727C97.7761 169.864 98.2079 169.932 98.67 169.932C99.2079 169.932 99.6908 169.845 100.119 169.67C100.547 169.492 100.886 169.246 101.136 168.932C101.386 168.614 101.511 168.242 101.511 167.818C101.511 167.432 101.403 167.117 101.187 166.875C100.971 166.633 100.687 166.436 100.335 166.284C99.9825 166.133 99.6018 166 99.1927 165.886L97.7609 165.477C96.8518 165.216 96.1321 164.843 95.6018 164.358C95.0715 163.873 94.8064 163.239 94.8064 162.455C94.8064 161.803 94.9825 161.235 95.3348 160.75C95.6908 160.261 96.1681 159.883 96.7666 159.614C97.3689 159.341 98.0412 159.205 98.7836 159.205C99.5336 159.205 100.2 159.339 100.784 159.608C101.367 159.873 101.829 160.237 102.17 160.699C102.515 161.161 102.697 161.686 102.715 162.273H101.352ZM106.259 167.818L106.237 166.159H106.509L110.328 162.273H111.987L107.919 166.386H107.805L106.259 167.818ZM105.009 171V159.364H106.35V171H105.009ZM110.555 171L107.146 166.682L108.1 165.75L112.259 171H110.555ZM116.899 171.182C116.111 171.182 115.42 170.994 114.825 170.619C114.234 170.244 113.772 169.72 113.438 169.045C113.109 168.371 112.944 167.583 112.944 166.682C112.944 165.773 113.109 164.979 113.438 164.301C113.772 163.623 114.234 163.097 114.825 162.722C115.42 162.347 116.111 162.159 116.899 162.159C117.687 162.159 118.376 162.347 118.967 162.722C119.562 163.097 120.024 163.623 120.353 164.301C120.687 164.979 120.853 165.773 120.853 166.682C120.853 167.583 120.687 168.371 120.353 169.045C120.024 169.72 119.562 170.244 118.967 170.619C118.376 170.994 117.687 171.182 116.899 171.182ZM116.899 169.977C117.497 169.977 117.99 169.824 118.376 169.517C118.762 169.21 119.048 168.807 119.234 168.307C119.42 167.807 119.512 167.265 119.512 166.682C119.512 166.098 119.42 165.555 119.234 165.051C119.048 164.547 118.762 164.14 118.376 163.83C117.99 163.519 117.497 163.364 116.899 163.364C116.3 163.364 115.808 163.519 115.421 163.83C115.035 164.14 114.749 164.547 114.563 165.051C114.378 165.555 114.285 166.098 114.285 166.682C114.285 167.265 114.378 167.807 114.563 168.307C114.749 168.807 115.035 169.21 115.421 169.517C115.808 169.824 116.3 169.977 116.899 169.977ZM126.423 174.455C125.775 174.455 125.218 174.371 124.752 174.205C124.286 174.042 123.898 173.826 123.588 173.557C123.281 173.292 123.036 173.008 122.855 172.705L123.923 171.955C124.044 172.114 124.197 172.295 124.383 172.5C124.569 172.708 124.822 172.888 125.144 173.04C125.47 173.195 125.896 173.273 126.423 173.273C127.127 173.273 127.709 173.102 128.167 172.761C128.626 172.42 128.855 171.886 128.855 171.159V169.386H128.741C128.643 169.545 128.502 169.742 128.321 169.977C128.143 170.208 127.885 170.415 127.548 170.597C127.215 170.775 126.764 170.864 126.196 170.864C125.491 170.864 124.858 170.697 124.298 170.364C123.741 170.03 123.3 169.545 122.974 168.909C122.652 168.273 122.491 167.5 122.491 166.591C122.491 165.697 122.648 164.919 122.963 164.256C123.277 163.589 123.715 163.074 124.275 162.71C124.836 162.343 125.483 162.159 126.218 162.159C126.786 162.159 127.237 162.254 127.571 162.443C127.908 162.629 128.165 162.841 128.343 163.08C128.525 163.314 128.665 163.508 128.764 163.659H128.9V162.273H130.196V171.25C130.196 172 130.025 172.61 129.684 173.08C129.347 173.553 128.893 173.9 128.321 174.119C127.752 174.343 127.12 174.455 126.423 174.455ZM126.377 169.659C126.915 169.659 127.37 169.536 127.741 169.29C128.112 169.044 128.394 168.689 128.588 168.227C128.781 167.765 128.877 167.212 128.877 166.568C128.877 165.939 128.783 165.384 128.593 164.903C128.404 164.422 128.124 164.045 127.752 163.773C127.381 163.5 126.923 163.364 126.377 163.364C125.809 163.364 125.336 163.508 124.957 163.795C124.582 164.083 124.3 164.47 124.11 164.955C123.925 165.439 123.832 165.977 123.832 166.568C123.832 167.174 123.927 167.71 124.116 168.176C124.309 168.638 124.593 169.002 124.968 169.267C125.347 169.528 125.817 169.659 126.377 169.659Z" fill="black"/>
<path d="M109 133V115.96C107.12 116.64 105.12 117 103 117C93 117 85 109 85 99C85 93.92 87 89.36 90.44 86.08C89.52 83.92 89 81.52 89 79C89 69 97 61 107 61C113.24 61 118.76 64.2 122 69H123C125.889 69 128.75 69.569 131.419 70.6747C134.088 71.7803 136.513 73.4008 138.556 75.4437C140.599 77.4865 142.22 79.9118 143.325 82.581C144.431 85.2501 145 88.1109 145 91C145 93.8891 144.431 96.7499 143.325 99.419C142.22 102.088 140.599 104.513 138.556 106.556C136.513 108.599 134.088 110.22 131.419 111.325C128.75 112.431 125.889 113 123 113C121 113 119 112.72 117 112.16V133H109Z" fill="black"/>
</svg>
